<svg width="81" height="82" viewBox="0 0 81 82" fill="none" xmlns="http://www.w3.org/2000/svg">
<path fill-rule="evenodd" clip-rule="evenodd" d="M54.4909 21.2761C55.0343 21.7666 55.08 22.389 54.8738 23.657L54.8252 23.9382L55.1816 23.6731C55.4057 23.5053 55.6409 23.3527 55.8856 23.2163C56.5336 22.8693 57.1639 22.777 57.7928 23.0552C57.9003 23.1021 58.0048 23.1606 58.1065 23.228L59.1521 23.9309L59.7515 24.3482L60.2817 24.7289L60.7441 25.0774L60.9547 25.2414L61.3332 25.5533L61.5026 25.7041L61.8089 25.9926C62.0475 26.2283 62.2433 26.4553 62.4127 26.6881L62.5114 26.8272C63.2065 27.8434 63.395 28.5814 63.0475 30.1511L62.9282 30.649L62.775 31.2025L62.5909 31.819L62.2522 32.8791L61.9105 33.8939L60.8722 36.7199L60.5674 37.5927L60.2949 38.42C60.0887 39.0745 59.9341 39.6339 59.8384 40.0936C59.7884 40.3181 59.753 40.5456 59.7323 40.7745V40.798C59.9739 40.6559 60.2036 40.549 60.4393 40.47C61.4702 40.1288 62.4422 40.4334 63.3081 41.4013C63.5349 41.6546 63.6248 42.435 63.61 43.5215L63.5924 44.0897L63.56 44.7018L63.5114 45.3534L63.448 46.0386L63.3287 47.1134L63.2315 47.8544L63.1181 48.6451L62.993 49.4402L62.9267 49.818L62.7912 50.5355C62.2551 53.177 61.5364 54.6399 60.3067 54.6911L60.1432 54.6896C59.9376 54.6821 59.7317 54.6836 59.5262 54.694L59.021 54.7233C58.8848 54.7324 58.7488 54.7442 58.6131 54.7585L58.6101 60.2803C60.6646 60.5219 60.4658 62.5792 58.6072 63.8063C58.6081 63.819 58.6086 63.8317 58.6087 63.8444C58.6087 69.6664 53.1272 74.4209 46.4204 74.5981L46.033 74.6025H37.0126C30.1173 74.6025 24.4252 69.823 24.4252 63.8956L24.4311 63.8019C22.5813 62.5748 22.384 60.5278 24.4237 60.2818L24.4252 54.757C24.3766 54.7518 24.328 54.7469 24.2794 54.7424L23.7875 54.7072C23.5546 54.693 23.3213 54.6857 23.0879 54.6853L22.9186 54.6896C21.7551 54.7555 21.0291 53.6368 20.4915 51.5078L20.3428 50.8723L20.2029 50.184L20.0703 49.4402L19.9437 48.6451L19.8303 47.8544L19.7345 47.1134L19.6506 46.3915L19.5505 45.3534L19.5019 44.7018L19.4695 44.0882L19.4533 43.5215C19.4385 42.435 19.5269 41.6546 19.7537 41.3998C20.6197 40.4334 21.5902 40.1288 22.6211 40.47C22.8685 40.552 23.11 40.6662 23.3648 40.8185L23.3221 40.675L23.0114 39.5387L22.6402 38.1315L22.4046 37.3188L22.1793 36.6057C22.1204 36.4285 22.0615 36.2645 22.007 36.1137L21.8509 35.711C21.7847 35.5366 21.7018 35.3689 21.6034 35.2103L20.3428 33.4033L19.8774 32.7151L19.6197 32.3212L19.3988 31.9698L19.2132 31.6564L19.0556 31.3724L18.9245 31.1103L18.8156 30.8657L18.7257 30.63L18.6491 30.3957L18.5843 30.1585L18.5254 29.9095C18.3237 28.9929 18.3782 28.1729 18.739 26.7672L18.9275 26.0746C18.9982 25.8286 19.0762 25.565 19.1631 25.2839C22.1749 15.3911 44.9226 12.6471 54.4909 21.2761ZM44.279 61.6977L43.4189 61.7431L42.9771 61.7607L42.0847 61.7812L41.1833 61.7841C40.7342 61.7812 40.285 61.7724 39.8461 61.7578L38.9787 61.7182L38.1481 61.6626C38.0149 61.6522 37.8819 61.641 37.7489 61.6289L36.9905 61.5484C35.9949 61.4268 35.182 61.2584 34.6871 61.0446L34.1673 61.3009L33.2689 61.7299L32.3705 62.1399C32.2233 62.2073 32.0731 62.2732 31.9258 62.3376L31.0466 62.7139C30.9022 62.7754 30.7594 62.834 30.6165 62.8911L29.7741 63.222C28.3677 63.755 27.1144 64.1284 26.1998 64.2324C26.4104 68.8625 30.9656 72.6755 36.6326 72.8395L37.0126 72.8453H46.033C51.8385 72.8453 56.5851 68.9533 56.8311 64.228C55.9754 64.1314 54.8223 63.7975 53.5263 63.3172L52.731 63.0127L52.3231 62.8487L51.4895 62.5001L50.6397 62.1253L49.7811 61.7329L48.921 61.3229L48.3246 61.0285C47.5323 61.3624 46.0242 61.585 44.279 61.6977ZM44.1465 54.2796L43.846 54.2899L41.9315 54.4188C41.8043 54.4852 41.6627 54.5198 41.5189 54.5196C41.3752 54.5193 41.2337 54.4842 41.1068 54.4173L39.0626 54.2826L38.9006 54.2796C34.7505 54.533 33.1909 55.2812 31.5311 57.8408L31.3043 58.1849C29.4928 60.8689 27.7933 62.014 24.8537 62.014L24.9465 62.0125L25.0864 62.1311C25.1704 62.1956 25.2705 62.2659 25.3869 62.3361L25.5754 62.4445L25.7889 62.5529C25.973 62.6407 26.3383 62.6202 26.8552 62.4987L27.269 62.3889L27.7373 62.2424L27.9907 62.1546L28.5341 61.9569L28.8227 61.8456L29.4325 61.5967L30.0849 61.3155L30.7741 61.0051L31.5002 60.6625L32.2586 60.292L33.0465 59.8952L33.8609 59.4705C34.4324 59.1674 35.0391 58.835 35.6459 58.4939L36.2541 58.1512L37.6105 57.3693L39.0597 56.5112L40.2968 55.7556L40.7474 55.4628L40.8019 55.4189C40.8836 55.3046 40.9916 55.2115 41.1169 55.1472C41.2422 55.0829 41.3811 55.0494 41.5221 55.0494C41.663 55.0494 41.802 55.0829 41.9273 55.1472C42.0525 55.2115 42.1605 55.3046 42.2422 55.4189C42.2476 55.4244 42.2535 55.4293 42.2599 55.4335L42.4263 55.5506L43.2024 56.0383L44.6752 56.9241L46.5131 57.9931L48.0035 58.8306C48.4056 59.0532 48.8032 59.2685 49.1832 59.4691L49.9976 59.8937L50.7855 60.292L51.544 60.6625L52.27 61.0051L52.9607 61.3155L53.2906 61.4605L53.9224 61.7241L54.2229 61.8456L54.7884 62.0609C54.9695 62.1268 55.1419 62.1868 55.3068 62.2424L55.7751 62.3889L56.1904 62.4972C56.7059 62.6202 57.0726 62.6422 57.2567 62.5529C57.6337 62.3713 57.9047 62.1868 58.0726 62.0374L58.0976 62.0111L57.8311 62.0081C55.1095 61.9159 53.4777 60.7562 51.7399 58.1849L51.3422 57.5831C49.7428 55.23 48.1508 54.5227 44.1465 54.2796ZM26.191 51.9558V60.1353C27.7388 59.8176 28.7741 58.8512 30.0466 56.889L29.9288 57.0633L29.7565 56.8583L29.3868 56.3955L28.9744 55.8611L28.3029 54.9547L27.593 53.9722L26.8832 52.9618L26.191 51.9558ZM56.8502 51.4711L56.725 51.6615L55.8326 52.9618L55.1212 53.9722L54.4128 54.9547L53.7398 55.8611L53.3274 56.3955L52.9681 56.8451L52.9976 56.889L53.2052 57.2024C54.3834 58.9507 55.3849 59.8308 56.8429 60.1324L56.8502 51.4711ZM41.5206 57.094L41.2261 57.3136C40.9168 57.5333 40.5501 57.7778 40.1392 58.037L39.4882 58.4382L39.1407 58.6461L38.4043 59.0737L37.6193 59.5145L37.0244 59.8366L37.1333 59.8483L37.2806 59.863C38.4441 59.9684 39.9875 60.027 41.5839 60.027C43.1818 60.027 44.7135 59.9699 45.8563 59.8644L46.0345 59.8454L45.6045 59.614L44.8431 59.1894L44.1244 58.7765L43.4543 58.3767L42.8402 57.996C42.7451 57.9355 42.6503 57.8745 42.5559 57.813L42.0405 57.4674C41.8913 57.3652 41.744 57.2602 41.5987 57.1526L41.5206 57.094ZM48.6633 27.6487L48.2024 27.8361L47.684 28.066L47.4027 28.1963L46.7885 28.4921L45.1126 29.3209L44.7223 29.5039L44.3497 29.6723C43.4941 30.0472 42.7444 30.3049 42.0184 30.4484L40.1303 30.8174L39.2983 30.9726L38.179 31.1718L37.2011 31.3284L36.3528 31.4456L36.0951 31.4749L35.6179 31.5232L35.1849 31.5525L34.7932 31.5671C34.6749 31.5698 34.5565 31.5698 34.4383 31.5671L34.1143 31.5495C34.0641 31.5454 34.014 31.5405 33.964 31.5349L33.6813 31.4939L33.4221 31.4383C32.0274 31.0868 31.6548 30.4045 31.5709 28.5214L31.5547 27.9503L31.5473 27.4759C28.4649 28.5419 26.3441 31.0063 26.1998 33.784L26.191 34.0857V48.79L28.6946 52.4698L30.1379 54.5505L30.8168 55.5009L30.939 55.6634C32.7107 53.5329 34.8094 52.77 38.7946 52.5269C38.8284 52.524 38.8682 52.524 38.9153 52.524L39.2688 52.5313L39.7283 52.5562L40.5118 52.6206L40.7725 52.6484L41.2585 52.7114L41.5235 52.7553L41.8372 52.7041C42.3011 52.6382 42.8947 52.584 43.388 52.5518L43.9182 52.5269L44.1185 52.524L44.251 52.5269C48.1022 52.7612 50.192 53.4816 51.9269 55.4555L52.1861 55.0997L53.0182 53.9209L54.3849 51.9368L56.563 48.7329C56.6146 48.5652 56.7156 48.4167 56.8532 48.3068L56.8694 34.358C56.8738 31.1718 54.3407 28.3193 50.6382 27.3031L50.5793 27.2797C50.0403 27.2358 49.4748 27.3397 48.6648 27.6501L48.6633 27.6487ZM61.1064 42.107L60.9989 42.1363L60.8251 42.2008L60.7132 42.2535L60.5099 42.3779L59.9356 42.7967L59.3583 43.2375C59.1202 43.4217 58.8761 43.598 58.6263 43.7661L58.6145 52.994C58.9827 52.9603 59.401 52.9354 59.7544 52.9296H60.1373C60.1182 52.9252 60.1153 52.9179 60.1256 52.8974L60.1521 52.8549C60.2993 52.6411 60.4613 52.2809 60.6219 51.8006C60.9311 50.8605 61.208 49.528 61.4304 47.9818C61.6219 46.6346 61.7632 45.1864 61.8236 43.9886L61.8383 43.6724L61.8545 43.1057V42.8611L61.8472 42.5083L61.8398 42.4131L61.7338 42.3135C61.4981 42.1129 61.3155 42.0631 61.1064 42.107ZM21.328 42.3135L21.2191 42.416L21.2087 42.6474V43.1057L21.2235 43.6724L21.2382 43.9886C21.3001 45.1864 21.44 46.6332 21.6329 47.9818C21.8538 49.528 22.1307 50.8605 22.4414 51.7991C22.574 52.2004 22.708 52.5181 22.8346 52.7363L22.9097 52.8549C22.9466 52.9091 22.9539 52.9237 22.9245 52.9281L22.817 52.9354C23.3542 52.9209 23.8918 52.94 24.4267 52.9925L24.4237 43.7573L24.325 43.6929L23.9245 43.4044L22.736 42.5068L22.5519 42.3779L22.3486 42.2535L22.2367 42.2008L22.0629 42.1363C21.8067 42.0514 21.602 42.0792 21.328 42.3135ZM26.6888 24.3335L26.3427 24.7084L25.7006 25.4171L25.1233 26.0775L24.6078 26.6984C22.9142 28.804 22.3133 30.2815 22.2028 32.4472C22.1962 32.5818 22.1584 32.7131 22.0924 32.8308L22.2043 32.9919L23.0526 34.2028C23.3133 34.5748 23.5681 35.1854 23.8567 36.0566L24.0953 36.8078L24.3412 37.6571L24.4237 37.9558V34.0857C24.4237 30.22 27.3471 26.8668 31.4913 25.6499C31.4863 25.562 31.4799 25.4741 31.4722 25.3864L31.4162 24.8153C31.2793 23.5999 28.1276 22.7916 26.6888 24.3335ZM56.9518 24.6557L56.8546 24.6923L56.7206 24.7655L56.538 24.8826L56.1507 25.1565L55.591 25.5679C54.9607 26.0365 54.4806 26.3352 53.9269 26.5519C53.8278 26.5908 53.7226 26.6117 53.6161 26.6134C56.5512 28.1993 58.4938 30.9287 58.6293 34.0037L58.6366 34.358L58.6337 37.8079L58.6587 37.7318L58.8944 37.0289L59.2066 36.1313L60.3082 33.1295L60.7647 31.7384L61.0239 30.8979L61.1594 30.4206L61.2654 30.0033L61.3435 29.6401L61.373 29.4746L61.4083 29.1774L61.4201 28.9138C61.4218 28.5551 61.314 28.2043 61.1108 27.9079L61.0504 27.8156C60.9468 27.6658 60.8321 27.5238 60.7073 27.391L60.4849 27.164L60.2198 26.9224C60.1169 26.8331 60.0123 26.7457 59.9061 26.6603L59.5424 26.3748L59.1212 26.0629L58.6381 25.7173L57.7839 25.1316L57.0991 24.6733L57.0785 24.6615C57.0384 24.6442 56.9933 24.6421 56.9518 24.6557ZM20.8538 25.7934L20.6476 26.4875L20.4812 27.0864C20.1881 28.1993 20.1248 28.8172 20.2235 29.3926L20.2736 29.6313L20.3236 29.8173C20.3325 29.848 20.3413 29.8788 20.3531 29.9095L20.4194 30.0999L20.5018 30.2976L20.6049 30.5128L20.6476 30.5919C21.1351 28.1524 22.4738 26.2723 25.3928 23.1387C27.8139 20.544 32.8595 21.8355 33.1732 24.6191L33.2056 24.9354L33.2571 25.5357L33.2792 25.9164C33.3341 26.0278 33.3647 26.1494 33.369 26.2733C33.3733 26.3972 33.3512 26.5206 33.3043 26.6354L33.3087 26.8184L33.3234 28.1612L33.3381 28.5946C33.3808 29.4937 33.5001 29.646 33.8551 29.7353L34.0524 29.7734L34.1629 29.788L34.4088 29.807C34.453 29.81 34.4972 29.8114 34.5443 29.8114L34.8477 29.81L35.1923 29.7924L35.5811 29.7617L36.02 29.7133L36.7755 29.6123L37.3498 29.5244L38.3248 29.3604L39.8549 29.0808L41.6708 28.7264C42.254 28.6093 42.8888 28.3925 43.6369 28.0645L44.1641 27.8244L44.7812 27.5257L45.6914 27.0718L46.4115 26.7189L47.0595 26.4158L47.3585 26.281L47.9152 26.0468C49.2406 25.5167 50.1095 25.4025 51.1552 25.5826C51.2763 25.6035 51.3917 25.6494 51.4939 25.7173L51.108 25.6075C51.7295 25.7773 52.326 25.994 52.89 26.2503C52.7564 26.0735 52.6972 25.8518 52.7251 25.6324L52.7737 25.2868L53.0344 23.9191L53.1183 23.4389C53.1522 23.2192 53.1758 23.0347 53.189 22.8736L53.2023 22.5984C53.2067 22.5208 53.2229 22.5061 53.3024 22.5779C44.6045 14.7351 23.4443 17.2859 20.8538 25.7934Z" fill="#101928"/>
</svg>
