<svg width="82" height="82" viewBox="0 0 82 82" fill="none" xmlns="http://www.w3.org/2000/svg">
<path fill-rule="evenodd" clip-rule="evenodd" d="M32.4339 55.9649L35.1531 63.3024L39.9501 65.9264L35.1473 68.5534L32.4325 75.538L29.7192 68.5534L24.9163 65.9264L29.7133 63.301L32.4339 55.9649ZM32.4339 61.0182L31.1322 64.5295L28.577 65.9264L31.1249 67.3204L32.4325 70.6854L33.7415 67.3204L36.2879 65.9264L33.7342 64.5295L32.4339 61.0182ZM54.5227 55.3982C54.6332 55.4319 54.7361 55.487 54.8253 55.5604C54.9145 55.6338 54.9884 55.7241 55.0426 55.8261C55.0969 55.9281 55.1305 56.0399 55.1416 56.1549C55.1526 56.2699 55.1408 56.386 55.1069 56.4964C54.2936 59.1605 53.1044 61.6948 51.5751 64.0229C49.0536 67.8959 45.04 70.1934 40.7569 70.1934C39.7983 70.1934 38.8431 70.0783 37.9118 69.8507C37.7997 69.8233 37.6941 69.7741 37.601 69.7059C37.5079 69.6377 37.4292 69.5518 37.3693 69.4531C37.3094 69.3545 37.2695 69.245 37.2519 69.131C37.2344 69.0169 37.2394 68.9005 37.2668 68.7884C37.2942 68.6763 37.3434 68.5707 37.4116 68.4776C37.4799 68.3845 37.5658 68.3058 37.6644 68.2459C37.763 68.186 37.8725 68.1461 37.9866 68.1285C38.1006 68.1109 38.2171 68.116 38.3292 68.1434C39.1243 68.3381 39.9384 68.4362 40.7569 68.4362C44.4294 68.4362 47.8983 66.4507 50.102 63.0638C51.5415 60.8736 52.6608 58.4891 53.4259 55.9825C53.4596 55.8721 53.5146 55.7694 53.588 55.6803C53.6613 55.5912 53.7514 55.5174 53.8533 55.4632C53.9551 55.4089 54.0667 55.3753 54.1815 55.3641C54.2964 55.353 54.4123 55.3646 54.5227 55.3982ZM63.8766 46.8204C65.3379 52.4667 67.8594 55.5139 72.4924 56.2212L72.8951 56.2753L74.2232 56.4349L73.4793 57.7059L73.2919 57.9929L73.0386 58.3458L72.7223 58.7602C71.9988 59.6693 71.1816 60.4998 70.2843 61.2378C66.811 64.1019 62.4093 65.4901 57.0969 64.5778C56.9832 64.5583 56.8744 64.5166 56.7768 64.455C56.6792 64.3935 56.5946 64.3133 56.528 64.2191C56.4614 64.1248 56.414 64.0184 56.3885 63.9058C56.363 63.7933 56.3599 63.6768 56.3794 63.5631C56.3989 63.4493 56.4407 63.3406 56.5022 63.2429C56.5638 63.1453 56.644 63.0608 56.7382 62.9942C56.8324 62.9275 56.9388 62.8801 57.0514 62.8546C57.1639 62.8291 57.2804 62.8261 57.3942 62.8456C62.1721 63.6656 66.0671 62.4385 69.167 59.8819C69.8787 59.2947 70.5024 58.6724 71.0354 58.0442L71.258 57.7718L71.0442 57.725C66.4801 56.6077 63.8253 53.2472 62.3024 47.7386L62.175 47.2612C62.1168 47.0356 62.1506 46.796 62.2689 46.5953C62.3873 46.3946 62.5805 46.2491 62.8062 46.1908C63.0318 46.1326 63.2713 46.1663 63.4721 46.2847C63.6728 46.403 63.8183 46.5948 63.8766 46.8204ZM60.0182 27.7144L60.1324 27.9751L60.3491 28.4993L60.4516 28.7643L60.6463 29.3061C60.7093 29.4892 60.7693 29.6766 60.8279 29.8669L60.9992 30.4527L61.1618 31.0721L61.2408 31.3942L61.3931 32.0736L61.541 32.7999L61.6142 33.1836L61.7592 33.9948L61.9042 34.8689L62.1238 36.3171L62.3566 37.9439L62.6876 40.3571C62.7142 40.585 62.6507 40.8144 62.5105 40.9961C62.3703 41.1777 62.1645 41.2973 61.9372 41.3293C61.71 41.3612 61.4792 41.303 61.2944 41.167C61.1095 41.031 60.9852 40.8281 60.948 40.6016L60.4677 37.1283L60.251 35.6714L60.1104 34.7928L59.9713 33.9801L59.8337 33.2289L59.6916 32.5305L59.5481 31.8818L59.3988 31.2756L59.2421 30.7045C59.1901 30.5246 59.1354 30.3454 59.0781 30.1671L58.9038 29.6517L58.8131 29.4013L58.6212 28.9122L58.4148 28.4319C52.1096 14.3397 29.4336 14.3426 23.1299 28.4319L22.9102 28.9444L22.8063 29.2007L22.6086 29.7264C22.5456 29.9021 22.4841 30.0837 22.4241 30.2682L22.2498 30.8319L22.1678 31.1248L22.0068 31.7398L21.853 32.3914L21.7051 33.0913L21.5587 33.8439L21.4137 34.6566L21.2702 35.5352L21.0477 36.9922L20.8939 38.0655L20.4766 41.0819L20.2262 42.7629L20.0607 43.7864L19.8938 44.7382L19.7239 45.6271L19.6375 46.0502L19.4589 46.8556C19.3374 47.3739 19.21 47.863 19.0753 48.3272L18.8659 49.0066C18.7601 49.3325 18.6464 49.6557 18.5247 49.976L18.2758 50.5954C18.1469 50.9029 18.0107 51.2045 17.8658 51.5047C16.3078 54.7408 13.9708 56.8347 10.619 57.6928L10.2852 57.7718L10.5077 58.0442C10.9353 58.5464 11.42 59.0443 11.9603 59.5246L12.3776 59.8819C15.4775 62.4385 19.3725 63.6656 24.1505 62.8471C24.3758 62.8173 24.6038 62.876 24.7867 63.0108C24.9697 63.1456 25.0933 63.3461 25.1315 63.5701C25.1698 63.7941 25.1198 64.0242 24.992 64.2121C24.8643 64.4 24.6686 64.5311 24.4463 64.5778C19.1338 65.4901 14.7337 64.1019 11.2604 61.2378C10.363 60.4993 9.54578 59.6684 8.82233 58.7588L8.65541 58.545L8.37133 58.1613L8.15169 57.8392L7.99501 57.5903L7.32144 56.4335L8.64955 56.2739C13.3748 55.7057 15.766 53.4039 17.324 47.9274L17.5407 47.1221C17.611 46.8468 17.6798 46.5642 17.7472 46.2728L17.9448 45.3796L18.1352 44.441L18.3153 43.4541L18.491 42.4203L18.5759 41.8843L18.7429 40.7759L19.1573 37.7931L19.3169 36.6861L19.4838 35.5791L19.7298 34.0856L19.8938 33.1865L19.9758 32.7648L20.1457 31.9653L20.3214 31.2229C20.6538 29.905 21.0315 28.8171 21.5265 27.7144C28.4496 12.2399 53.0935 12.2369 60.0182 27.7144ZM44.8774 34.806L45.2142 35.0666L47.4941 37.0053L48.7519 38.045L49.2439 38.4345C49.7682 38.8342 50.2851 39.2047 50.8005 39.5459C50.9903 39.6765 51.1211 39.8764 51.1649 40.1026C51.2087 40.3288 51.162 40.5631 51.0347 40.7551C50.9073 40.9471 50.7097 41.0814 50.4843 41.1291C50.2589 41.1769 50.0238 41.1341 49.8297 41.0102C49.2805 40.6456 48.7314 40.2546 48.1779 39.8299L47.6889 39.4463L46.6814 38.6175L44.097 36.4226C36.102 30.1042 26.2429 34.3345 26.59 42.8317C26.8301 48.7621 27.7863 54.9999 29.8158 59.9112C29.9047 60.1267 29.9044 60.3687 29.8149 60.584C29.7254 60.7993 29.554 60.9702 29.3384 61.0592C29.1229 61.1481 28.8809 61.1478 28.6656 61.0582C28.4503 60.9687 28.2794 60.7973 28.1904 60.5818C26.0658 55.4348 25.0818 49.0227 24.8343 42.9035C24.4287 32.9434 35.8033 27.9487 44.8774 34.806ZM55.842 32.2903L59.0634 40.9882L64.7815 44.1144L59.0561 47.2436L55.842 55.5227L52.625 47.2436L46.8996 44.1144L52.6177 40.9867L55.842 32.2903ZM55.842 37.3465L54.038 42.2138L50.5618 44.113L54.0322 46.0107L55.8405 50.6701L57.6533 46.0107L61.1208 44.113L57.646 42.2138L55.842 37.3465Z" fill="#101928"/>
</svg>
