<svg id="visual" viewBox="0 0 1200 150" width="1200" height="150" xmlns="http://www.w3.org/2000/svg" xmlns:xlink="http://www.w3.org/1999/xlink" version="1.1"><rect x="0" y="0" width="1200" height="150" fill="#6614AA"></rect><defs><linearGradient id="grad1_0" x1="87.5%" y1="0%" x2="100%" y2="100%"><stop offset="-110%" stop-color="#fbae3c" stop-opacity="1"></stop><stop offset="210%" stop-color="#fbae3c" stop-opacity="1"></stop></linearGradient></defs><defs><linearGradient id="grad1_1" x1="87.5%" y1="0%" x2="100%" y2="100%"><stop offset="-110%" stop-color="#fbae3c" stop-opacity="1"></stop><stop offset="210%" stop-color="#f22864" stop-opacity="1"></stop></linearGradient></defs><defs><linearGradient id="grad1_2" x1="87.5%" y1="0%" x2="100%" y2="100%"><stop offset="-110%" stop-color="#6614aa" stop-opacity="1"></stop><stop offset="210%" stop-color="#f22864" stop-opacity="1"></stop></linearGradient></defs><defs><linearGradient id="grad2_0" x1="0%" y1="0%" x2="12.5%" y2="100%"><stop offset="-110%" stop-color="#fbae3c" stop-opacity="1"></stop><stop offset="210%" stop-color="#fbae3c" stop-opacity="1"></stop></linearGradient></defs><defs><linearGradient id="grad2_1" x1="0%" y1="0%" x2="12.5%" y2="100%"><stop offset="-110%" stop-color="#f22864" stop-opacity="1"></stop><stop offset="210%" stop-color="#fbae3c" stop-opacity="1"></stop></linearGradient></defs><defs><linearGradient id="grad2_2" x1="0%" y1="0%" x2="12.5%" y2="100%"><stop offset="-110%" stop-color="#f22864" stop-opacity="1"></stop><stop offset="210%" stop-color="#6614aa" stop-opacity="1"></stop></linearGradient></defs><g transform="translate(1200, 0)"><path d="M0 150C-10.9 148.2 -21.8 146.3 -32.9 144.3C-44.1 142.2 -55.6 140 -64.6 134.2C-73.7 128.5 -80.5 119.2 -89.8 112.6C-99.1 105.9 -110.9 101.9 -117.3 93.5C-123.6 85.2 -124.5 72.6 -128.8 62C-133.2 51.5 -141.1 43.1 -145.3 33.2C-149.4 23.2 -149.7 11.6 -150 0L0 0Z" fill="#c3008a"></path><path d="M0 100C-7.3 98.8 -14.5 97.6 -22 96.2C-29.4 94.8 -37 93.3 -43.1 89.5C-49.2 85.7 -53.7 79.5 -59.9 75.1C-66.1 70.6 -74 67.9 -78.2 62.3C-82.4 56.8 -83 48.4 -85.9 41.4C-88.8 34.4 -94.1 28.8 -96.8 22.1C-99.6 15.4 -99.8 7.7 -100 0L0 0Z" fill="#ff7145"></path><path d="M0 50C-3.6 49.4 -7.3 48.8 -11 48.1C-14.7 47.4 -18.5 46.7 -21.5 44.7C-24.6 42.8 -26.8 39.7 -29.9 37.5C-33 35.3 -37 34 -39.1 31.2C-41.2 28.4 -41.5 24.2 -42.9 20.7C-44.4 17.2 -47 14.4 -48.4 11.1C-49.8 7.7 -49.9 3.9 -50 0L0 0Z" fill="#fbae3c"></path></g><g transform="translate(0, 150)"><path d="M0 -150C10.9 -148.1 21.8 -146.2 32.9 -144.3C44.1 -142.4 55.4 -140.4 65.1 -135.1C74.7 -129.9 82.7 -121.4 90.4 -113.4C98.1 -105.4 105.5 -97.9 112.6 -89.8C119.6 -81.7 126.3 -72.9 131.5 -63.3C136.8 -53.8 140.5 -43.4 143.3 -32.7C146.1 -22 148.1 -11 150 0L0 0Z" fill="#c3008a"></path><path d="M0 -100C7.3 -98.7 14.5 -97.5 22 -96.2C29.4 -94.9 36.9 -93.6 43.4 -90.1C49.8 -86.6 55.1 -80.9 60.3 -75.6C65.4 -70.2 70.4 -65.3 75.1 -59.9C79.8 -54.4 84.2 -48.6 87.7 -42.2C91.2 -35.9 93.7 -28.9 95.5 -21.8C97.4 -14.7 98.7 -7.3 100 0L0 0Z" fill="#ff7145"></path><path d="M0 -50C3.6 -49.4 7.3 -48.7 11 -48.1C14.7 -47.5 18.5 -46.8 21.7 -45C24.9 -43.3 27.6 -40.5 30.1 -37.8C32.7 -35.1 35.2 -32.6 37.5 -29.9C39.9 -27.2 42.1 -24.3 43.8 -21.1C45.6 -17.9 46.8 -14.5 47.8 -10.9C48.7 -7.3 49.4 -3.7 50 0L0 0Z" fill="#fbae3c"></path></g></svg>