<svg width="191" height="35" viewBox="0 0 191 35" fill="none" xmlns="http://www.w3.org/2000/svg">
<path d="M15.9668 11.377C15.9668 11.7676 15.8984 12.168 15.7617 12.5781C15.2734 13.9453 14.1504 14.9121 12.3926 15.4785C12.8613 15.5371 13.3105 15.625 13.7402 15.7422C16.1035 16.3672 17.2852 17.7637 17.2852 19.9316C17.2852 20.9082 16.9922 21.8066 16.4062 22.627C15.2148 24.209 13.2812 25 10.6055 25H0.585938V24.209H2.92969V8.21289H0.585938V7.42188H10.0781C11.1523 7.42188 12.1094 7.53906 12.9492 7.77344C14.9609 8.35938 15.9668 9.56055 15.9668 11.377ZM8.4375 8.21289H7.03125V15.0684H8.67188C9.02344 15.0684 9.35547 15.0293 9.66797 14.9512C11.0352 14.5605 11.7188 13.4473 11.7188 11.6113C11.6992 9.38477 10.6055 8.25195 8.4375 8.21289ZM9.43359 15.8887H7.03125V24.209H8.99414C9.24805 24.209 9.50195 24.1895 9.75586 24.1504C11.7871 23.8574 12.8027 22.3828 12.8027 19.7266C12.8027 19.1406 12.7148 18.5938 12.5391 18.0859C12.0312 16.6211 10.9961 15.8887 9.43359 15.8887ZM26.1914 24.2383C26.3086 24.2383 26.416 24.248 26.5137 24.2676C26.7676 24.3066 26.8945 24.5508 26.8945 25H18.6035V24.2383C18.8574 24.2383 19.082 24.2188 19.2773 24.1797C19.9609 24.0625 20.3027 23.5742 20.3027 22.7148V13.1641H18.6035V12.4023H23.7305L23.9355 15.127C24.1504 14.5801 24.4629 14.0723 24.873 13.6035C25.791 12.6465 26.8555 12.168 28.0664 12.168C28.3203 12.168 28.5645 12.1973 28.7988 12.2559C29.7559 12.5098 30.2344 13.125 30.2344 14.1016C30.2344 14.375 30.1758 14.6387 30.0586 14.8926C29.7266 15.6348 29.1699 16.0059 28.3887 16.0059C28.1543 16.0059 27.9395 15.9766 27.7441 15.918C27.334 15.7617 26.9531 15.3711 26.6016 14.7461C26.3477 14.2969 26.1133 14.0723 25.8984 14.0723C25.7812 14.0723 25.6543 14.1016 25.5176 14.1602C24.6582 14.6094 24.1602 15.8594 24.0234 17.9102V24.2383H26.1914ZM37.6172 24.2383C37.7344 24.2383 37.8418 24.248 37.9395 24.2676C38.1934 24.3066 38.3203 24.5508 38.3203 25H31.1133V24.2383C31.3672 24.2383 31.5918 24.2188 31.7871 24.1797C32.4707 24.0625 32.8125 23.5742 32.8125 22.7148V13.1641H31.1133V12.4023H36.5332V24.2383H37.6172ZM36.7969 8.56445C36.7969 8.93555 36.6992 9.28711 36.5039 9.61914C36.0938 10.3418 35.459 10.7031 34.5996 10.7031C34.248 10.7031 33.9062 10.6152 33.5742 10.4395C32.8125 10.0488 32.4316 9.42383 32.4316 8.56445C32.4316 8.19336 32.5195 7.8418 32.6953 7.50977C33.125 6.74805 33.7598 6.36719 34.5996 6.36719C34.9707 6.36719 35.3223 6.46484 35.6543 6.66016C36.416 7.07031 36.7969 7.70508 36.7969 8.56445ZM45.7324 8.56445C45.7324 8.93555 45.6348 9.28711 45.4395 9.61914C45.0293 10.3418 44.3945 10.7031 43.5352 10.7031C43.1836 10.7031 42.8418 10.6152 42.5098 10.4395C41.748 10.0488 41.3672 9.42383 41.3672 8.56445C41.3672 8.19336 41.4551 7.8418 41.6309 7.50977C42.0605 6.74805 42.6953 6.36719 43.5352 6.36719C43.9062 6.36719 44.2578 6.46484 44.5898 6.66016C45.3516 7.07031 45.7324 7.70508 45.7324 8.56445ZM39.9902 12.4023H45.5566V23.9453C45.5566 24.2578 45.5469 24.5605 45.5273 24.8535C45.3125 28.7598 43.75 30.7129 40.8398 30.7129C40.0195 30.7129 39.3164 30.5762 38.7305 30.3027C37.7734 29.8535 37.2949 29.1992 37.2949 28.3398C37.2949 28.2031 37.3145 28.0664 37.3535 27.9297C37.5293 27.3047 37.9883 26.9922 38.7305 26.9922C39.2578 26.9922 39.6582 27.168 39.9316 27.5195C40.0684 27.7148 40.2246 28.2129 40.4004 29.0137C40.5566 29.6191 40.8301 29.9219 41.2207 29.9219C41.7285 29.9023 41.9922 29.4336 42.0117 28.5156C42.0117 28.2031 41.9922 27.5684 41.9531 26.6113C41.875 24.9316 41.8359 23.6328 41.8359 22.7148V13.1641H39.9902V12.4023ZM58.6816 25.293C57.1191 25.1953 56.1328 24.3066 55.7227 22.627C55.625 22.9004 55.498 23.1641 55.3418 23.418C54.5605 24.668 53.3398 25.293 51.6797 25.293C51.1328 25.293 50.6348 25.2246 50.1855 25.0879C48.6621 24.5996 47.9004 23.4863 47.9004 21.748C47.9199 19.1895 50.4395 17.8613 55.459 17.7637V15.8594C55.459 15.293 55.4199 14.8047 55.3418 14.3945C55.1465 13.2812 54.5898 12.7246 53.6719 12.7246C53.3984 12.7246 53.1543 12.7734 52.9395 12.8711C52.6074 13.0664 52.334 13.5547 52.1191 14.3359C52.041 14.6094 51.9824 14.8047 51.9434 14.9219C51.6504 15.7422 51.084 16.1523 50.2441 16.1523C50.0488 16.1523 49.8633 16.123 49.6875 16.0645C48.9648 15.8691 48.6035 15.3906 48.6035 14.6289C48.6035 14.2969 48.6914 13.9844 48.8672 13.6914C49.5508 12.5391 51.2207 11.9629 53.877 11.9629C54.5605 11.9629 55.1953 12.0312 55.7812 12.168C58.0469 12.7344 59.1797 14.2383 59.1797 16.6797V22.8027C59.1797 23.7402 59.3945 24.2285 59.8242 24.2676C60.3906 24.248 60.7324 23.5645 60.8496 22.2168L61.6113 22.2461C61.5527 22.8516 61.4648 23.3496 61.3477 23.7402C60.9961 24.7754 60.1074 25.293 58.6816 25.293ZM53.2031 24.0332C53.3398 24.0332 53.4961 24.0039 53.6719 23.9453C54.4922 23.6328 55.0879 22.793 55.459 21.4258V18.584C54.5801 18.623 53.8574 18.7305 53.291 18.9062C52.2363 19.2969 51.709 20.1367 51.709 21.4258C51.7285 23.125 52.2266 23.9941 53.2031 24.0332ZM62.6367 18.6719C62.6367 16.7578 63.2129 15.1953 64.3652 13.9844C65.6543 12.6367 67.334 11.9629 69.4043 11.9629C70.9277 11.9629 72.1973 12.2656 73.2129 12.8711C74.248 13.5156 74.7656 14.2676 74.7656 15.127C74.7656 15.2832 74.7461 15.4395 74.707 15.5957C74.4727 16.3379 73.8574 16.709 72.8613 16.709C72.3926 16.709 72.0215 16.6113 71.748 16.416C71.3965 16.1621 71.1621 15.5859 71.0449 14.6875C70.9863 14.3164 70.9375 14.0527 70.8984 13.8965C70.7031 13.0957 70.1758 12.6953 69.3164 12.6953C68.8867 12.6953 68.5156 12.7832 68.2031 12.959C67.168 13.584 66.6504 15.5371 66.6504 18.8184C66.6504 20.459 66.8164 21.7285 67.1484 22.627C67.5977 23.8379 68.4961 24.4434 69.8438 24.4434C70.3516 24.4434 70.8594 24.3652 71.3672 24.209C72.6758 23.7988 73.6035 23.0078 74.1504 21.8359L74.9121 22.041C74.7168 22.5488 74.4336 23.0176 74.0625 23.4473C72.9688 24.6777 71.4062 25.293 69.375 25.293C68.0664 25.293 66.9043 25.0488 65.8887 24.5605C63.7207 23.4863 62.6367 21.5234 62.6367 18.6719ZM69.1113 10.3223C69.0137 10.3223 68.916 10.3125 68.8184 10.293C68.3301 10.2148 67.7637 9.80469 67.1191 9.0625C65.9277 7.63672 65.1074 6.69922 64.6582 6.25L65.0977 5.66406C66.1133 6.23047 67.4512 6.8457 69.1113 7.50977C70.5176 6.98242 71.8359 6.36719 73.0664 5.66406L73.5059 6.25C72.9785 6.81641 72.3438 7.54883 71.6016 8.44727C71.2891 8.83789 71.0645 9.10156 70.9277 9.23828C70.3027 9.96094 69.6973 10.3223 69.1113 10.3223ZM81.7969 24.2383C81.9141 24.2383 82.0215 24.248 82.1191 24.2676C82.373 24.3066 82.5 24.5508 82.5 25H75.6445V24.2383C75.8008 24.2383 75.9473 24.2285 76.084 24.209C76.9238 24.1113 77.3438 23.6133 77.3438 22.7148V13.1641H75.6445V12.4023H80.8594L81.0059 14.6875C81.1816 14.3359 81.416 13.9941 81.709 13.6621C82.7051 12.5293 83.916 11.9629 85.3418 11.9629C85.8496 11.9629 86.3379 12.041 86.8066 12.1973C88.5254 12.8027 89.3848 14.3164 89.3848 16.7383V24.2383H90.3516C90.4688 24.2383 90.5859 24.248 90.7031 24.2676C90.957 24.3066 91.084 24.5508 91.084 25H84.3164V24.2383C84.5898 24.2383 84.8242 24.209 85.0195 24.1504C85.4492 24.0137 85.6641 23.5352 85.6641 22.7148V16.2402C85.6641 15.9668 85.6445 15.7031 85.6055 15.4492C85.4102 14.1406 84.7559 13.4863 83.6426 13.4863C83.3496 13.4863 83.0664 13.5547 82.793 13.6914C81.7969 14.1797 81.2305 15.1953 81.0938 16.7383L81.0645 24.2383H81.7969ZM98.7598 24.2383C98.877 24.2383 98.9844 24.248 99.082 24.2676C99.3359 24.3066 99.4629 24.5508 99.4629 25H92.2559V24.2383C92.5098 24.2383 92.7344 24.2188 92.9297 24.1797C93.6133 24.0625 93.9551 23.5742 93.9551 22.7148V13.1641H92.2559V12.4023H97.6758V24.2383H98.7598ZM97.9395 8.56445C97.9395 8.93555 97.8418 9.28711 97.6465 9.61914C97.2363 10.3418 96.6016 10.7031 95.7422 10.7031C95.3906 10.7031 95.0488 10.6152 94.7168 10.4395C93.9551 10.0488 93.5742 9.42383 93.5742 8.56445C93.5742 8.19336 93.6621 7.8418 93.8379 7.50977C94.2676 6.74805 94.9023 6.36719 95.7422 6.36719C96.1133 6.36719 96.4648 6.46484 96.7969 6.66016C97.5586 7.07031 97.9395 7.70508 97.9395 8.56445ZM100.928 18.6719C100.928 16.7578 101.504 15.1953 102.656 13.9844C103.945 12.6367 105.625 11.9629 107.695 11.9629C109.219 11.9629 110.488 12.2656 111.504 12.8711C112.539 13.5156 113.057 14.2676 113.057 15.127C113.057 15.2832 113.037 15.4395 112.998 15.5957C112.764 16.3379 112.148 16.709 111.152 16.709C110.684 16.709 110.312 16.6113 110.039 16.416C109.688 16.1621 109.453 15.5859 109.336 14.6875C109.277 14.3164 109.229 14.0527 109.189 13.8965C108.994 13.0957 108.467 12.6953 107.607 12.6953C107.178 12.6953 106.807 12.7832 106.494 12.959C105.459 13.584 104.941 15.5371 104.941 18.8184C104.941 20.459 105.107 21.7285 105.439 22.627C105.889 23.8379 106.787 24.4434 108.135 24.4434C108.643 24.4434 109.15 24.3652 109.658 24.209C110.967 23.7988 111.895 23.0078 112.441 21.8359L113.203 22.041C113.008 22.5488 112.725 23.0176 112.354 23.4473C111.26 24.6777 109.697 25.293 107.666 25.293C106.357 25.293 105.195 25.0488 104.18 24.5605C102.012 23.4863 100.928 21.5234 100.928 18.6719ZM124.717 25.293C123.154 25.1953 122.168 24.3066 121.758 22.627C121.66 22.9004 121.533 23.1641 121.377 23.418C120.596 24.668 119.375 25.293 117.715 25.293C117.168 25.293 116.67 25.2246 116.221 25.0879C114.697 24.5996 113.936 23.4863 113.936 21.748C113.955 19.1895 116.475 17.8613 121.494 17.7637V15.8594C121.494 15.293 121.455 14.8047 121.377 14.3945C121.182 13.2812 120.625 12.7246 119.707 12.7246C119.434 12.7246 119.189 12.7734 118.975 12.8711C118.643 13.0664 118.369 13.5547 118.154 14.3359C118.076 14.6094 118.018 14.8047 117.979 14.9219C117.686 15.7422 117.119 16.1523 116.279 16.1523C116.084 16.1523 115.898 16.123 115.723 16.0645C115 15.8691 114.639 15.3906 114.639 14.6289C114.639 14.2969 114.727 13.9844 114.902 13.6914C115.586 12.5391 117.256 11.9629 119.912 11.9629C120.596 11.9629 121.23 12.0312 121.816 12.168C124.082 12.7344 125.215 14.2383 125.215 16.6797V22.8027C125.215 23.7402 125.43 24.2285 125.859 24.2676C126.426 24.248 126.768 23.5645 126.885 22.2168L127.646 22.2461C127.588 22.8516 127.5 23.3496 127.383 23.7402C127.031 24.7754 126.143 25.293 124.717 25.293ZM119.238 24.0332C119.375 24.0332 119.531 24.0039 119.707 23.9453C120.527 23.6328 121.123 22.793 121.494 21.4258V18.584C120.615 18.623 119.893 18.7305 119.326 18.9062C118.271 19.2969 117.744 20.1367 117.744 21.4258C117.764 23.125 118.262 23.9941 119.238 24.0332ZM146.484 25H136.816V24.209H139.6V8.21289H139.102C138.438 8.21289 137.871 8.33984 137.402 8.59375C136.719 8.98438 136.162 9.80469 135.732 11.0547L134.824 13.6914H133.945L134.062 7.42188H149.238L149.355 13.6914H148.477L147.568 11.0547C147.432 10.6836 147.305 10.3613 147.188 10.0879C146.602 8.83789 145.605 8.21289 144.199 8.21289H143.701V24.209H145.693C146.104 24.248 146.367 24.5117 146.484 25ZM154.688 18.6426C154.688 20.4785 154.805 21.8164 155.039 22.6562C155.391 23.9062 156.172 24.5312 157.383 24.5312C158.066 24.5312 158.623 24.3262 159.053 23.916C159.795 23.1738 160.166 21.377 160.166 18.5254C160.166 16.748 160.049 15.4492 159.814 14.6289C159.463 13.3594 158.662 12.7246 157.412 12.7246C156.67 12.7246 156.094 12.9492 155.684 13.3984C155.02 14.1602 154.688 15.9082 154.688 18.6426ZM157.559 11.9629C159.238 11.9629 160.674 12.4219 161.865 13.3398C163.408 14.5703 164.18 16.2793 164.18 18.4668C164.18 20.1074 163.691 21.5527 162.715 22.8027C161.406 24.4629 159.6 25.293 157.295 25.293C155.615 25.293 154.17 24.7852 152.959 23.7695C151.436 22.4805 150.674 20.7324 150.674 18.5254C150.674 16.9629 151.123 15.5957 152.021 14.4238C153.311 12.7832 155.156 11.9629 157.559 11.9629ZM171.797 24.2383C171.914 24.2383 172.021 24.248 172.119 24.2676C172.373 24.3066 172.5 24.5508 172.5 25H165.645V24.2383C165.801 24.2383 165.947 24.2285 166.084 24.209C166.924 24.1113 167.344 23.6133 167.344 22.7148V13.1641H165.645V12.4023H170.859L171.006 14.6875C171.182 14.3359 171.416 13.9941 171.709 13.6621C172.705 12.5293 173.916 11.9629 175.342 11.9629C175.85 11.9629 176.338 12.041 176.807 12.1973C178.525 12.8027 179.385 14.3164 179.385 16.7383V24.2383H180.352C180.469 24.2383 180.586 24.248 180.703 24.2676C180.957 24.3066 181.084 24.5508 181.084 25H174.316V24.2383C174.59 24.2383 174.824 24.209 175.02 24.1504C175.449 24.0137 175.664 23.5352 175.664 22.7148V16.2402C175.664 15.9668 175.645 15.7031 175.605 15.4492C175.41 14.1406 174.756 13.4863 173.643 13.4863C173.35 13.4863 173.066 13.5547 172.793 13.6914C171.797 14.1797 171.23 15.1953 171.094 16.7383L171.064 24.2383H171.797ZM188.76 24.2383C188.877 24.2383 188.984 24.248 189.082 24.2676C189.336 24.3066 189.463 24.5508 189.463 25H182.256V24.2383C182.51 24.2383 182.734 24.2188 182.93 24.1797C183.613 24.0625 183.955 23.5742 183.955 22.7148V13.1641H182.256V12.4023H187.676V24.2383H188.76ZM187.939 8.56445C187.939 8.93555 187.842 9.28711 187.646 9.61914C187.236 10.3418 186.602 10.7031 185.742 10.7031C185.391 10.7031 185.049 10.6152 184.717 10.4395C183.955 10.0488 183.574 9.42383 183.574 8.56445C183.574 8.19336 183.662 7.8418 183.838 7.50977C184.268 6.74805 184.902 6.36719 185.742 6.36719C186.113 6.36719 186.465 6.46484 186.797 6.66016C187.559 7.07031 187.939 7.70508 187.939 8.56445Z" fill="black" fill-opacity="0.7"/>
</svg>
