<svg width="137" height="46" viewBox="0 0 137 46" fill="none" xmlns="http://www.w3.org/2000/svg">
<path d="M15.5 40.5C9.70022 38.511 0 38 0 38L101 29C101 29 68.4078 31.968 48.5 38C39.7509 40.651 26.5 46 26.5 46C26.5 46 20.0431 42.058 15.5 40.5Z" fill="#444444"/>
<path d="M13.1165 11.2727C13.0014 10.3011 12.5348 9.54688 11.7166 9.00994C10.8984 8.47301 9.89489 8.20454 8.70597 8.20454C7.83665 8.20454 7.07599 8.34517 6.42401 8.62642C5.77841 8.90767 5.27344 9.29439 4.90909 9.78658C4.55114 10.2788 4.37216 10.8381 4.37216 11.4645C4.37216 11.9886 4.4968 12.4393 4.74609 12.8164C5.00178 13.1871 5.32777 13.4972 5.72408 13.7464C6.12038 13.9893 6.53587 14.1907 6.97053 14.3505C7.40518 14.5039 7.80469 14.6286 8.16903 14.7244L10.1634 15.2614C10.6747 15.3956 11.2436 15.581 11.87 15.8175C12.5028 16.054 13.1069 16.3768 13.6822 16.7859C14.2638 17.1886 14.7433 17.7063 15.1204 18.3391C15.4975 18.9719 15.6861 19.7486 15.6861 20.669C15.6861 21.7301 15.408 22.6889 14.8519 23.5455C14.3022 24.402 13.4968 25.0827 12.4357 25.5877C11.381 26.0927 10.0994 26.3452 8.59091 26.3452C7.18466 26.3452 5.96697 26.1183 4.93786 25.6644C3.91513 25.2106 3.10973 24.5778 2.52166 23.766C1.93999 22.9542 1.6108 22.0114 1.53409 20.9375H3.98864C4.05256 21.679 4.30185 22.2926 4.73651 22.7784C5.17756 23.2578 5.73367 23.6158 6.40483 23.8523C7.08239 24.0824 7.81108 24.1974 8.59091 24.1974C9.49858 24.1974 10.3136 24.0504 11.0359 23.7564C11.7582 23.456 12.3303 23.0405 12.7521 22.5099C13.174 21.973 13.3849 21.3466 13.3849 20.6307C13.3849 19.9787 13.2028 19.4482 12.8384 19.0391C12.4741 18.63 11.9947 18.2976 11.4002 18.0419C10.8058 17.7862 10.1634 17.5625 9.47301 17.3707L7.05682 16.6804C5.52273 16.2393 4.30824 15.6097 3.41335 14.7915C2.51847 13.9734 2.07102 12.9027 2.07102 11.5795C2.07102 10.4801 2.36825 9.52131 2.96271 8.70312C3.56357 7.87855 4.36896 7.23935 5.37891 6.78551C6.39524 6.32528 7.52983 6.09517 8.78267 6.09517C10.0483 6.09517 11.1733 6.32209 12.1577 6.77592C13.142 7.22337 13.9219 7.837 14.4972 8.61683C15.0788 9.39666 15.3857 10.282 15.4176 11.2727H13.1165ZM19.2888 31.5227V11.2727H21.4749V13.6122H21.7433C21.9095 13.3565 22.1396 13.0305 22.4337 12.6342C22.7341 12.2315 23.1624 11.8736 23.7185 11.5604C24.281 11.2408 25.0416 11.081 26.0004 11.081C27.2405 11.081 28.3335 11.391 29.2796 12.011C30.2256 12.631 30.9639 13.5099 31.4944 14.6477C32.0249 15.7855 32.2902 17.1278 32.2902 18.6747C32.2902 20.2344 32.0249 21.5863 31.4944 22.7305C30.9639 23.8683 30.2288 24.7504 29.2892 25.3768C28.3495 25.9968 27.2661 26.3068 26.0388 26.3068C25.0928 26.3068 24.3353 26.1502 23.7664 25.837C23.1975 25.5174 22.7597 25.1562 22.4529 24.7536C22.146 24.3445 21.9095 24.0057 21.7433 23.7372H21.5516V31.5227H19.2888ZM21.5132 18.6364C21.5132 19.7486 21.6762 20.7298 22.0022 21.5799C22.3282 22.4237 22.8044 23.0852 23.4308 23.5646C24.0573 24.0376 24.8243 24.2741 25.732 24.2741C26.678 24.2741 27.4674 24.0249 28.1002 23.5263C28.7394 23.0213 29.2188 22.3437 29.5384 21.4936C29.8644 20.6371 30.0274 19.6847 30.0274 18.6364C30.0274 17.6009 29.8676 16.6676 29.548 15.8366C29.2348 14.9993 28.7586 14.3377 28.1194 13.8519C27.4866 13.3597 26.6908 13.1136 25.732 13.1136C24.8115 13.1136 24.0381 13.3469 23.4117 13.8136C22.7852 14.2738 22.3122 14.9194 21.9926 15.7504C21.673 16.5749 21.5132 17.5369 21.5132 18.6364ZM41.7249 26.3068C40.3953 26.3068 39.2288 25.9904 38.2252 25.3576C37.2281 24.7248 36.4482 23.8395 35.8857 22.7017C35.3296 21.5639 35.0516 20.2344 35.0516 18.7131C35.0516 17.179 35.3296 15.8398 35.8857 14.6957C36.4482 13.5515 37.2281 12.663 38.2252 12.0302C39.2288 11.3974 40.3953 11.081 41.7249 11.081C43.0544 11.081 44.2178 11.3974 45.2149 12.0302C46.2185 12.663 46.9983 13.5515 47.5544 14.6957C48.1169 15.8398 48.3982 17.179 48.3982 18.7131C48.3982 20.2344 48.1169 21.5639 47.5544 22.7017C46.9983 23.8395 46.2185 24.7248 45.2149 25.3576C44.2178 25.9904 43.0544 26.3068 41.7249 26.3068ZM41.7249 24.2741C42.7348 24.2741 43.5658 24.0153 44.2178 23.4975C44.8698 22.9798 45.3524 22.299 45.6656 21.4553C45.9788 20.6115 46.1354 19.6974 46.1354 18.7131C46.1354 17.7287 45.9788 16.8114 45.6656 15.9613C45.3524 15.1112 44.8698 14.424 44.2178 13.8999C43.5658 13.3757 42.7348 13.1136 41.7249 13.1136C40.7149 13.1136 39.884 13.3757 39.232 13.8999C38.58 14.424 38.0974 15.1112 37.7842 15.9613C37.471 16.8114 37.3144 17.7287 37.3144 18.7131C37.3144 19.6974 37.471 20.6115 37.7842 21.4553C38.0974 22.299 38.58 22.9798 39.232 23.4975C39.884 24.0153 40.7149 24.2741 41.7249 24.2741ZM51.8523 26V11.2727H54.0384V13.4972H54.1918C54.4602 12.7685 54.946 12.1772 55.6491 11.7234C56.3523 11.2695 57.1449 11.0426 58.027 11.0426C58.1932 11.0426 58.4009 11.0458 58.6502 11.0522C58.8995 11.0586 59.0881 11.0682 59.2159 11.081V13.3821C59.1392 13.3629 58.9634 13.3342 58.6886 13.2958C58.4201 13.2511 58.1357 13.2287 57.8352 13.2287C57.1193 13.2287 56.4801 13.3789 55.9176 13.6793C55.3615 13.9734 54.9205 14.3825 54.5945 14.9066C54.2749 15.4244 54.1151 16.0156 54.1151 16.6804V26H51.8523ZM69.2259 11.2727V13.1903H61.5938V11.2727H69.2259ZM63.8182 7.74432H66.081V21.7812C66.081 22.4205 66.1737 22.8999 66.359 23.2195C66.5508 23.5327 66.7937 23.7436 67.0877 23.8523C67.3881 23.9545 67.7045 24.0057 68.0369 24.0057C68.2862 24.0057 68.4908 23.9929 68.6506 23.9673C68.8104 23.9354 68.9382 23.9098 69.0341 23.8906L69.4943 25.9233C69.3409 25.9808 69.1268 26.0384 68.8519 26.0959C68.5771 26.1598 68.2287 26.1918 67.8068 26.1918C67.1676 26.1918 66.5412 26.0543 65.9276 25.7795C65.3203 25.5046 64.8153 25.0859 64.4126 24.5234C64.0163 23.9609 63.8182 23.2514 63.8182 22.3949V7.74432ZM78.1907 26.2685C76.8995 26.2685 75.7873 26.032 74.854 25.5589C73.9208 25.0859 73.2017 24.4371 72.6967 23.6126C72.1918 22.788 71.9393 21.8452 71.9393 20.7841C71.9393 19.9659 72.1119 19.2404 72.457 18.6076C72.8086 17.9684 73.2912 17.3771 73.9048 16.8338C74.5249 16.2841 75.2376 15.7344 76.043 15.1847L78.881 13.0753C79.4371 12.7109 79.8814 12.321 80.2138 11.9055C80.5526 11.4901 80.7219 10.9467 80.7219 10.2756C80.7219 9.77699 80.5014 9.29439 80.0604 8.82777C79.6257 8.36115 79.0536 8.12784 78.3441 8.12784C77.8455 8.12784 77.4045 8.25568 77.021 8.51136C76.6438 8.76065 76.3466 9.08025 76.1293 9.47017C75.9183 9.85369 75.8129 10.25 75.8129 10.6591C75.8129 11.1193 75.9375 11.5859 76.1868 12.0589C76.4425 12.5256 76.7653 13.005 77.1552 13.4972C77.5515 13.983 77.9606 14.4815 78.3825 14.9929L87.3952 26H84.6722L77.2319 17.0256C76.5415 16.1946 75.9151 15.4403 75.3526 14.7628C74.7901 14.0852 74.3427 13.4173 74.0103 12.7589C73.6779 12.1005 73.5117 11.3878 73.5117 10.6207C73.5117 9.73864 73.7067 8.9652 74.0966 8.30043C74.4929 7.62926 75.0458 7.10831 75.7553 6.73757C76.4712 6.36044 77.3086 6.17188 78.2674 6.17188C79.2518 6.17188 80.0987 6.36364 80.8082 6.74716C81.5178 7.12429 82.0643 7.62606 82.4478 8.25248C82.8313 8.87251 83.0231 9.54688 83.0231 10.2756C83.0231 11.2152 82.7898 12.0302 82.3232 12.7205C81.8565 13.4109 81.2205 14.0533 80.4151 14.6477L76.5032 17.5625C75.6211 18.2145 75.0234 18.8473 74.7102 19.4609C74.397 20.0746 74.2404 20.5156 74.2404 20.7841C74.2404 21.3977 74.4002 21.9698 74.7198 22.5004C75.0394 23.0309 75.4901 23.4592 76.0717 23.7852C76.6534 24.1112 77.3342 24.2741 78.114 24.2741C78.8555 24.2741 79.5778 24.1175 80.2809 23.8043C80.984 23.4847 81.62 23.0245 82.1889 22.4237C82.7642 21.8228 83.218 21.1005 83.5504 20.2567C83.8892 19.413 84.0586 18.4638 84.0586 17.4091H86.2447C86.2447 18.7131 86.0945 19.7773 85.794 20.6019C85.4936 21.4265 85.1548 22.0721 84.7777 22.5387C84.4006 23.0053 84.0969 23.3537 83.8668 23.5838C83.7901 23.6797 83.7198 23.7756 83.6559 23.8714C83.592 23.9673 83.5217 24.0632 83.445 24.1591C82.8121 24.8686 82.0131 25.3991 81.0479 25.7507C80.0827 26.0959 79.1303 26.2685 78.1907 26.2685ZM100.946 11.2727C100.831 10.3011 100.364 9.54688 99.5457 9.00994C98.7275 8.47301 97.724 8.20454 96.5351 8.20454C95.6657 8.20454 94.9051 8.34517 94.2531 8.62642C93.6075 8.90767 93.1025 9.29439 92.7382 9.78658C92.3802 10.2788 92.2013 10.8381 92.2013 11.4645C92.2013 11.9886 92.3259 12.4393 92.5752 12.8164C92.8309 13.1871 93.1569 13.4972 93.5532 13.7464C93.9495 13.9893 94.365 14.1907 94.7996 14.3505C95.2343 14.5039 95.6338 14.6286 95.9981 14.7244L97.9925 15.2614C98.5038 15.3956 99.0727 15.581 99.6991 15.8175C100.332 16.054 100.936 16.3768 101.511 16.7859C102.093 17.1886 102.572 17.7063 102.949 18.3391C103.327 18.9719 103.515 19.7486 103.515 20.669C103.515 21.7301 103.237 22.6889 102.681 23.5455C102.131 24.402 101.326 25.0827 100.265 25.5877C99.2101 26.0927 97.9285 26.3452 96.42 26.3452C95.0138 26.3452 93.7961 26.1183 92.767 25.6644C91.7442 25.2106 90.9388 24.5778 90.3508 23.766C89.7691 22.9542 89.4399 22.0114 89.3632 20.9375H91.8177C91.8817 21.679 92.1309 22.2926 92.5656 22.7784C93.0067 23.2578 93.5628 23.6158 94.2339 23.8523C94.9115 24.0824 95.6402 24.1974 96.42 24.1974C97.3277 24.1974 98.1427 24.0504 98.865 23.7564C99.5873 23.456 100.159 23.0405 100.581 22.5099C101.003 21.973 101.214 21.3466 101.214 20.6307C101.214 19.9787 101.032 19.4482 100.668 19.0391C100.303 18.63 99.8238 18.2976 99.2293 18.0419C98.6349 17.7862 97.9925 17.5625 97.3021 17.3707L94.8859 16.6804C93.3518 16.2393 92.1373 15.6097 91.2425 14.7915C90.3476 13.9734 89.9001 12.9027 89.9001 11.5795C89.9001 10.4801 90.1974 9.52131 90.7918 8.70312C91.3927 7.87855 92.1981 7.23935 93.208 6.78551C94.2243 6.32528 95.3589 6.09517 96.6118 6.09517C97.8774 6.09517 99.0024 6.32209 99.9868 6.77592C100.971 7.22337 101.751 7.837 102.326 8.61683C102.908 9.39666 103.215 10.282 103.247 11.2727H100.946ZM107.118 31.5227V11.2727H109.304V13.6122H109.572C109.739 13.3565 109.969 13.0305 110.263 12.6342C110.563 12.2315 110.991 11.8736 111.548 11.5604C112.11 11.2408 112.871 11.081 113.83 11.081C115.07 11.081 116.163 11.391 117.109 12.011C118.055 12.631 118.793 13.5099 119.324 14.6477C119.854 15.7855 120.119 17.1278 120.119 18.6747C120.119 20.2344 119.854 21.5863 119.324 22.7305C118.793 23.8683 118.058 24.7504 117.118 25.3768C116.179 25.9968 115.095 26.3068 113.868 26.3068C112.922 26.3068 112.164 26.1502 111.596 25.837C111.027 25.5174 110.589 25.1562 110.282 24.7536C109.975 24.3445 109.739 24.0057 109.572 23.7372H109.381V31.5227H107.118ZM109.342 18.6364C109.342 19.7486 109.505 20.7298 109.831 21.5799C110.157 22.4237 110.634 23.0852 111.26 23.5646C111.886 24.0376 112.653 24.2741 113.561 24.2741C114.507 24.2741 115.297 24.0249 115.929 23.5263C116.569 23.0213 117.048 22.3437 117.368 21.4936C117.694 20.6371 117.857 19.6847 117.857 18.6364C117.857 17.6009 117.697 16.6676 117.377 15.8366C117.064 14.9993 116.588 14.3377 115.949 13.8519C115.316 13.3597 114.52 13.1136 113.561 13.1136C112.641 13.1136 111.867 13.3469 111.241 13.8136C110.614 14.2738 110.141 14.9194 109.822 15.7504C109.502 16.5749 109.342 17.5369 109.342 18.6364ZM127.905 26.3452C126.972 26.3452 126.125 26.1694 125.364 25.8178C124.603 25.4599 123.999 24.9453 123.552 24.2741C123.104 23.5966 122.881 22.7784 122.881 21.8196C122.881 20.9759 123.047 20.2919 123.379 19.7678C123.712 19.2372 124.156 18.8217 124.712 18.5213C125.268 18.2209 125.882 17.9972 126.553 17.8501C127.23 17.6967 127.911 17.5753 128.595 17.4858C129.49 17.3707 130.216 17.2844 130.772 17.2269C131.334 17.163 131.743 17.0575 131.999 16.9105C132.261 16.7635 132.392 16.5078 132.392 16.1435V16.0668C132.392 15.1207 132.133 14.3857 131.615 13.8615C131.104 13.3374 130.327 13.0753 129.286 13.0753C128.205 13.0753 127.358 13.3118 126.745 13.7848C126.131 14.2578 125.7 14.7628 125.45 15.2997L123.303 14.5327C123.686 13.6378 124.197 12.9411 124.837 12.4425C125.482 11.9375 126.185 11.5859 126.946 11.3878C127.713 11.1832 128.467 11.081 129.209 11.081C129.682 11.081 130.225 11.1385 130.839 11.2536C131.459 11.3622 132.056 11.5891 132.632 11.9343C133.213 12.2795 133.696 12.8004 134.08 13.4972C134.463 14.1939 134.655 15.1271 134.655 16.2969V26H132.392V24.0057H132.277C132.124 24.3253 131.868 24.6673 131.51 25.0316C131.152 25.396 130.676 25.706 130.081 25.9616C129.487 26.2173 128.761 26.3452 127.905 26.3452ZM128.25 24.3125C129.145 24.3125 129.899 24.1367 130.513 23.7852C131.133 23.4336 131.599 22.9798 131.913 22.4237C132.232 21.8675 132.392 21.2827 132.392 20.669V18.598C132.296 18.7131 132.085 18.8185 131.759 18.9144C131.44 19.0039 131.069 19.0838 130.647 19.1541C130.232 19.218 129.826 19.2756 129.429 19.3267C129.039 19.3714 128.723 19.4098 128.48 19.4418C127.892 19.5185 127.342 19.6431 126.831 19.8157C126.326 19.9819 125.917 20.2344 125.604 20.5732C125.297 20.9055 125.143 21.3594 125.143 21.9347C125.143 22.7209 125.434 23.3153 126.016 23.718C126.604 24.1143 127.349 24.3125 128.25 24.3125Z" fill="#444444"/>
</svg>
