<svg width="147" height="33" viewBox="0 0 147 33" fill="none" xmlns="http://www.w3.org/2000/svg">
<path d="M38.78 17.67V15.24H44.84V17.67H38.78ZM36.8 5.85H39.53V27H36.8V5.85ZM38.63 5.85H46.34V8.22H38.63V5.85ZM57.3031 22.26C57.3031 21.52 57.0931 20.87 56.6731 20.31C56.2531 19.73 55.7131 19.19 55.0531 18.69C54.3931 18.19 53.6831 17.68 52.9231 17.16C52.1831 16.64 51.4831 16.07 50.8231 15.45C50.1631 14.83 49.6231 14.13 49.2031 13.35C48.7831 12.55 48.5731 11.63 48.5731 10.59H51.3031C51.3031 11.31 51.5131 11.96 51.9331 12.54C52.3531 13.1 52.8931 13.64 53.5531 14.16C54.2131 14.66 54.9131 15.17 55.6531 15.69C56.4131 16.21 57.1231 16.78 57.7831 17.4C58.4431 18 58.9831 18.7 59.4031 19.5C59.8231 20.28 60.0331 21.2 60.0331 22.26H57.3031ZM48.5731 10.65C48.5731 9.55 48.8231 8.61 49.3231 7.83C49.8231 7.05 50.5231 6.45 51.4231 6.03C52.3231 5.61 53.3531 5.4 54.5131 5.4V7.74C53.5131 7.74 52.7231 8 52.1431 8.52C51.5831 9.04 51.3031 9.75 51.3031 10.65H48.5731ZM60.0331 22.2C60.0331 23.28 59.7831 24.22 59.2831 25.02C58.7831 25.8 58.0831 26.4 57.1831 26.82C56.3031 27.24 55.2731 27.45 54.0931 27.45V25.08C55.0931 25.08 55.8731 24.83 56.4331 24.33C57.0131 23.81 57.3031 23.1 57.3031 22.2H60.0331ZM57.3331 10.38C57.2331 9.48 56.9131 8.82 56.3731 8.4C55.8531 7.96 55.2331 7.74 54.5131 7.74V5.4C55.4531 5.4 56.3031 5.59 57.0631 5.97C57.8231 6.35 58.4531 6.87 58.9531 7.53C59.4531 8.19 59.7631 8.97 59.8831 9.87L57.3331 10.38ZM50.4931 21.06C50.6131 22.32 50.9831 23.31 51.6031 24.03C52.2431 24.73 53.0731 25.08 54.0931 25.08V27.45C52.3931 27.45 51.0031 26.93 49.9231 25.89C48.8631 24.85 48.2231 23.41 48.0031 21.57L50.4931 21.06ZM70.0878 27V24.63H78.3978V27H70.0878ZM70.5378 17.67V15.24H76.5978V17.67H70.5378ZM68.5578 5.85H71.2878V27H68.5578V5.85ZM70.3878 5.85H78.0978V8.22H70.3878V5.85ZM81.6898 27V5.4H84.4198V27H81.6898ZM88.3653 20.25V18.3H98.5953V20.25H88.3653ZM93.0153 27.48V25.11H93.1653V27.48H93.0153ZM87.4953 21.63V17.22H90.2253V21.63H87.4953ZM95.8653 18.3V16.74H98.5953V18.3H95.8653ZM98.5953 16.74H95.8653C95.8653 15.86 95.5953 15.14 95.0553 14.58C94.5353 14.02 93.8553 13.74 93.0153 13.74V11.4C94.0953 11.4 95.0453 11.63 95.8653 12.09C96.7053 12.55 97.3653 13.19 97.8453 14.01C98.3453 14.81 98.5953 15.72 98.5953 16.74ZM95.9853 22.5L98.5353 23.01C98.4153 23.87 98.1053 24.64 97.6053 25.32C97.1053 26 96.4753 26.53 95.7153 26.91C94.9553 27.29 94.1053 27.48 93.1653 27.48V25.11C93.8853 25.11 94.5053 24.9 95.0253 24.48C95.5653 24.04 95.8853 23.38 95.9853 22.5ZM87.4953 17.25C87.4953 16.11 87.7353 15.11 88.2153 14.25C88.7153 13.37 89.3753 12.68 90.1953 12.18C91.0353 11.66 91.9853 11.4 93.0453 11.4V13.74C92.1653 13.74 91.4753 14.05 90.9753 14.67C90.4753 15.27 90.2253 16.13 90.2253 17.25H87.4953ZM87.4953 21.63H90.2253C90.2253 22.73 90.4753 23.59 90.9753 24.21C91.4753 24.81 92.1653 25.11 93.0453 25.11V27.48C91.9853 27.48 91.0353 27.23 90.1953 26.73C89.3753 26.21 88.7153 25.51 88.2153 24.63C87.7353 23.75 87.4953 22.75 87.4953 21.63ZM101.125 21.66V17.19H103.855V21.66H101.125ZM101.125 17.22C101.125 16.1 101.365 15.1 101.845 14.22C102.345 13.34 103.005 12.65 103.825 12.15C104.665 11.63 105.615 11.37 106.675 11.37V13.74C105.795 13.74 105.105 14.04 104.605 14.64C104.105 15.24 103.855 16.1 103.855 17.22H101.125ZM109.465 16.35C109.365 15.45 109.045 14.79 108.505 14.37C107.985 13.95 107.365 13.74 106.645 13.74V11.37C107.585 11.37 108.435 11.56 109.195 11.94C109.955 12.32 110.585 12.85 111.085 13.53C111.585 14.19 111.895 14.96 112.015 15.84L109.465 16.35ZM101.125 21.63H103.855C103.855 22.73 104.105 23.59 104.605 24.21C105.105 24.81 105.795 25.11 106.675 25.11V27.48C105.615 27.48 104.665 27.23 103.825 26.73C103.005 26.21 102.345 25.51 101.845 24.63C101.365 23.75 101.125 22.75 101.125 21.63ZM109.465 22.5L112.015 23.01C111.895 23.87 111.585 24.64 111.085 25.32C110.585 26 109.955 26.53 109.195 26.91C108.435 27.29 107.585 27.48 106.645 27.48V25.11C107.365 25.11 107.985 24.9 108.505 24.48C109.045 24.04 109.365 23.38 109.465 22.5ZM115.397 22.41V5.82L118.127 5.85V22.41H115.397ZM113.657 14.1V11.85H121.907V14.1H113.657ZM115.397 22.38H118.127C118.127 22.96 118.207 23.45 118.367 23.85C118.527 24.25 118.757 24.56 119.057 24.78C119.357 24.98 119.717 25.08 120.137 25.08L119.897 27.45C118.497 27.45 117.397 27.01 116.597 26.13C115.797 25.23 115.397 23.98 115.397 22.38ZM121.547 24.57L122.627 26.52C122.227 26.82 121.787 27.05 121.307 27.21C120.847 27.37 120.377 27.45 119.897 27.45L120.137 25.08C120.397 25.08 120.637 25.04 120.857 24.96C121.097 24.86 121.327 24.73 121.547 24.57ZM124.866 27V11.85H127.596V27H124.866ZM126.366 17.01C126.366 15.97 126.546 15.03 126.906 14.19C127.286 13.35 127.796 12.7 128.436 12.24C129.076 11.76 129.796 11.52 130.596 11.52L129.996 14.07C129.296 14.07 128.716 14.35 128.256 14.91C127.816 15.45 127.596 16.15 127.596 17.01H126.366ZM131.916 14.88C131.616 14.62 131.296 14.42 130.956 14.28C130.636 14.14 130.316 14.07 129.996 14.07L130.596 11.52C131.056 11.52 131.486 11.6 131.886 11.76C132.286 11.9 132.686 12.16 133.086 12.54L131.916 14.88ZM142.332 21.63V17.22H145.062V21.63H142.332ZM133.902 21.63V17.22H136.632V21.63H133.902ZM139.392 13.77V11.4H139.572V13.77H139.392ZM139.392 27.45V25.08H139.572V27.45H139.392ZM133.902 17.25C133.902 16.13 134.142 15.13 134.622 14.25C135.122 13.37 135.782 12.68 136.602 12.18C137.442 11.66 138.392 11.4 139.452 11.4V13.77C138.572 13.77 137.882 14.07 137.382 14.67C136.882 15.27 136.632 16.13 136.632 17.25H133.902ZM145.062 17.25H142.332C142.332 16.13 142.082 15.27 141.582 14.67C141.102 14.07 140.412 13.77 139.512 13.77V11.4C140.572 11.4 141.512 11.66 142.332 12.18C143.172 12.68 143.832 13.37 144.312 14.25C144.812 15.13 145.062 16.13 145.062 17.25ZM133.902 21.6H136.632C136.632 22.7 136.882 23.56 137.382 24.18C137.882 24.78 138.572 25.08 139.452 25.08V27.45C138.392 27.45 137.442 27.2 136.602 26.7C135.782 26.18 135.122 25.48 134.622 24.6C134.142 23.72 133.902 22.72 133.902 21.6ZM145.062 21.6C145.062 22.72 144.812 23.72 144.312 24.6C143.832 25.48 143.172 26.18 142.332 26.7C141.512 27.2 140.572 27.45 139.512 27.45V25.08C140.412 25.08 141.102 24.78 141.582 24.18C142.082 23.56 142.332 22.7 142.332 21.6H145.062Z" fill="#444444"/>
<path d="M22.5 7.5L18.5 4L11.5 11L22.5 22.5L18.5 26.5L22.5 30L29.5 22.5L18.5 11L22.5 7.5Z" fill="#444444"/>
<path d="M0 11L7 4L10.5 8L7 11L18 22L10.5 30L7 26.5L10.5 22L0 11Z" fill="#444444"/>
</svg>
