<svg width="43" height="43" viewBox="0 0 43 43" fill="none" xmlns="http://www.w3.org/2000/svg">
<path d="M32.9166 17.177C32.9166 17.892 32.3541 18.477 31.6666 18.477H13.3333C12.6458 18.477 12.0833 17.892 12.0833 17.177V17.1662C12.0833 14.6853 14.0104 12.6812 16.3958 12.6812H28.5937C30.9791 12.6812 32.9166 14.6962 32.9166 17.177ZM12.0833 21.4042V26.8317C12.0833 29.3125 14.0104 31.3167 16.3958 31.3167H28.5937C30.9791 31.3167 32.9166 29.3017 32.9166 26.8208V21.4042C32.9166 20.6892 32.3541 20.1042 31.6666 20.1042H13.3333C12.6458 20.1042 12.0833 20.6892 12.0833 21.4042ZM18.3333 27.6875H16.25C15.8229 27.6875 15.4687 27.3192 15.4687 26.875C15.4687 26.4308 15.8229 26.0625 16.25 26.0625H18.3333C18.7604 26.0625 19.1146 26.4308 19.1146 26.875C19.1146 27.3192 18.7604 27.6875 18.3333 27.6875ZM25.1041 27.6875H20.9375C20.5104 27.6875 20.1562 27.3192 20.1562 26.875C20.1562 26.4308 20.5104 26.0625 20.9375 26.0625H25.1041C25.5312 26.0625 25.8854 26.4308 25.8854 26.875C25.8854 27.3192 25.5312 27.6875 25.1041 27.6875Z" fill="#6953D3"/>
<circle cx="21.5" cy="21.5" r="21.5" fill="#6953D3" fill-opacity="0.1"/>
</svg>
