<svg width="77" height="77" viewBox="0 0 77 77" fill="none" xmlns="http://www.w3.org/2000/svg">
<g clip-path="url(#clip0_125_210)">
<path fill-rule="evenodd" clip-rule="evenodd" d="M72.3712 18.9445C83.1715 37.651 76.7622 61.571 58.0555 72.3712C39.349 83.1715 15.429 76.7622 4.62876 58.0555C-6.17148 39.349 0.237826 15.429 18.9445 4.62876C37.651 -6.17148 61.571 0.237826 72.3712 18.9445Z" fill="url(#paint0_linear_125_210)"/>
<path d="M20.571 18.4917H56.4293C57.5488 18.4917 58.5661 18.9492 59.3031 19.6862C60.0402 20.4232 60.4976 21.4405 60.4976 22.56V57.3286C60.4976 58.4481 60.0402 59.4654 59.3031 60.2025C58.5661 60.9395 57.5488 61.397 56.4293 61.397H20.571C19.4515 61.397 18.4342 60.9395 17.6972 60.2025C16.9602 59.4654 16.5027 58.4481 16.5027 57.3286V22.56C16.5027 21.4406 16.9602 20.4232 17.6972 19.6862C18.4342 18.9492 19.4515 18.4917 20.571 18.4917ZM56.4293 19.9227H20.571C19.8465 19.9227 19.1873 20.2197 18.709 20.698C18.2307 21.1763 17.9337 21.8356 17.9337 22.56V57.3286C17.9337 58.0531 18.2307 58.7123 18.709 59.1907C19.1873 59.669 19.8465 59.9659 20.571 59.9659H56.4293C57.1538 59.9659 57.813 59.669 58.2913 59.1907C58.7696 58.7123 59.0666 58.0531 59.0666 57.3286V22.56C59.0666 21.8356 58.7696 21.1763 58.2913 20.698C57.813 20.2197 57.1538 19.9227 56.4293 19.9227Z" fill="white"/>
<path d="M17.2181 31.1848H59.782V32.6158H17.2181V31.1848Z" fill="white"/>
<path d="M26.1173 16.3188C26.1173 15.9236 25.797 15.6033 25.4018 15.6033C25.0066 15.6033 24.6863 15.9236 24.6863 16.3188V23.0327C24.6863 23.4279 25.0066 23.7483 25.4018 23.7483C25.797 23.7483 26.1173 23.4279 26.1173 23.0327V16.3188Z" fill="white"/>
<path d="M52.3139 16.3188C52.3139 15.9236 51.9935 15.6033 51.5984 15.6033C51.2032 15.6033 50.8828 15.9236 50.8828 16.3188V23.0327C50.8828 23.4279 51.2032 23.7483 51.5984 23.7483C51.9935 23.7483 52.3139 23.4279 52.3139 23.0327V16.3188Z" fill="white"/>
<path d="M29.0522 48.4792L31.0171 48.2183C31.2445 49.3331 31.6286 50.1347 32.1692 50.6269C32.7135 51.119 33.3735 51.3651 34.1528 51.3651C35.0774 51.3651 35.8604 51.0445 36.4979 50.4032C37.1318 49.7618 37.4525 48.9677 37.4525 48.0206C37.4525 47.1184 37.1579 46.3727 36.5688 45.7873C35.976 45.2019 35.2266 44.9074 34.3168 44.9074C33.944 44.9074 33.4816 44.9819 32.9298 45.1274L33.1498 43.4011C33.2803 43.416 33.3847 43.4235 33.4667 43.4235C34.3019 43.4235 35.0551 43.2035 35.7262 42.7672C36.3973 42.331 36.7328 41.6562 36.7328 40.7464C36.7328 40.0268 36.4868 39.4265 35.9983 38.9567C35.5099 38.4833 34.8798 38.2446 34.108 38.2446C33.3437 38.2446 32.7062 38.487 32.1991 38.9642C31.6883 39.4452 31.3602 40.1685 31.2147 41.1304L29.2498 40.78C29.4884 39.4601 30.0365 38.4385 30.8866 37.7152C31.7404 36.9918 32.7993 36.6265 34.067 36.6265C34.9395 36.6265 35.7448 36.8166 36.4793 37.1895C37.2138 37.566 37.7768 38.0768 38.1683 38.7256C38.5561 39.3743 38.7537 40.0604 38.7537 40.7912C38.7537 41.4809 38.5673 42.111 38.1944 42.6815C37.8216 43.2482 37.2735 43.6994 36.5464 44.035C37.4935 44.2512 38.228 44.7061 38.7537 45.3958C39.2757 46.0819 39.5367 46.9432 39.5367 47.9759C39.5367 49.3741 39.0296 50.5598 38.008 51.5329C36.9901 52.506 35.7001 52.9907 34.1416 52.9907C32.736 52.9907 31.5689 52.5731 30.6405 51.7342C29.7121 50.899 29.1827 49.814 29.0522 48.4792ZM48.8877 52.7073H46.9227V40.1797C46.4492 40.6309 45.8303 41.082 45.0622 41.5332C44.2904 41.9843 43.6007 42.3236 42.9892 42.5473V40.6495C44.0891 40.1312 45.0511 39.5049 45.875 38.7704C46.6953 38.0321 47.2806 37.32 47.6237 36.6265H48.8877V52.7073Z" fill="white"/>
</g>
<defs>
<linearGradient id="paint0_linear_125_210" x1="15.9218" y1="-0.606651" x2="61.0784" y2="77.6068" gradientUnits="userSpaceOnUse">
<stop stop-color="#444FF5"/>
<stop offset="0.490196" stop-color="#21BFDB"/>
<stop offset="1" stop-color="#1DABB6"/>
</linearGradient>
<clipPath id="clip0_125_210">
<rect width="77" height="77" fill="white"/>
</clipPath>
</defs>
</svg>
