<svg width="100" height="100" viewBox="0 0 100 100" fill="none" xmlns="http://www.w3.org/2000/svg">
<g clip-path="url(#clip0_125_186)">
<path fill-rule="evenodd" clip-rule="evenodd" d="M93.9885 24.6031C108.015 48.8973 99.6911 79.9622 75.3967 93.9885C51.1025 108.015 20.0376 99.6911 6.01131 75.3967C-8.01498 51.1025 0.308795 20.0376 24.6031 6.01131C48.8973 -8.01498 79.9622 0.308795 93.9885 24.6031Z" fill="url(#paint0_linear_125_186)"/>
<path d="M41.6476 49.4187H47.4582C48.0147 49.4187 48.4658 49.8698 48.4658 50.4263V76.2014C48.4658 76.7579 48.0147 77.209 47.4582 77.209H41.6476C41.0911 77.209 40.64 76.7579 40.64 76.2014V50.4263C40.64 49.8698 41.0911 49.4187 41.6476 49.4187ZM46.4507 51.4338H42.6552V75.194H46.4507V51.4338Z" fill="white"/>
<path d="M28.3661 60.1768H34.1767C34.7332 60.1768 35.1843 60.6279 35.1843 61.1843V76.2017C35.1843 76.7582 34.7332 77.2093 34.1767 77.2093H28.3661C27.8097 77.2093 27.3585 76.7582 27.3585 76.2017V61.1843C27.3585 60.6279 27.8097 60.1768 28.3661 60.1768ZM33.1692 62.1919H29.3737V75.1941H33.1692V62.1919Z" fill="white"/>
<path d="M68.2105 30.0022H74.0211C74.5776 30.0022 75.0287 30.4533 75.0287 31.0098V76.2016C75.0287 76.758 74.5776 77.2092 74.0211 77.2092H68.2105C67.654 77.2092 67.2029 76.758 67.2029 76.2016V31.0098C67.2029 30.4533 67.654 30.0022 68.2105 30.0022ZM73.0135 32.0173H69.218V75.194H73.0135V32.0173Z" fill="white"/>
<path d="M54.929 42.8591H60.7396C61.296 42.8591 61.7472 43.3102 61.7472 43.8667V76.2015C61.7472 76.758 61.296 77.2091 60.7396 77.2091H54.929C54.3725 77.2091 53.9214 76.758 53.9214 76.2015V43.8667C53.9214 43.3102 54.3725 42.8591 54.929 42.8591ZM59.7321 44.8743H55.9365V75.1939H59.7321V44.8743Z" fill="white"/>
<path d="M19.7731 23.7986C19.7731 23.2421 19.322 22.791 18.7655 22.791C18.2091 22.791 17.7579 23.2421 17.7579 23.7986V76.2016C17.7579 76.758 18.2091 77.2091 18.7655 77.2091H81.2346C81.7909 77.2091 82.2421 76.758 82.2421 76.2016C82.2421 75.6451 81.7909 75.194 81.2346 75.194H19.7731L19.7731 23.7986Z" fill="white"/>
</g>
<defs>
<linearGradient id="paint0_linear_125_186" x1="20.6775" y1="-0.787928" x2="79.3225" y2="100.788" gradientUnits="userSpaceOnUse">
<stop stop-color="#6953D3"/>
<stop offset="0.338542" stop-color="#444FF5"/>
<stop offset="0.838542" stop-color="#FF847F"/>
<stop offset="1" stop-color="#E7A600"/>
</linearGradient>
<clipPath id="clip0_125_186">
<rect width="100" height="100" fill="white"/>
</clipPath>
</defs>
</svg>
