<svg width="589" height="592" viewBox="0 0 589 592" fill="none" xmlns="http://www.w3.org/2000/svg">
<mask id="mask0_125_236" style="mask-type:luminance" maskUnits="userSpaceOnUse" x="0" y="0" width="589" height="592">
<path d="M428.181 37.4013C427.384 36.9463 426.633 36.5368 425.904 36.1728L423.809 34.9443L425.062 35.6041L425.289 35.7178L428.477 37.4468C428.631 37.5036 428.776 37.5801 428.91 37.6743L430.003 38.3341L428.136 37.3331M416.956 31.6228L413.927 30.1213L415.794 31.0085L416.5 31.327L419.87 33.0105L416.956 31.6228ZM410.831 28.6652L408.554 27.6187L407.119 27.0045L402.565 25.0025L401.427 24.4792C402.702 24.9797 404.023 25.594 404.569 25.8215L403.977 25.5712L405.525 26.2765L406.026 26.4812L407.575 27.0727H407.438L410.33 28.3922L410.626 28.5287L414.041 30.2123C413.039 29.7345 412.015 29.234 410.945 28.7562M578.255 228.958C577.891 227.411 577.504 225.864 577.117 224.408L578.414 228.731V228.958C578.44 229.063 578.44 229.172 578.414 229.277V229.026M575.341 218.038L573.77 212.464C572.768 209.393 571.493 205.889 570.172 202.363L569.17 199.292L566.187 191.739C569.11 198.496 571.642 205.416 573.77 212.464L576.046 220.063L575.363 218.038M460.423 57.6035C456.552 54.8507 452.636 52.1662 448.674 49.5954L448.287 49.3224C452.408 52.007 456.484 54.7825 460.468 57.6263M445.6 47.5479L445.213 47.2749C444.962 47.0929 444.962 47.0929 444.917 47.0929C445.714 47.6389 446.419 48.0712 447.194 48.5262L448.378 49.3452L445.6 47.5479ZM446.192 47.9347C451.019 51.0059 455.755 54.191 460.423 57.5353C455.869 54.3275 450.609 50.9149 446.192 47.9347ZM587.181 279.6V279.918V279.623M587.682 286.448V286.675C587.67 286.6 587.67 286.523 587.682 286.448ZM587.682 286.084V285.014V284.832C587.682 285.379 587.682 285.947 587.796 286.425V286.061M587.613 283.422C587.602 283.286 587.602 283.149 587.613 283.012C587.613 282.535 587.613 282.057 587.613 281.579C587.613 282.284 587.613 283.012 587.773 283.718V283.422M585.314 262.628L584.972 259.58L585.61 263.857C585.746 264.744 585.815 265.654 585.928 266.541V266.769C585.746 265.381 585.541 264.016 585.314 262.651M578.483 229.026C578.547 228.85 578.547 228.657 578.483 228.48C578.71 229.663 579.007 230.892 579.28 232.166L578.369 229.026M76.9383 75.6899C74.6613 77.6464 72.4982 79.6257 70.3579 81.605C72.6348 79.4892 74.5247 77.7147 76.9383 75.6899ZM162.939 68.3871C163.235 67.9776 163.531 67.5908 163.804 67.1586C164.077 66.7263 164.647 65.7253 165.102 65.0201L163.212 64.7698L160.184 66.0438L158.726 69.1151H161.413L162.939 68.4553M158.021 64.4513L158.248 64.3148L158.931 63.1091C158.43 63.3593 157.952 63.7006 157.429 63.9508C157.114 64.0801 156.785 64.1718 156.449 64.2238C155.535 64.509 154.65 64.8823 153.808 65.3386C153.398 65.5661 152.92 65.7708 152.488 65.9756C152.624 66.2486 152.488 66.6353 152.829 66.8173C153.159 66.8916 153.501 66.8916 153.831 66.8173C155.366 66.3478 156.791 65.5741 158.021 64.5423M211.256 21.6809L214.034 21.0667V19.6789L211.279 19.5652H209.184L206.907 21.1804L205.495 22.4772H208.66L211.187 21.5217M438.883 43.5211C437.858 42.8841 436.834 42.3381 435.809 41.7466L435.24 41.5646L437.13 42.7021C438.496 43.4984 439.794 44.3174 441.137 45.1364H441.41C441 44.8179 440.522 44.5676 440.112 44.2719C439.293 43.7031 439.293 43.7031 438.814 43.4074M424.788 35.2628L421.737 33.8978L423.445 34.7851L421.623 33.8523L421.419 33.7385L422.625 34.3755L422.238 34.1935C419.734 32.8968 417.138 31.6 415.749 30.8948C413.791 29.9165 411.901 29.0293 410.375 28.324L423.696 34.8988L424.925 35.5586M428.477 37.4696C428.158 37.3331 427.885 37.1511 427.589 36.9918L427.156 36.7643L425.335 35.7861L428.568 37.5151M336.465 5.2553C335.828 5.09604 334.188 4.77754 333.915 4.77754H334.325H334.097C331.433 4.20879 330.295 4.02679 330.295 4.02679C331.126 4.16219 331.948 4.35219 332.754 4.59554L332.048 4.45904L330.363 4.32254L329.953 4.20879L329.043 4.04954C329.327 4.12738 329.616 4.18816 329.908 4.23154H329.407H329.065C331.889 4.77754 332.822 5.02779 333.619 5.18705C331.829 4.64352 329.978 4.3226 328.109 4.23154C328.246 4.23154 330.204 4.73204 331.82 5.02779H332.003C332.294 5.10286 332.591 5.15609 332.891 5.18705H332.595C333.027 5.18705 334.166 5.4828 334.872 5.64205H333.961L335.76 6.0743C336.42 6.18805 337.057 6.37006 337.718 6.46106H338.378C339.243 6.46106 340.017 7.16631 340.928 6.91606L339.266 6.0743C339.685 6.18113 340.111 6.25717 340.541 6.30181C339.403 5.8923 338.264 5.77855 337.035 5.41455L336.42 5.2553M336.648 6.00605H336.26H336.67M356.298 10.7836L355.524 10.5106C353.77 10.0328 352.017 9.64608 350.287 9.12283H349.353C347.44 8.55408 345.482 8.07632 343.547 7.57582C343.251 7.57582 340.496 6.84781 339.539 6.68856L340.109 6.89331C339.617 6.83476 339.13 6.74356 338.651 6.62031L336.693 6.1198C334.576 5.9378 332.572 5.18705 330.5 4.86854C331.206 5.07329 331.934 5.23255 332.64 5.3918L333.414 5.59655C336.511 6.37006 336.511 6.37006 337.057 6.55206C336.228 6.45986 335.411 6.27675 334.621 6.00605L333.87 5.8013L333.05 5.59655L332.299 5.41455C331.708 5.21555 331.097 5.08576 330.477 5.02779C331.115 5.2553 331.775 5.41455 332.412 5.6193H332.003L330.727 5.27805C330.158 5.1188 329.566 4.93679 328.974 4.80029C329.339 4.9418 329.712 5.06331 330.09 5.1643H329.27V5.3008C332.549 6.23355 335.919 6.84781 339.175 7.98532C337.812 7.50889 336.41 7.15114 334.985 6.91606C336.847 7.53519 338.74 8.05913 340.655 8.48582C340.518 8.48582 340.518 8.48582 338.583 7.75782C339.858 7.75782 340.86 8.59958 342.203 8.64508H342.659C341.774 8.2639 340.869 7.92976 339.949 7.64407L338.742 7.28006H338.879L341.907 8.14457H342.522L341.68 7.82607L342.385 7.98532C343.046 8.19007 343.729 8.41757 344.412 8.57682L345.027 8.78158C344.913 8.78158 344.913 8.78158 344.571 8.78158H344.298H343.661L343.934 8.96358H343.478C343.478 9.16833 343.478 9.16833 344.275 9.41858L345.983 9.98734H346.097H346.347C347.144 10.1693 347.167 10.1693 347.349 10.1466C347.531 10.1238 347.213 9.98734 346.438 9.62333C347.337 9.78154 348.195 10.1139 348.966 10.6016C348.585 10.5127 348.196 10.4669 347.805 10.4651C348.912 11.0869 350.123 11.5031 351.379 11.6936C353.396 12.1121 355.37 12.7137 357.277 13.4909C357.277 13.4909 352.063 11.2158 351.425 11.0111H351.584C350.4 10.5788 349.102 10.1466 347.827 9.73709H348.101C346.581 9.03986 344.984 8.52808 343.342 8.21282C343.683 8.21282 344.07 8.21282 344.389 8.21282C350.195 9.89634 350.195 9.89634 354.658 11.3979H355.023C354.57 11.1416 354.098 10.921 353.611 10.7381C354.706 10.9871 355.779 11.3218 356.821 11.7391H357.277C356.752 11.4573 356.193 11.2433 355.615 11.1021C355.797 11.1021 356.116 11.1021 356.412 11.1021H356.275M584.426 258.875C582.824 248.609 580.688 238.433 578.027 228.389C576.438 227.179 574.564 226.396 572.585 226.114C566.763 224.815 560.872 223.85 554.939 223.225C555.226 225.099 555.326 226.996 555.235 228.89V229.345L555.098 229.686H554.916C554.562 229.711 554.222 229.837 553.937 230.05H553.687L553.505 230.164L553.345 230.391L552.958 230.755L552.548 230.278L552.207 229.732C551.797 229.345 551.729 229.345 551.66 229.345C550.964 229.19 550.301 228.913 549.702 228.526H549.224V229.095C550.431 230.164 550.431 230.164 551.182 230.414C551.526 230.713 551.752 231.124 551.82 231.574V232.189C552.025 232.621 552.321 233.167 552.526 233.599C552.656 234.063 552.762 234.534 552.844 235.01L552.981 235.465V236.079C553.669 238.43 554.568 240.714 555.668 242.904C556.111 244.203 556.757 245.423 557.58 246.521C557.876 246.521 558.013 246.521 558.172 246.658H558.719C558.947 245.907 558.719 245.133 558.878 244.383L559.334 245.156C565.003 259.034 565.003 259.034 565.276 261.081L565.39 261.832C565.39 267.565 569.033 272.183 570.331 277.53C570.992 280.51 569.853 283.649 571.242 286.63C572.326 288.855 573.174 291.189 573.77 293.591L573.952 294.365L577.094 314.999C576.957 318.366 576.821 321.415 576.616 324.418C576.675 325.98 577.007 327.519 577.595 328.968C577.972 329.025 578.356 329.025 578.733 328.968C579.371 327.626 579.371 326.101 580.054 324.782C580.554 324.601 581.102 324.601 581.602 324.782L581.716 325.305L582.308 323.644C582.302 322.582 582.561 321.534 583.062 320.597C583.563 319.659 584.29 318.861 585.177 318.275C585.177 317.729 585.405 316.979 585.496 316.433C585.724 315.09 586.999 310.244 587.021 310.222L587.636 310.745C587.636 307.059 587.796 304.966 587.796 304.944L588.069 305.194C588.069 303.692 588.069 302.191 588.069 300.644C587.932 290.816 587.34 281.602 586.338 272.479V273.048C586.133 271.524 585.974 270.022 585.723 268.498C585.496 266.519 585.268 264.835 585.018 263.106C585.018 262.583 584.835 262.037 584.722 261.514C584.927 263.789 584.927 263.789 585.61 270.272L585.291 269.84H585.177L584.858 268.794L584.699 268.612C584.699 269.59 584.699 270.568 584.699 271.546C583.972 269.95 583.636 268.203 583.72 266.45V265.95C583.879 265.609 583.879 265.609 583.925 265.609C584.017 265.961 584.189 266.287 584.426 266.564C584.612 265.804 584.54 265.004 584.221 264.289H583.925C583.515 263.72 583.469 262.947 582.718 262.606C582.646 262.464 582.535 262.346 582.399 262.264C582.149 260.581 581.921 258.875 581.648 257.214C580.077 250.935 577.094 245.065 576.866 238.445C577.322 238.581 578.278 238.923 580.464 247.704C581.166 250.921 582.243 254.044 583.674 257.009L583.856 257.214V256.713C583.856 256.418 583.856 256.44 583.856 256.463C584.063 257.022 584.208 257.602 584.289 258.192V258.397M577.891 227.911C567.328 187.807 548.687 150.277 523.107 117.619L530.53 127.424C539.843 140.346 539.843 140.346 555.258 167.896C562.499 182.206 562.499 182.206 573.473 212.146L578.255 228.412L578.05 228.071M463.633 87.1788L465.91 87.3608L465.341 87.156H465.091C464.797 86.9861 464.515 86.796 464.248 86.5873L463.702 85.9275H463.497H462.927L462.768 86.1095V86.2233L463.223 86.8603L463.406 86.974L463.747 87.2243M410.99 36.0363L407.575 33.8978H407.028L407.438 34.1253L410.284 35.9226H411.15M465.887 87.3608C476.498 87.9715 487.056 89.2863 497.492 91.2966C498.911 91.5263 500.262 92.062 501.453 92.8663L499.951 91.3421C476.976 69.8204 476.976 69.8204 464.18 60.3108L447.103 48.4807L441.182 44.7724C442.412 45.5459 442.526 45.6141 443.96 46.5697L445.144 47.3887L445.304 47.5479C447.581 49.6182 450.951 50.4372 452.681 53.2355L452.818 53.3947C450.746 52.0752 448.674 50.8012 446.67 49.4362H447.103L444.53 47.7527C443.642 47.2294 443.642 47.2294 443.277 47.0474L441 45.5914H440.795C440.338 45.2829 439.85 45.0236 439.338 44.8179H438.928C439.415 45.2282 439.933 45.6009 440.477 45.9327C440.811 46.0587 441.138 46.203 441.456 46.3649L446.306 49.5499C447.307 50.3903 448.373 51.1509 449.493 51.825C449.972 52.098 450.336 52.3255 451.884 53.3265C452.082 53.4435 452.272 53.5727 452.453 53.7132C453.637 54.737 455.004 55.5787 456.256 56.5115L455.231 56.0565L454.07 55.2602C453.797 55.0782 453.455 54.828 453.159 54.6687L452.727 54.8962C453.797 55.92 454.73 57.0575 455.801 58.0813V58.3315C457.827 59.833 460.013 61.1298 461.926 62.745C461.374 62.6992 460.838 62.5363 460.354 62.2673H459.945C458.128 61.4932 456.408 60.5081 454.821 59.3325C455.668 60.7138 456.926 61.7957 458.419 62.4265C458.804 62.7754 459.215 63.0948 459.649 63.3821C459.811 63.5074 459.997 63.6001 460.195 63.6551C461.348 63.9427 462.392 64.5593 463.201 65.4296C463.201 65.7026 462.745 65.6571 462.404 65.6116L462.836 66.0438C460.559 65.6343 456.005 61.8805 454.207 60.47C453.884 60.2688 453.516 60.1514 453.136 60.1288L450.746 58.2405C446.784 55.0327 442.025 53.099 437.926 50.0959C439.611 50.7329 445.463 53.6222 445.509 53.645C446.122 53.8045 446.746 53.9186 447.376 53.9862C448.355 54.3957 449.243 54.9872 450.268 55.3057H450.655H450.837C450.756 54.9623 450.711 54.6117 450.7 54.2592C445.766 50.0486 440.184 46.6608 434.169 44.2264C433.556 43.8628 432.916 43.5435 432.257 43.2709C431.665 42.8685 430.986 42.6113 430.276 42.5201C430.003 42.6566 429.98 42.6566 429.934 42.6566C428.887 42.1334 427.794 41.6101 426.769 41.0414H426.155C426.79 41.4081 427.398 41.8186 427.976 42.2699H427.544C426.688 41.8558 425.879 41.3525 425.13 40.7684L424.584 40.3816C423.477 39.8509 422.431 39.2025 421.464 38.4478H420.827L421.259 38.8801C420.193 38.5989 419.144 38.2571 418.117 37.8563C417.69 37.6699 417.279 37.4492 416.887 37.1966H417.388L416.045 36.2638C414.29 35.2543 412.406 34.4889 410.444 33.9888L412.721 35.3538C412.008 35.1704 411.331 34.8706 410.717 34.4666L409.852 33.8978L408.895 33.2835L407.279 33.1243C408.269 33.6466 409.22 34.2396 410.125 34.8988L411.081 35.4903L411.628 35.7861H411.423C410.361 35.0394 409.224 34.4065 408.03 33.8978C407.766 33.8054 407.49 33.7517 407.21 33.7385L405.32 32.601L404.842 32.4645L405.184 32.8285L404.728 33.056C405.298 33.5565 405.981 33.9433 406.573 34.4438V34.6941C405.84 34.4588 405.154 34.0969 404.546 33.6248C404.195 33.3884 403.785 33.2545 403.362 33.238L403.089 33.6703C404.173 34.7774 405.587 35.5038 407.119 35.7406C407.734 36.0818 408.258 36.4458 408.827 36.7871H408.258C407.428 36.4831 406.575 36.2473 405.708 36.0818H405.047C406.194 36.7259 407.27 37.4884 408.258 38.3568C405.981 37.4696 403.863 36.2183 401.632 35.1946C401.632 35.5586 402.064 35.8771 402.52 36.1501C403.981 36.9707 405.322 37.9889 406.504 39.1758C405.821 39.3578 405.799 39.3578 403.727 37.8336L404.068 38.3113L403.681 38.6298L404.683 39.4716C405.412 39.9266 406.254 40.0859 406.96 40.6091L407.802 41.2689L408.167 41.6101C406.374 40.8815 404.651 39.9905 403.021 38.9483C403.18 39.4716 403.84 39.9493 404.524 40.4499H403.453C403.453 40.7001 403.453 40.7001 405.047 41.7694C404.741 41.9294 404.41 42.037 404.068 42.0879L404.524 42.9524L404.341 43.0661C404.567 43.4296 404.835 43.7655 405.138 44.0671H404.774L405.002 44.5221C405.267 44.6669 405.564 44.745 405.867 44.7496C405.812 44.4343 405.851 44.1097 405.981 43.8169H406.527V43.3164C406.8 43.1181 407.026 42.8617 407.188 42.5656C407.69 42.5391 408.193 42.6255 408.658 42.8184C409.123 43.0113 409.538 43.3058 409.874 43.6804H408.873L409.237 44.0216L408.736 44.1354C409.664 45.3984 410.742 46.5442 411.946 47.5479H411.377C411.377 47.5479 415.43 54.2137 416.25 54.9645L415.681 54.4867C415.43 55.647 415.43 55.647 415.544 55.9655C415.253 56.1351 414.998 56.3591 414.793 56.6252C415.02 56.921 415.362 57.3077 415.612 57.5808L416.113 57.74C416.506 57.6786 416.905 57.6786 417.297 57.74C417.637 58.1775 418.01 58.5882 418.413 58.9685C418.287 59.2997 418.196 59.6427 418.14 59.9923H417.639C417.821 60.834 417.753 60.9478 417.32 61.4028C417.554 61.9019 417.828 62.3812 418.14 62.836L417.753 63.2456L416.478 62.654C416.114 62.6282 415.748 62.6282 415.385 62.654L416.159 63.7006L417.229 64.6106L417.092 65.1338L416.569 65.3158H416.113C415.681 65.8163 415.681 65.8163 415.498 66.7263H414.998V67.2268C415.59 67.8866 416.819 69.2744 414.998 69.2516C414.71 69.5411 414.505 69.9026 414.406 70.2981C415.703 71.5721 415.703 71.5721 415.84 71.9816L415.498 72.3911C416.022 73.6196 417.206 74.2111 417.935 75.2349C417.935 75.6217 417.73 75.6217 417.593 75.5989L417.73 76.0994C418.071 76.6682 418.39 77.1004 418.686 77.5327H420.075C421.51 77.2369 422.011 78.8067 422.056 78.8067L421.783 79.2844C422.056 79.7395 422.352 80.24 422.671 80.695L422.238 80.9907C422.83 82.3785 422.83 82.3785 425.449 82.697C425.82 83.1945 426.141 83.728 426.405 84.2895L426.2 84.7672L435.308 85.245C435.229 84.6698 435.115 84.0999 434.966 83.5387L435.422 83.2885L435.9 83.4705C435.911 83.1704 435.862 82.8712 435.756 82.5901C435.651 82.3089 435.491 82.0515 435.285 81.8325C437.312 82.1055 439.429 85.2905 439.452 85.3132C444.666 85.791 449.516 86.064 454.093 86.3825V85.9048H454.594C454.319 84.6772 453.882 83.4915 453.296 82.3785L452.613 81.5822C451.702 80.604 451.52 80.3765 449.698 80.5585C448.332 79.0569 446.283 78.2834 445.144 76.5999C443.619 74.8482 442.116 73.1191 440.59 71.4129C440.59 69.5929 438.701 68.7284 438.314 67.0903H438.86C438.974 66.5671 439.019 66.2486 438.268 65.1338C438.553 64.9719 438.874 64.8858 439.202 64.8836C438.919 64.2093 438.527 63.5865 438.04 63.0408V62.5403H438.564C438.222 59.4235 434.875 59.3553 433.395 57.4215L433.577 56.921C432.943 56.1207 432.258 55.3609 431.528 54.646C431.862 54.544 432.219 54.544 432.553 54.646H432.849H432.985L435.741 56.4205L435.558 55.92C436.264 55.92 436.287 55.92 438.769 57.5808L441.046 59.6055H440.067C443.391 62.563 443.755 62.8588 443.869 63.9736C443.514 63.8991 443.164 63.8003 442.822 63.6778L442.435 64.0191C446.465 70.8441 446.465 70.8441 450.495 74.7344C450.973 75.2577 451.178 75.4852 451.406 75.6899C454.55 78.0065 457.913 80.0104 461.447 81.6732H461.652C461.698 81.303 461.698 80.9286 461.652 80.5585C462.381 80.3992 463.087 80.9452 463.815 80.8087L463.588 79.8532C464.522 79.6949 465.477 79.6949 466.411 79.8532V79.3299C466.554 79.3049 466.701 79.3049 466.844 79.3299C467.663 79.8532 468.278 80.604 469.121 81.059L470.76 81.2182L471.557 81.9007L471.83 82.3557C471.323 82.4065 470.812 82.4065 470.305 82.3557C470.305 83.152 470.305 83.152 471.694 85.882C470.328 85.7682 469.417 84.5852 468.255 84.1757L467.891 84.608C467.362 84.597 466.839 84.497 466.343 84.3122L466.024 84.6762V85.1768C465.678 85.0817 465.342 84.9522 465.022 84.79L464.59 85.0857C464.911 85.7582 465.284 86.4048 465.705 87.0195L465.819 87.2925M435.285 85.2905L426.177 84.79C426.177 85.245 426.177 85.245 426.36 85.3815C426.542 85.518 426.86 85.791 427.065 86.064L427.407 86.5873H429.16L429.593 86.9285C430.023 87.3417 430.496 87.7078 431.005 88.0205L431.801 87.702C432.507 87.9295 433.054 88.43 433.828 88.2935C433.828 88.2935 434.648 88.157 434.42 87.52V87.1788C435.057 87.1788 435.057 87.1788 435.24 87.1788L435.422 86.6328C435.422 86.3143 435.171 86.1095 435.171 85.8138V85.1995M453.911 86.3598C449.357 85.9958 444.53 85.7228 439.452 85.4042C440.226 86.428 441.524 86.883 442.298 87.9068L442.549 88.248V88.9988C443.154 89.7861 443.876 90.4765 444.689 91.0463C446.488 92.0473 446.488 92.0473 446.966 92.7071L447.467 93.4123L447.945 94.1176C448.865 95.3618 450.057 96.3808 451.429 97.0978C451.921 97.3226 452.322 97.7076 452.567 98.1899C452.932 98.7586 452.954 99.4184 453.273 99.9871L453.501 100.351C453.865 100.874 454.321 101.329 454.685 101.83L458.26 102.057C456.78 99.5094 456.78 99.5094 457.03 98.8496C457.03 98.8496 457.03 98.8496 457.531 98.8496H458.055C458.578 98.8496 458.897 99.5549 459.512 99.4184C459.694 99.0771 459.284 98.7131 459.512 98.3719C459.74 98.0306 459.808 98.3719 460.377 98.3719C459.945 97.6439 459.421 96.9386 458.92 96.2106H460.81C460.425 95.5859 459.991 94.9926 459.512 94.4361H458.601C457.736 94.7091 457.349 93.8673 456.689 93.6398L456.301 92.4341C455.618 90.5685 454.025 89.2263 453.341 87.338L453.546 87.156V86.519L453.842 86.337M577.822 227.889C567.277 187.797 548.659 150.276 523.107 117.619C516.732 110.088 508.216 100.033 501.453 92.8663C500.262 92.062 498.911 91.5263 497.492 91.2966C487.056 89.2863 476.498 87.9715 465.887 87.3608L463.61 87.1788L464.157 87.3835H464.339L465.045 87.9068C464.462 87.971 463.918 88.2272 463.497 88.6348C463.866 89.302 464.402 89.8622 465.052 90.2609C465.703 90.6596 466.445 90.8832 467.208 90.9098C467.414 90.3518 467.414 89.7388 467.208 89.1808C469.849 89.5448 473.447 93.7308 473.47 93.7308C472.992 94.7773 472.992 94.7773 473.948 96.1423C474.13 96.7794 473.948 96.7566 473.629 96.7338C473.31 96.7111 473.196 96.5746 470.236 94.1176H469.804L468.711 92.6843H467.868C470.624 99.5094 471.808 102.217 474.927 105.197L475.223 105.925C471.398 104.992 471.398 104.992 470.965 105.038C471.238 106.858 473.037 107.517 473.925 108.86L473.606 108.973C471.899 107.881 470.328 106.698 468.665 105.515C468.278 105.697 468.278 105.697 466.548 109.042C466.001 109.042 465.25 109.042 464.703 109.042C462.654 111.317 460.491 107.677 459.785 106.471H458.738C458.738 106.744 458.738 107.062 458.578 107.313H457.622C457.149 107.219 456.669 107.158 456.188 107.131H455.277C455.527 107.631 455.892 108.314 456.165 108.814C456.165 109.383 455.732 109.36 455.368 109.337C453.888 109.042 453.82 108.951 452.59 107.244H451.975H450.882L450.085 105.925L449.516 105.174C449.758 104.907 450.067 104.709 450.412 104.601C450.756 104.493 451.123 104.479 451.474 104.56C452.681 104.901 453.751 105.652 454.867 106.016L455.436 105.311C454.48 103.263 452.317 99.5094 452.317 99.4866C451.947 99.1155 451.451 98.8963 450.928 98.8724C450.404 99.0316 449.767 99.2819 449.266 99.4866C449.266 99.7141 449.425 100.055 449.493 100.283C449.311 100.897 449.22 100.874 449.129 100.874C448.606 100.622 448.175 100.212 447.897 99.7014C447.619 99.1912 447.509 98.6069 447.581 98.0306L446.738 96.7338C442.822 97.2344 443.778 91.7516 440.704 90.9325C440.704 91.0918 440.704 91.0918 441.137 93.5261C440.704 93.7991 440.09 94.1176 439.634 94.3451C439.898 94.8475 440.236 95.3076 440.636 95.7101C440.728 95.8928 440.835 96.0678 440.955 96.2333C440.955 96.4836 440.955 96.8249 440.955 97.0751L440.226 97.6439C440.499 98.6221 440.499 98.6221 445.531 104.469C445.686 104.709 445.822 104.96 445.941 105.22L446.647 106.88C447.421 107.927 448.4 108.769 449.197 109.747C449.63 110.475 449.903 110.975 450.154 111.476H449.288C448.65 111.607 448.003 111.691 447.353 111.726H446.647C445.51 111.439 444.334 111.332 443.163 111.408C443.163 111.681 443.163 112.022 443.163 112.295C442.628 112.566 442.148 112.936 441.752 113.387C442.025 114.957 442.025 114.957 441.251 115.662L440.477 115.093H439.702H439.133H438.268C438.231 115.591 438.359 116.086 438.632 116.504L440.226 117.346C440.613 118.187 441.046 119.029 441.433 119.871C439.794 119.871 439.498 120.303 437.813 123.329H437.107C436.53 123.363 435.953 123.363 435.376 123.329C435.756 124.96 436.29 126.552 436.97 128.084C435.791 127.937 434.594 128.086 433.486 128.516C433.737 129.335 434.056 130.131 434.374 130.95H431.893C431.369 130.677 431.369 130.677 429.411 130.404C428.591 129.949 428.523 129.676 428.386 129.403C427.939 128.974 427.363 128.702 426.747 128.63C426.692 129.496 426.848 130.362 427.202 131.155L428.022 131.496C428.227 132.088 428.523 132.838 428.705 133.407L429.342 134.226C429.479 134.59 429.616 134.931 429.729 135.273C428.528 135.443 427.306 135.371 426.133 135.063C424.96 134.754 423.86 134.214 422.899 133.475C419.415 134.795 419.415 134.795 419.142 135.25C419.239 135.532 419.315 135.821 419.369 136.114C420.166 136.729 420.371 136.729 420.622 136.729C421.069 137.311 421.65 137.776 422.316 138.085C422.982 138.394 423.713 138.538 424.447 138.503H425.449C427.225 139.754 428.887 141.142 430.595 142.439C431.254 143.918 431.817 145.437 432.28 146.989C435.558 150.811 441.069 157.204 437.676 160.821C437.676 161.071 437.676 161.435 437.676 161.686C435.991 162.982 435.991 162.982 435.126 163.119H434.374C431.984 162.05 429.228 161.822 427.065 160.116C424.196 159.888 421.942 159.797 419.665 159.729C416.546 159.274 416.546 159.274 415.999 158.933C415.453 158.592 415.043 158.501 414.884 158.501L414.201 159.001C414.201 159.251 414.36 159.615 414.406 159.888C413.121 160.434 411.718 160.645 410.33 160.503L410.125 161.367C412.402 164.165 411.582 168.374 414.201 171.104C414.588 172.993 414.975 174.767 415.294 176.542C415.294 176.792 415.294 177.11 415.294 177.383C412.584 180.113 413.996 182.366 415.294 184.527L415.863 185.232C416.061 185.684 416.206 186.157 416.295 186.643C416.295 186.938 416.295 187.257 416.455 187.575C415.794 188.736 415.749 189.1 416.455 191.875C417.248 192.168 418.092 192.299 418.937 192.262C421.214 191.761 423.491 193.445 425.768 193.013C426.177 193.422 426.177 193.422 429.183 194.946C430.139 196.084 430.64 197.563 431.87 198.45L432.189 197.403L431.369 197.13C437.407 193.407 443.78 190.254 450.404 187.712L449.721 184.663C447.262 180.864 447.262 180.864 448.013 176.746C448.013 176.2 448.218 175.495 448.287 174.972H450.108C450.46 174.492 450.722 173.952 450.882 173.379C451.395 173.126 451.952 172.972 452.522 172.924L452.749 172.083L457.03 171.696C457.23 170.782 457.142 169.828 456.78 168.966L456.529 168.056C455.745 166.387 455.267 164.592 455.117 162.755C456.506 161.913 456.506 161.913 459.466 162.55H459.785C460.898 163.27 462.1 163.844 463.36 164.256C464.385 164.256 464.681 164.256 465.022 164.256L465.887 164.12C465.794 162.931 465.925 161.734 466.275 160.594C466.743 160.534 467.218 160.534 467.686 160.594C468.278 160.594 469.69 160.776 470.464 157.955C475.268 159.297 476.316 164.78 480.141 167.055C481.152 167.511 481.962 168.32 482.418 169.33C488.703 173.88 500.338 182.002 501.636 189.009C499.017 189.509 499.017 189.509 498.721 190.897C496.371 191.141 493.997 191.018 491.685 190.533C491.822 190.851 492.027 191.306 492.141 191.648C494.418 193.013 495.829 195.652 498.493 196.63L502.159 196.835C501.841 195.674 501.499 194.56 501.203 193.331C502.137 192.671 502.569 191.511 503.617 191.056C503.48 189.828 503.298 188.599 503.093 187.371C503.492 186.963 503.984 186.659 504.527 186.483C504.664 185.954 504.664 185.398 504.527 184.868C504.29 184.353 504.092 183.821 503.935 183.276C502.842 183.276 502.455 183.276 502.045 183.276C501.813 183.158 501.61 182.991 501.449 182.787C501.287 182.582 501.173 182.346 501.112 182.093C501.112 181.842 500.975 181.501 500.93 181.274C501.608 180.849 502.426 180.71 503.207 180.887C504.369 181.343 505.368 182.135 506.076 183.162C506.212 181.251 504.937 179.84 504.368 178.18C501.428 176.971 498.887 174.961 497.036 172.378C494.6 172.219 493.279 169.898 491.071 169.284C490.205 166.577 487.564 165.303 486.107 163.119C485.89 163.029 485.658 162.983 485.424 162.982C483.67 159.797 483.67 159.797 481.621 159.843C481.211 159.114 480.861 158.353 480.574 157.568L480.847 156.726C481.12 155.975 481.075 155.839 481.029 155.702C479.526 152.95 479.526 152.95 479.526 152.654C482.418 152.176 493.689 163.665 493.78 163.801C494.12 164.332 494.588 164.768 495.141 165.07C495.694 165.372 496.315 165.531 496.945 165.53L497.583 166.577C499.564 169.034 503.002 169.648 504.892 172.287C507.783 176.405 508.558 181.547 511.176 185.937C511.753 185.982 512.325 186.081 512.884 186.233C513.676 187.47 514.275 188.82 514.66 190.237H513.294L513.066 189.373L512.223 189.1C512.223 190.601 513.499 192.125 515.616 194.264C515.775 193.945 516.003 193.513 516.208 193.195C518.781 194.469 518.644 197.403 520.124 199.36C520.616 199.623 521.161 199.771 521.718 199.792H522.584C522.902 197.517 522.902 197.517 522.789 197.267L522.47 196.198C522.18 195.68 522.009 195.105 521.969 194.514L522.652 194.014C523.094 194.365 523.506 194.753 523.881 195.174H524.838C525.202 193.968 525.202 193.968 524.337 191.511H525.202L525.475 190.715C524.109 188.713 524.018 188.69 522.948 188.44C523.364 189.324 523.67 190.257 523.859 191.215C523.198 191.215 521.718 190.829 516.55 182.912C516.254 182.024 516.14 181.706 516.026 181.41C515.912 181.114 516.026 180.796 516.026 180.546L516.732 181.046C518.052 182.366 518.052 182.366 518.872 182.548H519.737H520.238C520.238 181.547 520.238 181.547 519.214 180.273C519.236 179.954 519.236 179.635 519.214 179.317C521.491 177.975 522.697 180.591 524.542 180.955C525.703 182.889 525.703 182.889 526.022 183.23C526.429 183.724 526.745 184.287 526.955 184.891L526.341 185.505C527.092 188.076 529.688 189.623 530.189 192.33C530.45 192.883 530.649 193.463 530.781 194.059C530.846 194.377 530.937 194.689 531.054 194.992C531.473 195.875 531.968 196.72 532.534 197.517L532.853 198.018L533.171 198.268L533.49 198.768L533.946 199.269L534.264 199.633C534.601 200.24 534.788 200.919 534.811 201.612V202.09V202.682C535.055 203.626 535.383 204.547 535.79 205.434L536.154 205.912L536.496 206.299C536.586 205.81 536.586 205.309 536.496 204.82L536.359 203.614C536.177 203.046 535.927 202.272 535.722 201.726L535.494 200.862C535.494 200.338 535.494 200.338 535.744 200.361L536.018 200.475L536.382 200.884L536.655 201.339L537.019 201.749C537.361 202.181 537.839 202.773 538.181 203.25L538.568 203.842L538.887 204.342L539.205 204.593H539.638C540.107 204.655 540.544 204.862 540.89 205.184L541.664 205.366L541.801 205.139L541.938 204.82L541.756 204.365V203.865C541.118 202.318 541.118 202.318 541.141 201.408V200.93L541.277 200.498C541.848 200.522 542.394 200.738 542.826 201.112C543.118 201.585 543.438 202.04 543.782 202.477C544.146 202.909 544.579 203.478 544.943 203.865L545.239 204.365L545.535 204.729L545.763 204.888L546.127 205.161L548.814 205.457C548.677 204.957 548.473 204.297 548.29 203.796L548.131 203.205C547.897 202.597 547.707 201.974 547.562 201.339L548.085 201.476H548.222H548.518C548.86 201.658 548.86 201.658 550.135 203.159C550.33 203.243 550.538 203.297 550.75 203.319L550.886 203.114V202.682V202.318L551.114 202.477C551.304 202.91 551.541 203.322 551.82 203.705L552.002 204.16C552.351 205.167 552.61 206.202 552.776 207.254C552.979 209.06 553.455 210.824 554.188 212.487L554.37 212.965C554.891 213.796 555.16 214.76 555.144 215.74V216.081V215.899C555.311 216.45 555.433 217.013 555.508 217.583V218.061C555.394 220.859 555.394 220.859 555.212 221.177V221.519V221.974V222.474C563 223.885 568.874 224.749 572.95 225.841C574.928 226.123 576.802 226.906 578.392 228.116M588.023 286.675L587.568 280.76C587.568 280.419 587.568 280.055 587.568 279.714V279.577C587.09 274.14 586.452 269.613 586.452 269.59V269.453C586.68 271.387 586.748 271.842 586.794 272.729C587.796 281.829 588.38 291.051 588.547 300.394V300.576V298.551C588.547 296.936 588.41 295.32 588.433 293.682V294.934C588.433 294.934 588.319 291.294 588.023 286.721M585.746 263.971L585.109 259.671C583.287 250.32 580.942 237.808 578.642 228.548L578.437 228.207C581.098 238.251 583.234 248.427 584.836 258.693C585.132 260.353 585.314 262.037 585.655 263.675V263.993M394.459 84.8355V84.6762L393.571 85.063C393.253 85.2905 393.298 85.7228 392.979 85.9503L392.478 86.1095V86.7465C392.478 87.1333 392.023 87.429 392.023 87.8613C392.082 88.1823 392.198 88.4904 392.365 88.7713L393.162 89.1353L393.64 88.8168C393.64 88.8168 393.64 88.8168 393.64 88.3618V87.9523V87.5655H393.799C394.323 87.5655 394.846 87.5655 394.892 87.429L394.778 87.156L394.573 86.7693L394.687 86.0868V85.9275C394.687 85.5635 394.505 85.1767 394.414 84.9037M433.669 116.913C433.427 116.359 433.153 115.82 432.849 115.298C431.392 114.434 430.572 112.886 429.069 111.999L428.568 112.272C428.864 112.659 428.864 112.659 428.568 114.047C427.976 114.365 427.976 114.365 425.221 109.792H423.354C423.015 108.83 422.62 107.888 422.17 106.971C421.35 105.993 420.03 105.72 419.142 104.833L418.504 104.423C417.935 103.354 416.523 103.127 416.09 101.944C415.794 101.238 413.609 99.0089 412.379 98.9406C410.261 98.9406 408.372 98.1899 409.465 96.5063C409.282 95.9831 409.282 95.9831 409.282 95.8011C409.653 95.8393 410.027 95.8393 410.398 95.8011C410.284 95.5508 410.17 95.3006 409.943 94.8911C409.487 94.0948 410.512 93.4578 410.17 92.6161C409.829 91.7743 409.191 90.7278 408.668 89.7723C406.687 89.7723 404.728 89.6358 402.725 89.3855C402.725 88.7713 402.725 88.7713 402.975 88.521C402.975 87.8613 402.338 87.4745 402.338 86.8148C402.587 86.359 402.808 85.8879 402.998 85.4042C402.338 84.8355 402.292 84.79 401.814 84.7217H400.22C399.992 84.7217 399.651 84.9947 397.624 84.7217L397.465 84.8582C397.796 85.7157 398.025 86.6091 398.148 87.52C398.444 88.3845 399.013 89.1125 399.355 89.9543C398.194 89.9543 397.237 89.2945 396.144 89.1353C394.414 88.9305 396.349 91.4103 396.418 91.5923C397.01 92.3886 398.194 91.9563 398.831 92.7071V93.2076C398.988 93.5016 399.124 93.8056 399.241 94.1176C399.241 94.8228 400.266 95.2551 399.97 96.1196C398.239 96.5291 398.239 96.5291 399.173 98.1671C399.605 98.1671 400.038 98.1671 400.607 98.1671C400.744 98.0079 400.88 97.8031 402.884 99.3956H404.182C403.942 98.9569 403.824 98.462 403.84 97.9624C403.84 97.9624 406.664 100.556 406.413 101.716C404.797 101.716 405.616 102.672 406.55 103.627L409.806 103.764V103.036C411.969 104.15 412.47 106.949 414.724 107.972C415.066 109.519 415.066 109.519 415.385 109.883C416.318 110.93 416.432 111.294 416.022 111.772H414.041C413.404 111.612 412.857 111.112 412.129 111.112H411.172C411.172 111.248 411.172 111.248 410.967 111.885V112.682C410.588 112.658 410.208 112.658 409.829 112.682L409.965 113.432C411.263 114.183 413.836 113.432 413.95 115.503C413.701 115.47 413.448 115.47 413.199 115.503C412.766 116.026 412.766 116.026 412.834 116.686C412.607 116.891 412.516 116.959 411.946 116.913H411.491C412.151 120.121 413.586 119.188 414.155 118.824C415.967 118.961 417.769 119.204 419.551 119.552C419.847 119.552 420.553 120.667 419.916 121.145C419.278 121.623 417.639 121.145 416.705 121.736C416.729 122.001 416.729 122.268 416.705 122.533C416.072 122.562 415.445 122.669 414.838 122.851C415.217 123.555 415.45 124.329 415.521 125.126C415.121 125.701 414.52 126.107 413.836 126.264C414.998 126.901 414.998 126.901 416.66 126.264L417.274 125.695V125.126C417.878 125.256 418.461 125.471 419.005 125.763H421.054C420.417 124.034 420.462 123.943 420.622 123.625C425.859 124.58 425.79 123.807 425.699 122.783L425.859 122.601C427.111 122.737 427.885 123.898 429.115 124.102H429.524C430.367 123.761 431.255 124.353 432.097 123.966C432.485 123.784 432.439 123.329 432.393 122.737C432.963 122.487 433.669 122.897 434.215 122.351C433.965 121.145 432.826 120.553 432.211 119.575L432.006 119.052C431.847 118.665 431.847 118.665 432.006 118.369C432.385 118.335 432.766 118.335 433.145 118.369C433.145 118.369 432.963 117.505 432.758 116.8H434.033M405.708 105.447C405.457 104.401 404.41 104.059 403.84 103.286C403.271 102.512 403.476 102.217 403.044 101.807C402.796 101.551 402.492 101.356 402.156 101.238C401.905 101.102 401.632 101.238 401.381 101.238C401.131 101.238 400.903 100.806 400.584 100.715H400.266C399.777 100.786 399.306 100.949 398.877 101.193V101.921L398.353 102.262C397.639 101.69 396.877 101.18 396.076 100.738C395.573 100.637 395.054 100.637 394.55 100.738C395.097 101.966 395.325 103.263 395.939 104.446H395.666H395.507L395.029 104.787C394.755 104.787 394.505 104.787 394.232 104.787L393.958 104.947C393.708 105.129 393.344 105.402 392.979 105.174C392.228 104.696 392.228 104.696 391.613 104.833C392.296 106.607 392.911 108.382 393.571 110.179C394.328 110.269 395.092 110.269 395.848 110.179C396.144 110.953 396.44 111.749 396.714 112.454C396.144 112.454 395.575 112.454 395.029 112.591C394.368 113.705 395.552 114.638 395.325 115.73C394.71 116.049 394.459 116.208 395.074 117.277C395.561 117.868 396.21 118.303 396.941 118.529C397.579 118.733 397.966 118.074 398.558 118.051C399.158 118.082 399.739 118.27 400.243 118.597C400.88 118.597 401.45 117.71 401.495 117.596C401.541 117.482 401.495 117.596 401.336 116.709C401.336 116.345 401.7 116.322 401.814 116.049L407.757 116.254C407.597 115.912 407.484 115.526 407.347 115.162C407.21 114.798 406.3 114.206 406.208 113.432C406.914 112.932 406.914 112.932 406.823 112.431C406.375 110.856 405.764 109.331 405.002 107.881L404.387 106.357C405.662 106.357 405.799 105.766 405.685 105.22M542.416 461.374C542.598 461.101 542.78 460.805 542.94 460.51C549.224 449.544 549.11 448.998 548.882 447.542C546.666 451.426 544.226 455.179 541.573 458.78C539.296 458.94 539.934 461.511 538.522 462.375C536.564 461.875 536.564 461.875 531.099 469.701C528.709 473.159 527.957 477.618 524.473 480.37L524.291 480.143C522.014 482.714 520.033 485.466 517.87 488.083C517.658 488.345 517.461 488.618 517.278 488.902C516.367 490.199 515.616 491.609 514.66 492.906C514.273 493.406 513.908 493.93 513.476 494.476C512.406 495.977 511.199 497.388 510.151 499.026L510.334 499.253C510.652 499.253 510.994 499.253 511.313 499.253C510.584 500.413 510.584 500.413 510.584 500.641L510.835 500.777V501.096C516.003 499.822 537.566 468.859 537.771 468.54L538.841 466.857C539.16 466.265 539.456 465.697 539.797 465.128C540.139 464.559 540.116 464.559 540.298 464.286C541.004 463.308 541.801 462.398 542.416 461.397M583.173 340.593C583.368 339.966 583.392 339.299 583.244 338.659C583.096 338.02 582.781 337.431 582.331 336.953L581.625 338.705L579.758 339.228C579.087 339.165 578.41 339.211 577.754 339.365C577.413 338.978 576.98 338.455 576.661 338.045C576.661 331.925 576.661 331.925 576.16 330.56C576.16 317.456 567.644 306.058 568.624 292.75C568.624 292.044 568.624 291.339 568.624 290.065C568.624 289.701 563.683 250.525 547.812 228.844C547.653 228.844 547.516 228.844 546.537 229.163C546.218 229.572 545.786 230.141 545.444 230.551H545.012C536.837 226.979 530.098 220.381 520.785 219.175C521.582 223.134 522.675 227.024 523.062 231.028L521.4 231.392H519.305C517.62 229.8 516.618 227.456 514.227 226.615C512.136 226.514 510.052 226.286 507.988 225.932C507.442 224.931 507.282 223.316 506.508 222.451C502.842 218.129 496.854 218.129 492.505 215.012C487.678 211.531 491.002 204.684 486.767 200.975C486.767 200.429 486.653 199.679 486.63 199.11C487.623 198.564 488.419 197.72 488.907 196.698C487.442 195.548 485.806 194.635 484.058 193.991C480.567 194.961 476.955 195.421 473.333 195.356C472.609 196.228 471.699 196.928 470.669 197.403C466.707 193.923 466.707 193.923 459.284 195.128C459.011 195.606 458.67 196.289 458.396 196.789C455.739 196.463 453.042 196.823 450.564 197.836C450.497 198.984 450.219 200.11 449.744 201.157C447.467 201.658 445.19 201.021 443.05 202.227C442.467 202.199 441.889 202.123 441.319 201.999L439.452 201.612H438.154C434.01 201.612 433.099 200.884 431.46 199.451L429.684 198.427C428.136 201.157 429.411 204.229 428.545 207.027C426.763 207.283 424.954 207.283 423.172 207.027C423.536 209.643 423.9 212.328 424.219 214.989C422.076 214.737 419.903 215.01 417.889 215.786C417.889 220.154 417.411 224.522 417.662 228.913C417.662 230.073 417.866 231.188 417.958 232.393C416.178 232.173 414.372 232.424 412.721 233.121C412.74 235.094 412.015 237.002 410.69 238.465C409.365 239.928 407.538 240.838 405.571 241.016C403.886 241.266 396.327 259.898 396.304 260.08L394.619 259.944L392.957 260.285L391.317 261.309C391.978 271.546 390.657 272.07 386.627 273.594C386.422 274.094 386.194 274.777 386.035 275.277C385.926 276.621 386.279 277.961 387.037 279.077C394.232 280.419 394.232 280.419 394.96 281.807C393.025 285.697 393.025 285.697 393.025 298.733C393.025 299.415 393.025 300.121 393.025 300.826C393.025 302.418 393.025 302.418 389.291 306.195C389.473 308.697 390.429 311.041 390.839 313.498C390.839 314.18 390.839 314.863 390.839 317.252C390.839 317.252 398.125 329.878 405.138 333.563C404.797 336.566 403.932 344.597 414.929 345.371C422.329 359.84 422.785 360.704 429.616 359.794C430.278 358.721 430.799 357.566 431.164 356.359C433.441 355.426 435.718 356.496 437.995 355.927H439.065C440.59 355.927 440.591 355.927 444.37 356.041C445.782 358.156 445.782 358.156 455.277 358.156C458.191 352.287 460.65 352.833 466.07 354.016C466.416 354.073 466.77 354.073 467.117 354.016C467.117 354.016 471.671 349.261 475.587 352.446C476.202 360.454 476.202 360.454 479.435 361.887L491.822 362.547C491.48 364.595 491.162 366.642 490.775 368.963C489.158 373.035 489.158 373.035 484.877 387.663C483.841 388.005 482.951 388.687 482.35 389.597C482.954 390.592 483.842 391.384 484.9 391.872C486.016 394.579 484.9 397.992 487.496 400.244C486.608 408.685 491.23 417.284 486.79 425.611C486.585 426.225 486.357 426.839 485.72 428.909C485.596 430.124 485.8 431.35 486.312 432.459L473.492 453.593C465.5 459.076 467.163 477.254 467.231 477.39C465.626 479.986 464.593 482.895 464.202 485.921C462.631 488.652 461.038 491.359 459.17 494.476C459.17 494.635 449.858 518.363 448.583 522.026C448.355 522.276 448.173 522.504 447.581 523.118C444.643 524.642 444.643 524.642 443.915 526.872C444.188 526.872 444.484 526.872 443.915 527.987L442.708 529.352L443.004 531.126C444.662 531.287 446.332 531.287 447.991 531.126C449.132 530.673 450.304 530.3 451.497 530.011C453.382 530.232 455.292 530.086 457.121 529.579C471.375 516.111 489.295 507.284 503.48 493.702L535.995 453.889C536.473 453.002 536.906 452.115 538.09 449.931C538.594 448.878 539.042 447.8 539.433 446.7C541.186 443.174 542.917 439.625 544.556 435.644C545.285 429.137 549.11 423.677 550.476 417.33C550.59 417.011 550.704 416.693 550.977 416.01C556.282 403.771 565.322 393.692 570.559 381.453C581.124 356.86 581.124 356.86 583.31 340.775M304.042 412.598C304.042 412.598 303.632 402.565 298.714 400.426H294.046C286.646 398.151 286.646 398.151 285.985 393.829C281.431 390.848 281.431 390.848 278.016 391.804H271.504C265.174 389.256 265.174 389.256 263.33 390.007C263.33 390.53 263.33 391.212 263.33 391.736C261.986 392.532 261.258 392.964 258.07 391.326C258.07 390.894 258.07 390.325 258.07 389.893C258.821 389.438 259.755 388.824 260.483 388.346C257.139 385.62 253.174 383.761 248.939 382.931C248.147 382.897 247.371 382.696 246.662 382.34C245.832 381.776 244.887 381.402 243.895 381.245C242.903 381.088 241.889 381.151 240.924 381.43C240.924 382.977 240.924 384.524 241.084 385.98H236.803C236.757 385.086 236.757 384.19 236.803 383.295C237.327 382.658 238.033 381.771 238.556 381.02L239.763 380.11C239.536 379.701 239.217 379.178 238.966 378.768C238.966 378.768 236.257 377.949 233.388 376.812H232.295C231.529 376.826 230.766 376.917 230.018 377.085C230.246 380.383 230.314 381.908 226.147 381.271C226.091 380.445 226.091 379.616 226.147 378.791V377.312C227.603 377.498 229.08 377.211 230.359 376.493C231.498 370.874 230.496 368.599 230.132 367.734C229.266 367.734 228.105 367.734 227.24 367.734C227.172 365.642 226.944 363.558 226.557 361.501C225.888 359.756 225.128 358.047 224.28 356.382C219.134 355.153 218.656 353.743 218.2 352.378C215.484 351.454 212.823 350.376 210.231 349.147C207.704 347.919 205.267 349.557 202.763 349.42H201.009C188.987 347.145 189.01 342.254 189.033 340.184C186.88 339.131 184.783 337.969 182.748 336.703C182.748 336.362 182.748 336.02 181.405 335.52C179.128 333.973 179.128 333.745 179.128 330.788C178.546 330.791 177.967 330.852 177.397 330.97C175.963 331.402 174.62 332.039 173.162 332.358C171.978 331.266 171.978 331.266 171.728 328.24L173.208 327.808C173.208 327.398 173.39 326.852 173.436 326.443C172.244 325.643 170.892 325.115 169.474 324.896L167.379 326.716C167.197 326.716 167.037 326.716 166.149 326.329C165.27 326.011 164.35 325.82 163.417 325.76C162.142 327.239 161.891 329.286 160.685 330.811H159.387C157.246 327.307 157.11 327.284 153.877 326.647C152.121 326.704 150.364 326.643 148.617 326.465C147.696 326.139 146.752 325.88 145.793 325.692C145.847 325.113 145.757 324.529 145.531 323.993C145.304 323.457 144.949 322.986 144.495 322.621C142.219 321.961 140.488 320.346 138.211 319.777L137.027 320.596C137.027 320.801 137.027 320.801 131.653 326.488C132.265 328.938 132.676 331.434 132.883 333.95L131.836 334.906C130.356 332.426 126.029 323.895 133.088 318.071L132.655 317.001C131.949 317.001 131.335 317.001 130.219 317.16C127.6 318.025 127.623 318.298 127.942 321.551H122.978C117.081 325.646 117.081 325.646 113.87 325.669C113.87 327.648 114.075 329.65 113.87 331.903C112.778 333.086 112.778 333.086 110.022 333.95C110.022 338.136 104.102 340.502 106.379 345.325L107.745 345.553C107.996 349.739 113.21 354.312 108.656 358.065C108.133 365.709 108.133 365.709 105.537 366.164C105.764 367.211 106.106 368.621 106.402 369.668C105.742 370.168 104.899 370.896 104.284 371.442C104.284 372.079 104.284 372.898 104.284 373.513C101.416 374.559 101.324 375.788 101.871 379.473C100.793 379.432 99.718 379.602 98.7059 379.974C99.5484 382.84 99.3207 385.866 100.323 388.664C101.689 388.834 103.069 388.88 104.444 388.801C104.558 389.438 104.694 390.075 104.785 390.848C104.58 391.235 104.33 391.736 104.148 392.122C103.248 392.392 102.428 392.876 101.757 393.533C102.235 396.468 100.027 399.607 102.281 402.451C102.358 402.873 102.457 403.291 102.577 403.702C104.376 412.234 114.667 414.099 117.058 422.175C117.218 422.881 117.4 423.586 117.673 424.45C119.813 427.249 120.405 430.957 123.092 433.414C128.306 438.169 128.124 449.703 138.006 448.406C147.114 447.201 147.729 459.781 156.222 459.668C157.087 462.648 157.952 465.628 158.931 468.768C159.034 469.717 159.28 470.645 159.66 471.521V471.93C159.66 472.226 159.842 472.499 160.298 473.545C160.502 473.909 160.753 474.41 160.935 474.774C161.018 475.271 161.018 475.778 160.935 476.275C161.045 477.255 161.298 478.213 161.686 479.119V479.369C161.879 479.957 162.163 480.51 162.529 481.007L163.075 482.372L163.212 482.827C163.412 483.506 163.474 484.218 163.394 484.92C163.763 485.824 164.253 486.674 164.851 487.446C164.851 487.719 165.034 487.992 165.147 488.265C165.255 488.555 165.346 488.852 165.421 489.152C165.853 491.973 165.17 494.908 166.286 497.661C167.402 500.413 167.197 500.209 168.29 509.036C168.29 509.195 168.472 509.354 168.995 510.241C174.802 519.774 176.76 523.004 175.439 527.577C175.771 528.272 176.168 528.935 176.623 529.556C176.783 529.943 177.033 530.466 177.215 530.853C178.012 531.877 178.012 531.877 177.807 537.064C181.268 540.408 181.769 545.595 185.298 548.849C187.78 550.987 187.097 555.196 190.49 556.72H191.97L188.555 551.442H190.444C190.831 552.034 191.219 552.625 191.628 553.308C191.628 553.717 191.515 554.286 191.446 554.718C192.175 555.742 192.949 556.766 193.723 557.903C194.767 560.016 195.969 562.047 197.321 563.977C196.501 563.522 195.476 562.863 194.702 562.362L194.292 561.816L193.291 560.701C193.291 560.701 193.427 560.883 192.858 560.997C193.333 561.667 193.918 562.252 194.588 562.726C196.204 563.645 197.608 564.893 198.71 566.389C197.389 565.957 196.296 565.024 194.976 564.569C195.465 565.014 195.8 565.604 195.932 566.252C195.932 566.685 196.091 567.231 196.114 567.64C198.915 569.369 202.307 570.052 204.516 572.691C203.657 572.93 202.873 573.384 202.239 574.01L203.446 575.034C204.106 575.535 205.017 576.194 205.723 576.649C206.047 577.07 206.343 577.51 206.611 577.969C208.273 578.879 209.662 580.244 211.279 581.131L211.074 581.586L212.098 582.018C212.562 582.037 213.018 582.146 213.442 582.337C214.012 583.082 214.812 583.618 215.719 583.861L216.083 584.18L226.511 589.731C226.757 589.96 227.024 590.165 227.308 590.345C228.666 590.788 230.05 591.145 231.452 591.414C231.951 591.474 232.441 591.596 232.91 591.778C233.883 591.789 234.856 591.744 235.824 591.642L236.484 590.823C235.258 590.07 233.848 589.669 232.409 589.662C232.113 589.367 231.817 589.071 230.359 588.707C230.359 588.707 228.287 587.205 225.805 585.203C225.464 584.86 225.099 584.54 224.713 584.248C223.688 583.224 222.436 582.428 221.502 581.427C221.196 581.086 220.852 580.781 220.477 580.517L219.157 579.038C218.906 578.697 218.588 578.265 218.292 577.923C218.894 577.986 219.503 577.875 220.045 577.605C219.407 576.906 218.842 576.144 218.36 575.33L219.476 574.488C219.157 573.601 218.679 572.395 218.36 571.485C218.61 571.166 218.884 570.666 219.111 570.325C218.884 569.983 218.61 569.642 217.381 569.21L215.992 568.914C211.575 565.934 211.575 565.934 211.028 565.251C210.914 565.092 210.8 564.91 210.595 563.773C210.869 563.454 211.233 562.999 211.483 562.658H214.352C213.526 561.445 212.918 560.098 212.554 558.677C212.179 557.35 211.973 555.982 211.939 554.604L213.419 554.741C213.419 554.331 213.555 553.785 213.624 553.353C213.692 552.921 213.419 552.966 212.463 552.17H212.212H212.03L210.778 552.875C209.867 552.261 209.867 552.261 208.045 549.668C207.704 549.053 207.408 548.416 207.066 547.802H208.205C209.168 548.185 210.104 548.633 211.005 549.144H214.421C214.216 548.803 213.943 548.303 213.715 547.939C213.487 547.575 213.533 547.506 213.146 546.46C213.305 544.867 213.305 544.867 211.643 542.683C211.415 542.183 211.233 541.705 211.005 541.182C212.116 541.196 213.226 541.142 214.33 541.022H216.424C216.789 540.84 217.358 540.636 217.768 540.454C218.747 540.454 219.749 540.454 221.115 540.454L222.458 540.681C222.458 538.201 224.394 536.563 225.259 534.448L225.555 533.151C225.327 532.468 225.122 531.786 224.94 531.103C224.481 531.097 224.023 531.044 223.574 530.944C223.574 530.489 223.301 530.034 223.005 528.988C221.456 527.054 218.747 526.485 217.404 524.278H220.295C229.836 526.553 232.067 527.031 232.818 523.55C235.278 511.766 237.509 510.492 238.351 510.037C238.68 510.891 238.774 511.818 238.625 512.721L240.036 513.017C241.29 510.963 242.357 508.8 243.224 506.556C243.497 504.008 246.936 503.962 247.323 501.483C247.846 497.888 243.884 495.067 245.524 491.268C247.946 488.327 250.604 485.588 253.47 483.078C254.814 483.078 256.157 483.078 258.024 483.078C259.156 482.202 260.201 481.219 261.144 480.143C264.546 480.222 267.951 480.131 271.345 479.87C271.475 478.965 271.81 478.101 272.324 477.345C274.156 475.976 275.485 474.04 276.103 471.839C276.96 471.359 277.782 470.82 278.562 470.224C278.509 468.105 279.079 466.016 280.202 464.218C281.135 463.649 281.135 463.649 282.479 456.301C282.52 455.596 282.706 454.906 283.025 454.276C283.972 452.548 284.51 450.625 284.596 448.657C284.614 447.896 284.569 447.135 284.46 446.382C284.46 445.972 284.3 445.426 284.209 445.017C284.251 444.066 284.198 443.113 284.05 442.173C283.926 440.208 284.327 438.245 285.211 436.485C286.122 436.235 286.122 436.235 291.701 429.069C292.447 429.076 293.183 428.894 293.84 428.54C294.497 428.186 295.053 427.671 295.457 427.044L302.106 417.83C303.882 414.509 303.882 414.509 303.996 412.689M158.271 286.857L158.499 286.721C157.998 286.197 156.996 286.516 156.654 285.697C156.313 284.878 156.814 283.672 156.654 282.671C154.83 283.275 152.928 283.612 151.008 283.672H149.14C148.161 283.467 147.387 282.739 146.385 282.671H145.452C144.632 282.967 144.382 283.991 143.516 284.264H140.351C139.031 284.264 138.621 282.739 137.482 282.466C136.344 282.193 135.205 280.533 133.703 280.487L127.509 280.237C126.343 280.293 125.189 280.491 124.071 280.828C124.071 282.944 124.071 285.06 124.071 287.153C125.779 289.428 126.94 290.634 127.532 290.793H129.445C131.039 290.793 131.039 290.793 132.337 289.087C132.951 288.268 135.228 287.995 135.228 287.995C136.298 287.995 137.255 288.541 138.279 288.541C139.304 288.541 140.306 287.972 141.353 287.995C143.73 288.009 146.098 287.695 148.389 287.062C148.67 286.889 148.993 286.797 149.323 286.797C149.652 286.797 149.976 286.889 150.256 287.062C151.75 287.44 153.274 287.691 154.81 287.813H156.7C157.383 287.813 157.816 287.176 158.362 286.857M110.341 289.838L110.523 289.519C110.318 288.859 110.797 288.04 110.159 287.449C109.521 286.857 109.157 287.267 108.679 287.062C108.201 286.857 107.768 286.289 107.199 286.016H106.744L101.871 286.152C102.19 286.744 102.372 287.426 102.713 288.04L103.146 288.586C103.465 288.905 103.579 288.859 104.467 288.586C105.355 288.313 106.744 289.633 106.744 289.633C106.744 289.633 107.017 290.202 107.017 290.93C106.969 291.225 107.017 291.528 107.153 291.794C107.677 291.794 108.246 292.09 108.816 291.794C109.385 291.498 109.157 291.589 110.318 289.906M105.491 277.871L118.493 277.575C117.718 276.096 114.622 271.615 111.958 271.182H110.113C108.269 271.182 106.47 272.07 104.626 271.182C103.351 270.591 103.078 269.135 102.121 268.248C100.626 267.144 99.0591 266.141 97.4308 265.245C95.6776 264.062 95.6776 264.062 95.4271 263.243C95.1767 262.424 95.0856 262.06 94.0154 262.014C92.9452 261.969 91.7385 262.242 90.3951 262.31C89.6209 262.31 89.6209 262.31 88.7329 263.152C87.8449 263.993 87.2984 263.152 86.5925 262.992H83.1771C80.2398 262.992 80.2398 262.992 79.8072 263.311C76.3235 266.814 81.2872 272.638 85.4085 269.886C86.4559 269.203 87.0024 267.952 88.2092 267.474C89.1749 267.324 90.158 267.324 91.1237 267.474C91.1237 267.474 94.4253 268.748 94.6985 270.841C94.6985 271.319 94.8351 271.728 95.2222 271.956C98.0228 273.503 98.4327 273.412 99.3435 273.253C100.254 273.093 100.755 273.503 101.233 274.458C101.63 275.289 102.227 276.008 102.97 276.552C103.713 277.096 104.579 277.447 105.491 277.575M357.937 56.0337L356.662 53.7587C356.324 53.3309 355.925 52.9552 355.478 52.644C354.681 52.2688 353.809 52.082 352.928 52.098C352.505 50.8447 351.907 49.6575 351.152 48.5717C350.332 48.5717 349.49 48.5717 348.624 48.5717C347.759 48.5717 347.691 48.5717 345.642 50.6192C344.435 50.4827 343.365 50.0049 342.067 49.9822C339.972 49.9822 339.403 50.4372 339.038 50.8012C338.891 50.9447 338.716 51.0569 338.525 51.1312C338.333 51.2055 338.128 51.2403 337.923 51.2334H335.646C335.486 50.8467 335.35 50.4827 335.168 50.1187C334.985 49.7547 334.849 49.3907 334.712 49.0494C334.576 48.7082 333.824 48.3669 333.414 47.9574L332.412 48.2077L332.891 49.2542C331.514 48.8683 330.078 48.7448 328.655 48.8902C328.291 48.8902 325.468 49.4817 327.767 51.8705C328.906 51.8705 329.908 50.9832 331.069 51.4155L333.46 52.8032C333.87 53.2127 333.779 53.7587 334.006 54.2137C332.081 53.743 330.077 53.6964 328.132 54.0772L329.179 55.7607C329.839 55.5332 329.839 55.5332 330.113 55.5332H332.39L332.8 55.829C333.073 56.5797 333.346 57.3305 333.596 58.104L334.621 59.3098H335.828C336.989 59.3098 338.105 59.0595 339.334 59.105H340.609C342.272 58.9913 343.182 60.5383 344.594 60.9478C344.594 60.9478 349.148 61.9715 349.034 59.651C349.034 58.7183 349.034 58.7183 349.717 57.9903C350.4 57.2622 350.924 58.3315 351.243 57.6945C351.835 56.5342 351.835 56.5342 352.427 56.3067C353.019 56.0792 353.292 55.9655 357.664 56.1247M225.919 131.724L226.284 131.291C226.284 130.814 226.079 130.154 225.988 129.676C224.075 129.676 224.075 129.676 223.46 129.267C222.401 128.657 221.442 127.89 220.614 126.992C220.318 126.491 220.159 126.195 219.703 126.059C218.582 125.845 217.449 125.701 216.311 125.627C215.778 125.385 215.261 125.112 214.762 124.808C216.288 121.873 216.288 121.873 218.087 121.145C218.383 121.008 219.635 119.484 218.975 118.438C218.81 118.215 218.68 117.97 218.588 117.71C218.182 117.716 217.778 117.678 217.381 117.596C216.569 117.734 215.795 118.036 215.104 118.483C214.443 119.143 214.762 120.053 214.443 120.758C213.715 122.487 213.715 122.487 212.85 123.192C212.85 123.192 204.083 131.064 203.742 131.473C203.216 132.143 202.843 132.92 202.649 133.748C202.603 134.392 202.603 135.038 202.649 135.682H215.149C216.219 135.682 216.675 135.932 217.677 137.275C218.663 138.853 220.109 140.092 221.821 140.824C222.117 140.533 222.487 140.328 222.891 140.232C223.324 140.096 224.303 139.732 224.257 136.023C224.257 133.748 224.257 133.748 225.919 131.769M192.607 126.673V126.537C192.152 126.355 191.833 125.991 191.355 125.809C191.07 125.744 190.775 125.744 190.49 125.809C189.625 125.809 189.534 125.809 189.169 125.809C188.81 125.686 188.479 125.492 188.198 125.238C187.916 124.983 187.689 124.674 187.53 124.33C187.234 123.647 186.961 123.511 186.528 123.511C186.143 123.567 185.752 123.567 185.367 123.511L183.545 124.33C184.043 124.52 184.511 124.78 184.934 125.103C185.298 125.513 185.276 126.104 185.572 126.537L185.868 126.855C186.232 127.196 186.642 127.515 187.006 127.879C187.37 128.243 187.53 128.63 187.849 128.948C188.07 129.184 188.354 129.35 188.668 129.426C189.101 129.562 189.852 129.744 192.494 126.764M300.899 1.36501C300.032 1.22405 299.158 1.12535 298.281 1.06926C297.994 1.03448 297.703 1.03448 297.416 1.06926C297.708 1.17047 297.991 1.3 298.258 1.45601C297.803 1.47526 297.348 1.41364 296.915 1.27401L296.596 1.59251H296.482C296.482 1.59251 296.482 1.59251 296.209 1.93377L296.459 2.32052L295.321 1.50151C295.018 1.36964 294.728 1.20968 294.456 1.02376C294.033 0.885812 293.599 0.786815 293.158 0.728006H292.816H292.384L292.816 1.04651C292.521 1.02322 292.224 1.02322 291.928 1.04651L291.564 0.910008H291.723H292.156C291.644 0.821701 291.12 0.821701 290.608 0.910008H289.515C289.221 0.909114 288.929 0.955196 288.649 1.04651H288.444H288.285H287.83V0.614255C288.496 0.671043 289.167 0.671043 289.833 0.614255C290.416 0.67795 291.004 0.67795 291.587 0.614255H292.019L291.45 0.182002H290.812L288.991 0H288.376H287.875H286.008H286.19H288.24H287.352H284.278L283.799 0.136501H283.344H282.729H280.839H280.407H280.521L280.065 0.182002H279.268H279.109L279.291 0.295753H279.769V0.637006L279.633 0.773507H279.428H279.177H279.041H278.654H278.221C277.895 0.73938 277.567 0.73938 277.242 0.773507L277.082 0.932758L276.969 1.06926L276.786 1.22851H276.468V0.568755H276.331H275.967L275.489 0.750757L275.079 0.910008H274.942H274.806L274.1 1.16026H273.94H273.599L274.009 1.00101L274.555 0.887258H274.737H274.874H275.033H275.147L275.466 0.773507H275.17H274.737H274.555H273.963H273.621H272.984H272.642H271.959H271.732H271.595H271.436H271.663H271.458H271.14H270.434H270.229H269.705C269.426 0.817572 269.152 0.886088 268.885 0.978258H268.749H268.589L266.404 1.56976H265.88H265.106L264.4 1.70626L262.715 2.00202L261.85 2.18402V2.04752H261.167H260.893H260.643H260.392H260.074H259.618L258.639 2.29777H258.411L257.546 2.54802H257.911H258.07H258.935H259.459L258.571 2.88928H258.434H258.252H258.093L256.886 3.41253L255.952 3.70828H255.656H255.019C254.679 3.67818 254.336 3.72484 254.017 3.84478H253.516C253.228 3.86587 252.939 3.86587 252.651 3.84478C252.282 3.77412 251.904 3.77412 251.535 3.84478L251.171 3.98128L250.693 4.16329L250.237 4.27704H250.032H249.304H248.871C248.305 4.35638 247.735 4.40196 247.163 4.41354H246.913H246.685H246.457H246.161H245.911H245.661L245.365 4.52729H245.114H244.499C242.905 5.00504 242.837 5.14154 242.587 5.64205L242.996 5.8013L242.632 6.05155H243.862V6.27905V6.50656H244.727L245.456 6.34731H245.729C246.085 6.37126 246.443 6.37126 246.799 6.34731H247.232H247.71L246.731 6.89331L246.321 7.07531H246.07L244.955 7.41656H244.681H244.499H243.634H243.247L242.45 7.57582H242.245L241.63 7.41656H241.357L240.583 7.75782H239.786C239.578 7.78036 239.377 7.84677 239.196 7.95266C239.016 8.05854 238.86 8.20149 238.739 8.37207C239.127 8.46794 239.467 8.70261 239.695 9.03183H239.239L238.921 9.16833L238.625 11.1476V11.2841L238.83 11.4206V11.5571V11.6936L238.67 11.8301L238.875 12.0349V12.1714L239.353 12.3079H239.627H239.923L240.082 12.1714L240.674 11.6026H241.016C241.316 11.6147 241.614 11.6605 241.904 11.7391H242.108L242.496 11.4434H243.133C243.412 11.4918 243.697 11.4918 243.976 11.4434L244.249 11.3068H244.499H244.772H244.977H245.114H245.342L245.615 11.1703L246.253 10.9656L246.571 11.2613H247.664L247.983 11.5571V11.6936H249.213H249.349L249.713 11.9666H250.51V12.3989L250.875 12.5581H251.285V12.9449C250.89 13.3579 250.546 13.8161 250.26 14.3099V14.4691V14.6284H250.533H250.738V14.7649V15.2426V15.4019V15.8796V16.0161V16.2664V16.4256V17.2447V17.9727V18.1092L250.943 18.6097L250.761 18.8599C250.328 19.2239 250.283 19.2694 250.374 20.0657L249.759 21.0439C249.03 21.5444 249.03 21.5444 248.803 21.9767H249.85C249.693 22.3037 249.439 22.5739 249.121 22.7502C248.828 22.7819 248.542 22.8667 248.279 23.0005C248.027 23.5355 247.738 24.0524 247.414 24.5475H246.549C246.412 24.8205 246.253 25.0935 246.093 25.3665V25.8215C246.368 25.9421 246.66 26.0188 246.958 26.049C247.25 26.054 247.54 26.0922 247.824 26.1627H248.279C249.094 26.1634 249.908 26.1102 250.715 26.0035C250.943 25.5712 250.943 25.5712 253.152 25.2527C252.947 26.1855 252.674 27.3457 254.427 27.414H254.723C255.201 27.7558 255.65 28.1362 256.066 28.5515V28.9838L255.77 29.416H254.632H254.176H253.061C252.082 29.416 251.49 29.416 251.057 28.688C247.573 28.324 247.209 28.688 247.186 29.6435L247.846 30.3488C246.981 31.3043 245.273 30.963 244.659 32.3735L244.909 32.7603C246.936 32.965 246.936 32.965 247.71 34.148H248.211C248.866 33.6837 249.638 33.4138 250.44 33.3695C251.242 33.3252 252.04 33.5084 252.742 33.8978C252.924 33.3745 253.106 32.8285 253.243 32.328C252.605 32.328 251.945 32.328 251.307 32.1915V31.7593C251.012 31.7829 250.715 31.7829 250.419 31.7593L250.852 31.3043H252.173C252.833 31.8275 252.833 31.8275 254.245 32.0323H255.679C255.973 32.0765 256.253 32.1853 256.499 32.3508V32.8285L256.362 33.1243C255.77 33.3745 255.429 33.966 254.95 34.33C254.902 34.4855 254.902 34.6523 254.95 34.8078C255.542 35.5131 255.542 35.5131 255.634 35.9681C255.458 36.4302 255.306 36.901 255.178 37.3786C254.561 37.389 253.943 37.3433 253.334 37.2421C252.628 37.4696 252.104 38.1293 251.285 38.0838C251.014 38.0908 250.745 38.0523 250.488 37.9701C250.18 37.9015 249.861 37.9015 249.554 37.9701C249.302 38.8081 248.875 39.5834 248.302 40.2451C248.008 40.1554 247.719 40.049 247.437 39.9266C244.499 41.4281 244.499 41.4281 244.408 41.7239C244.383 41.9583 244.383 42.1947 244.408 42.4291C244.458 42.7461 244.558 43.0533 244.704 43.3391C246.594 43.7714 246.731 44.2946 246.708 44.4311C246.708 45.8416 244.431 45.3639 244.568 46.7062L244.795 47.1839C244.795 47.1839 245.069 48.0484 245.296 49.0949C246.435 49.4817 247.3 48.5034 248.393 48.5489C248.693 48.5477 248.991 48.586 249.281 48.6627L249.486 49.0494C249.486 49.3224 249.19 49.6637 249.076 49.9139C248.803 49.8876 248.529 49.8876 248.256 49.9139L247.824 50.0732C246.321 53.8497 246.321 53.8497 246.685 54.4412C248.438 54.4412 249.554 52.553 251.398 52.8715C251.212 53.7287 250.945 54.5665 250.601 55.374C249.918 56.011 248.894 55.9882 248.188 56.5342C247.482 57.0802 251.33 65.4296 251.376 65.4978C254.108 69.5701 256.408 71.5721 258.207 71.4129C258.54 71.438 258.875 71.438 259.208 71.4129C259.681 71.15 260.216 71.0166 260.757 71.0261H261.212C261.69 71.1399 262.146 71.1854 262.601 71.2991C262.601 73.9836 265.584 73.5741 266.813 75.0529C267.474 75.8037 272.597 75.8492 272.483 73.5059C272.483 73.2784 272.483 73.0736 272.483 72.4821C272.733 69.5474 277.652 66.6581 274.532 63.9508C274.532 63.9508 272.551 62.0853 275.648 61.8805C275.981 61.9057 276.316 61.9057 276.65 61.8805C277.132 61.8024 277.624 61.8024 278.107 61.8805C278.665 60.6483 279.586 59.6162 280.748 58.923C280.71 57.8551 280.841 56.788 281.135 55.7607L281.431 55.4422C281.47 54.9549 281.381 54.4659 281.174 54.0232C280.966 53.5805 280.647 53.1993 280.247 52.917V52.462C281.227 51.8705 282.524 52.3255 283.412 51.5975C284.3 50.8694 283.549 50.3689 283.731 49.8002H287.443C287.307 49.1474 287.307 48.4737 287.443 47.8209C288.141 47.7863 288.84 47.8631 289.515 48.0484C289.515 49.5272 289.515 49.5727 289.788 50.0732C291.7 49.8684 293.044 48.4807 294.752 47.7982H295.457C296.243 47.8841 297.036 47.7335 297.734 47.3659V46.8882C298.281 45.8189 299.419 45.2729 300.011 44.3174C300.694 44.0671 300.694 44.0671 301.309 42.6794C301.655 42.5844 301.991 42.4548 302.311 42.2926C302.238 42.0476 302.238 41.7868 302.311 41.5419C303.495 40.5409 303.495 40.5409 303.176 39.2668H303.358H303.837H303.996H304.133H304.269L304.588 39.4716H304.747L305.066 39.7673C305.522 39.9746 306.028 40.0457 306.523 39.9721C307.867 39.9721 308.983 40.8366 310.326 40.8139C312.056 40.8139 312.148 38.3568 313.924 38.4251C315.13 38.4251 316.201 37.4696 317.407 37.6743C319.206 37.9473 318.5 35.2173 319.958 34.7851H322.622C323.145 34.5121 323.145 34.5121 323.851 33.3973L323.646 32.9878L323.077 32.7603L322.462 33.4428L322.303 34.0115H321.346C320.367 33.8068 319.844 32.7148 318.751 32.7148H317.999C314.88 32.5783 314.333 31.6 314.06 31.1223L313.673 30.235C317.202 29.6663 317.202 29.6663 317.84 29.0748C319.365 29.6435 319.593 31.8275 321.46 32.0095L321.779 31.691L321.916 30.8948C322.758 30.508 323.737 31.0313 324.602 30.5535C323.464 28.961 321.597 28.2785 320.049 27.1182C318.5 25.958 316.929 25.776 316.201 24.0242L316.656 23.865C318.591 24.9797 318.591 24.9797 318.728 24.9797C318.993 25.0073 319.26 25.0073 319.525 24.9797H319.98C319.729 24.4513 319.44 23.9418 319.115 23.4555C318.955 23.2143 318.825 22.9546 318.728 22.6819C318.602 22.4084 318.414 22.1684 318.178 21.9814C317.942 21.7944 317.665 21.6658 317.37 21.6059C317.075 21.546 316.77 21.5567 316.479 21.6369C316.189 21.7172 315.922 21.8648 315.7 22.0677C315.206 22.0918 314.716 21.9733 314.288 21.7264L314.971 21.1122C314.812 20.9529 314.812 20.9529 313.332 20.3614V20.1112H314.994L315.654 21.0894C316.29 21.1524 316.931 21.1524 317.567 21.0894L317.817 20.6799H318.273C318.53 20.6519 318.789 20.6519 319.047 20.6799C319.957 21.0439 319.957 21.0439 320.504 20.8164C320.868 18.5414 317.316 19.4514 315.95 18.5414V18.1319C317.817 18.5187 318.364 18.2912 318.614 18.1319L318.865 17.6542L319.297 17.8134H319.889C320.178 17.8203 320.465 17.766 320.732 17.6542C319.388 16.3801 317.271 16.1981 316.178 14.6056C316.314 14.4691 316.314 14.4691 317.293 14.4464C316.997 14.1506 316.701 13.8549 316.064 13.2861C315.577 13.1027 315.123 12.8414 314.721 12.5126L314.402 12.2396C313.149 11.6026 311.578 11.8529 310.485 10.8518L310.303 10.6698C310.576 10.3741 310.576 10.3741 311.487 10.2148H312.17C312.78 10.2078 313.375 10.4084 313.855 10.7836C313.855 10.7836 313.855 10.7836 314.151 11.1703C314.447 11.5571 314.516 11.7619 315.973 12.6719L316.201 12.5354L313.605 10.2603L313.491 9.85084L313.263 9.66883C312.512 9.28208 312.512 9.28208 310.986 9.23658H310.394H309.939C309.643 9.01606 309.395 8.73735 309.21 8.41757L309.62 8.55407H309.939L310.394 8.39482C309.465 7.92797 308.424 7.73091 307.389 7.82607L307.571 8.25832C306.985 8.05041 306.482 7.65952 306.136 7.14356V6.77956C305.648 6.43956 305.177 6.07509 304.725 5.68755H305.408L304.975 5.41455V5.00504C304.975 5.00504 305.112 5.00504 304.975 4.75479C303.859 4.20879 303.837 4.09504 303.677 3.57178H304.11L303.7 3.36703V2.93478L303.199 2.77552H301.674L301.286 2.43427L302.175 2.59352H302.539L301.787 2.13852L302.083 1.93377L300.899 1.36501ZM271.299 0.318503L272.164 0.159251H271.39H271.208H272.028H272.62H271.868H271.458H270.297L271.322 0.0455004H270.684H271.413H270.957H269.637H270.434H269.751H268.544H268.977H267.337H266.517H266.404H266.95L263.58 0.227502L261.827 0.386753H262.305C261.315 0.601243 260.31 0.73816 259.299 0.796257L260.37 0.614255H260.051L261.85 0.432254H261.189H261.736H260.825L257.865 0.728006H257.569H258.093H257.911L255.338 0.978258H255.019L253.448 1.18301H253.197L251.467 1.41051H251.262L248.985 1.75177C248.37 1.97687 247.726 2.11471 247.072 2.16127H247.368L247.141 2.36602L249.417 1.95652L250.806 1.75177H251.717L249.805 2.02477L247.528 2.43427L245.547 2.84377C246.974 2.83575 248.395 2.66013 249.782 2.32052H250.101H250.943L252.992 1.97927L254.677 1.72902C255.702 1.56976 256.749 1.45601 257.774 1.31951H258.024L257.296 1.36501L253.562 2.04752H254.45H254.586L253.243 2.29777H252.491H251.694L250.693 2.43427L248.416 2.73002H247.96H247.254L245.638 3.09403H245.797L245.182 3.29878L243.816 3.70828L244.317 3.84478H243.543H243.065C243.81 3.61074 244.521 3.28196 245.182 2.86653H244.886H244.317L242.382 3.27603L241.243 3.64003L239.832 4.11779L238.238 4.80029L237.873 5.09604L238.579 5.23255C237.851 5.4373 237.031 5.4828 236.302 5.73305L234.435 6.34731L235.961 5.50555H235.687L234.412 5.64205L233.251 5.8013L231.407 6.18805L229.517 6.75681L228.219 7.21181L228.424 7.34831H229.494L230.746 7.21181L228.47 7.75782L226.944 8.37207C227.627 8.50857 227.627 8.50857 231.748 7.43931L229.471 8.21282L226.807 8.87258L225.669 8.98633V8.46307L226.056 7.93982H224.963C223.147 8.82701 221.216 9.45499 219.225 9.80534L216.948 10.5333L215.149 11.5344V11.9666C215.918 11.8163 216.678 11.6264 217.426 11.3979C217.426 11.3979 217.426 11.3979 220.66 11.2613V11.5344C221.214 11.5178 221.765 11.4337 222.299 11.2841C222.618 11.2841 222.937 11.2841 223.028 11.2841C221.752 11.8529 221.753 11.8529 221.616 12.0349C222.118 12.1453 222.639 12.1453 223.141 12.0349H223.916C225.768 11.6567 227.588 11.1318 229.358 10.4651L230.633 9.75984L228.652 10.2376L230.496 9.28208L231.885 9.07733L234.162 8.21282L235.619 7.48482H236.325C238.078 7.48482 239.49 6.46106 241.129 6.05155H242.177C242.842 6.02059 243.469 5.73553 243.93 5.2553V5.00504H243.634L242.017 5.3463L240.651 5.64205L241.926 5.1643C243.179 4.91404 244.431 4.61829 245.683 4.34529H246.389L245.615 4.68654C246.275 4.82304 246.275 4.82304 249.213 4.20879L250.078 3.66278H251.102L250.283 4.02679H251.148L252.787 3.75378L254.131 3.20778V3.02578H255.702L257.091 2.70727L258.389 2.52527C260.256 2.18402 262.1 1.91102 263.944 1.54701H264.696L265.675 1.38776L266.267 1.16026C265.317 1.30117 264.358 1.36205 263.398 1.34226L264.559 1.13751L265.584 1.02376H267.132L269.409 0.796257C270.127 0.747276 270.842 0.656118 271.549 0.523255M236.803 5.00504L239.308 4.32254C239.513 4.04954 239.513 4.04954 239.763 3.93578L241.289 3.54903L242.655 3.23053L243.406 3.00303L241.904 3.25328C241.904 3.25328 244.431 2.52527 246.594 2.11577C247.676 1.98682 248.748 1.78926 249.805 1.52426L247.528 1.79727H247.824C247.193 1.92473 246.554 2.00834 245.911 2.04752H245.41C244.135 2.20677 242.905 2.47977 241.676 2.70727H241.357H240.697L238.215 3.18503L236.735 3.43528L234.344 3.93578H234.526L232.022 4.52729L230.997 4.84579H231.862L233.16 4.66379H234.002C232.999 5.01492 231.961 5.25894 230.906 5.3918H230.268L228.697 5.7103L227.627 6.1198L225.35 6.82506V7.12081L226.853 6.91606V7.14356L228.561 6.68856H228.948C229.559 6.5579 230.16 6.38302 230.746 6.1653L232.773 5.59655L232.386 5.86955L234.663 5.3918C235.355 5.28266 236.039 5.1307 236.712 4.93679M218.041 9.78259C219.456 9.53151 220.823 9.06339 222.094 8.39482L220.295 8.69058L217.312 9.57783L218.041 9.78259ZM217.608 15.2426L219.658 13.9914L218.952 13.4226L218.018 13.0359L215.559 13.6046L212.463 14.1961L210.869 14.3781L209.935 14.0596L208.341 14.1961L209.798 13.1269L212.258 12.0349L214.284 11.1476H212.986C210.356 11.7241 207.855 12.7808 205.609 14.2644L202.262 15.5384L200.873 16.4711L199.985 17.4267L202.057 17.1764L204.334 16.5166C204.015 16.8351 203.719 17.1992 203.423 17.5177C204.018 17.6281 204.627 17.6281 205.222 17.5177H207.499L209.184 17.1309L210.732 16.5394L210.277 17.1764C214.352 16.8351 214.352 16.8351 215.491 16.1299C216.178 15.6837 216.956 15.3961 217.768 15.2881M190.877 18.1547H191.674L193.017 17.4267L190.877 18.2002M197.913 17.0171L200.805 15.6976L201.419 15.0834L203.013 14.2644L201.92 14.4464L199.347 15.1289L197.275 15.9251L195.681 16.9489H196.569L196.296 17.4267L197.913 16.9716M207.84 12.5581L210.368 11.7619L211.984 11.1476L213.305 10.4196H212.371L212.804 10.1238L211.415 10.3513L208.842 11.2158L207.84 11.8756L207.021 12.4671H207.84M218.588 8.87258L220.432 8.28107H219.453H218.588L216.311 8.87258L214.785 9.39583L216.037 9.25933L217.199 9.03183L218.588 8.87258ZM220.864 7.68957L222.549 7.23456L224.212 6.59756H223.688L225.418 5.96055L223.688 6.34731L221.821 6.91606L218.588 7.91707L218.724 8.05357L219.817 7.89432L220.864 7.68957ZM230.997 4.45904L232.363 4.23154L235.05 3.66278L235.551 3.50353H235.187L232.705 3.98128H233.137L230.997 4.43629M214.739 8.69058L216.72 8.16732L218.997 7.46207L220.181 7.05256L222.458 6.41556L223.141 6.14255L224.166 5.82405H223.369L224.69 5.4373L225.942 5.07329L225.168 5.2098L223.141 5.68755L221.183 6.14255H221.752L221.024 6.37006L218.588 6.93881H218.041L215.924 7.55307H216.515L215.309 7.96257L216.743 7.62132H216.88H217.29L215.013 8.46307V8.64508M211.802 9.14558L212.827 8.87258L214.17 8.37207H213.282L211.142 9.03183L211.802 9.14558ZM203.673 13.0131C204.573 12.7013 205.423 12.2648 206.201 11.7164C205.57 11.8575 204.946 12.0322 204.334 12.2396L205.814 11.4434H205.108C203.511 12.3693 201.805 13.0952 200.03 13.6046L202.877 12.2851H202.193L199.917 13.1269L197.64 14.0824L198.983 13.3089L202.649 11.8984L203.446 11.3523L199.917 12.5581C198.437 13.1269 197.002 13.8776 195.545 14.5374L195.18 15.0151L196.547 14.6739L197.412 14.4919L196.046 15.1744L192.926 16.6076L194.429 16.1526L195.476 16.0389L196.478 15.8341L198.755 14.9696C199.78 14.5374 200.759 14.1279 201.806 13.7411C202.854 13.3544 203.264 13.2861 204.083 13.0359M191.264 15.8796C192.175 15.5156 192.152 15.3564 192.152 15.3336C191.606 15.3336 191.173 15.7431 190.627 15.8114L188.6 16.6759C189.525 16.5538 190.424 16.285 191.264 15.8796ZM204.926 10.6698L206.383 10.3286L209.48 9.28208L210.869 8.87258C208.855 9.35931 206.871 9.95935 204.926 10.6698ZM190.604 43.5211L193.245 41.7239L194.019 39.8811C192.792 39.8874 191.567 39.9786 190.353 40.1541C189.131 40.7842 187.945 41.483 186.801 42.2471L186.278 43.8624L188.054 44.0671L190.604 43.5211ZM192.289 21.1122C195.818 19.6334 195.818 19.6334 195.818 19.2012H194.634V18.7234C192.699 18.9054 192.699 18.9054 192.357 19.1102C190.981 19.9065 189.513 20.5329 187.985 20.9757C186.46 21.7492 184.98 22.5227 183.431 23.2507L179.287 25.7987L181.132 25.4347L183.591 24.502L186.141 23.137L186.847 23.4555L189.124 22.5682L192.471 21.0212M174.255 27.4367L177.671 25.7532L179.447 24.502L180.79 23.3872L181.359 22.6592C183.465 22.2206 185.429 21.2669 187.075 19.8837L188.145 19.2012L187.029 19.3377L184.752 20.3387H184.433L184.615 19.9292L182.999 20.3387L181.086 21.3169L179.561 22.4089C175.667 24.2062 175.667 24.2062 175.28 24.1835C175.682 23.8222 176.108 23.4878 176.555 23.1825L175.69 23.2962L173.413 24.3882L172.57 25.23L171.933 25.867L172.138 26.2765C169.155 28.3467 169.155 28.3467 169.36 28.9155C170.408 28.5402 171.434 28.1073 172.434 27.6187L174.21 27.414M174.369 22.9777L177.602 21.6582L178.536 21.0439L178.012 20.7027C177.235 20.9319 176.474 21.2131 175.735 21.5444L174.369 22.5227C174.369 22.5227 173.914 22.8184 172.092 23.8877L174.232 23.0915M174.073 21.9767L176.35 21.0439L175.576 21.1804L173.8 21.8402L174.096 21.9767H174.073ZM213.373 7.64407C214.415 7.41915 215.441 7.13043 216.447 6.77956H215.719L214.398 7.02981L211.347 7.73507H211.802H212.44H213.259H213.373M208.341 8.87258L210.618 8.30382H210.254H209.525L208.182 8.87258L205.905 9.39583L202.148 10.5333H202.011L203.241 10.2376H204.129L206.042 9.71433L207.726 9.19108H208.227M204.926 9.44133H205.108L207.977 8.66783L208.979 8.34932H208.478L206.201 8.96358L204.926 9.44133ZM189.443 15.9706L193.996 14.2871L195.317 13.7184H194.862L192.881 14.4009L193.541 14.1051L195.636 13.1724L197.776 12.4444L200.053 11.6254H199.529L197.776 12.1259L196.774 12.3761L195.067 12.9449C193.792 13.4909 193.792 13.4909 190.513 14.6511V14.7876C189.798 15.148 189.029 15.3864 188.236 15.4929H187.462L188.714 14.9014L191.719 13.7184L192.539 13.4226H192.084L193.177 12.9449L193.336 12.8311L191.446 13.4226L187.985 14.5146L185.481 15.3109L182.68 16.2436L180.039 17.2219H180.54L180.289 17.4722L181.291 17.2447L182.885 16.8124L182.999 17.0171H183.614C182.953 17.2559 182.276 17.446 181.587 17.5859H180.858L179.105 18.1547L177.261 18.9054L176.578 19.3149H177.557L180.471 18.4277L183.659 17.3584L184.82 17.1309H185.822H186.87L189.511 16.2209M196.023 12.3306H196.251L198.528 11.6254C198.218 11.7252 197.896 11.7788 197.571 11.7846H197.844L196.091 12.3306M182.703 16.1071L187.484 14.4919L185.822 14.9469L182.839 15.9251L182.703 16.1071ZM198.641 11.1248L201.784 10.2376L202.353 9.98734L199.78 10.6698H199.211C198.915 10.6698 190.103 13.2406 190.103 13.2634L189.67 13.4226L187.689 14.0141L185.048 14.9014L183.91 15.3791L186.437 14.5601L184.911 15.1516L186.528 14.6511L188.395 14.0141H188.964L191.811 13.1269L193.928 12.5126L191.264 13.2634L192.425 12.9449L194.247 12.4671L198.641 11.1476M156.131 35.3311L158.021 34.2845L158.749 33.2153L158.613 32.1005L160.89 30.326L164.305 28.4832L165.535 27.3912L169.861 25.1162L172.138 23.683L172.798 22.9094C172.479 22.9094 172.16 22.9094 171.864 22.9094L168.449 24.5475L166.172 25.7305L163.462 27.323L161.778 28.0737H161.55L162.506 27.3685L164.783 26.1627L166.536 25.1845L169.087 23.6602H168.608L166.536 24.7295L164.988 25.594H164.168L162.483 26.3902L161.413 26.6632L163.417 25.7305L165.853 24.6157H165.535L165.922 24.1835L165.079 24.3427L162.802 25.4347V25.2755L164.442 24.5702L167.242 23.2507L167.584 22.9777H166.878L164.305 23.9787L162.779 24.5247L161.322 24.9797L158.863 25.958L156.017 27.3685L153.285 28.4832L151.577 29.325H152.009L150.643 30.1213L152.26 29.5298L153.239 29.3478L151.873 30.235L150.051 30.872L148.526 31.3953L146.522 32.328L145.543 33.2153L146.499 33.1015L148.002 32.783C148.295 32.7248 148.597 32.7248 148.89 32.783C148.139 33.602 148.139 33.602 146.294 34.5348H144.769L143.289 34.6713L140.26 35.9453L136.799 38.2203H137.778H138.803L135.638 40.4954L134.796 41.4054L136.276 41.2916L137.915 41.0186L140.625 39.8356L142.674 39.1303L145.725 37.7198L147.478 36.9691L146.681 37.7426L147.752 37.4696L147 39.0393H148.002L149.573 38.7208L152.396 37.1283L153.421 35.8998L154.332 35.7406L156.062 35.3083M142.401 40.6319L144.883 39.0393L141.854 40.0176L137.801 41.7466L138.279 42.1561L140.807 41.0869L142.401 40.6319ZM165.17 23.3872L167.447 22.6364L170.134 21.4307L172.661 20.0884V19.9519L170.384 20.7709L171.204 20.2477L172.388 19.6107H172.16L170.635 20.0202L168.358 20.9074L164.373 22.5227L158.225 25.1617L149.778 28.8928L148.457 29.78L143.448 32.51L146.977 30.872H147.66L150.211 29.7345C154.4 27.7325 160.912 25.0252 160.981 25.0252L165.261 23.501M217.29 114.206L219.248 112.659L217.7 111.248L219.271 109.724L220.159 106.516L216.06 105.97L215.719 104.105H211.165L207.203 105.948L204.47 107.449L202.649 106.698L204.061 104.423L208.614 103.081L213.76 101.966L216.311 100.169L213.214 99.9871L210.527 98.5539L206.77 97.5984L204.926 95.3233L202.831 93.2076L202.376 91.2738L204.129 90.9098L205.154 89.4993L203.787 86.2233L202.125 82.6742L200.486 76.5544L200.372 73.8699L195.818 77.4644C195.363 78.5109 194.93 79.5574 194.452 80.604L190.763 81.8325L187.78 84.1075H184.843L185.116 82.0827L183.864 80.604L180.631 81.3092L183.158 77.8057C183.932 76.2814 184.729 74.7799 185.435 73.2556L186.551 70.9806L183.318 70.8669L181.724 69.1606L180.881 66.7491L178.604 64.2238L176.327 65.4523H173.094L172.343 64.5651H168.677L165.99 66.2713L165.626 68.7056L162.825 72.0271L161.8 74.3021L161.208 77.1232H159.182L157.451 80.1262L155.174 81.8097L156.153 83.1292L157.565 85.245L156.131 89.2035C155.311 90.705 154.491 92.2521 153.694 93.7536L149.96 97.0296L145.725 99.6686L141.535 100.306L141.695 104.287C140.807 106.039 139.964 107.79 139.122 109.565L138.894 112.591L137.118 115.071L133.908 118.256L129.786 118.915L129.604 114.525L128.784 110.771C129.308 109.701 129.877 108.632 130.401 107.563L132.018 103.013L134.34 99.4184L130.128 98.8496H126.917L125.984 97.5984L122.728 96.4608L122.568 94.3906L120.77 92.1156L119.107 89.8405L113.848 91.4103L114.508 89.1353L116.671 84.062L115.783 82.788L116.125 80.8542L121.658 74.8482L127.509 70.2981L132.906 66.3396L136.526 64.8608L140.238 62.8133L141.444 60.7658L139.418 59.9923L137.756 58.6728L140.647 59.2643L142.742 60.1515L144.564 59.651L147 57.376L148.503 58.4225L150.461 57.922L152.214 56.2157L153.899 55.4422L156.654 53.1672L155.061 52.9397L153.034 52.7577L153.467 51.552L152.396 50.2552H153.99L155.744 51.1197L156.814 51.8932L159.546 50.9832L162.939 48.9129L163.212 47.3432H165.125L164.76 48.7537L162.187 50.4144L158.317 53.4857C157.11 54.737 155.903 56.011 154.719 57.3078L151.873 58.2633L150.825 59.9923H152.897C152.419 60.5383 151.941 61.0843 153.034 61.7668L154.719 61.2208L157.337 59.1505H160.093L161.413 59.4008L162.301 60.2198C163.098 60.2198 163.872 60.2198 164.578 60.2198L166.605 57.9448L164.715 57.4215L165.99 54.737L163.508 54.5322L163.371 52.5075L162.005 52.098C162.506 51.5975 162.984 51.0969 163.508 50.5964L164.874 50.9604L166.696 49.8229L167.652 48.6172C168.381 48.6172 169.041 48.6172 169.77 48.6172L172.274 46.8654L175.917 45.1136L177.967 43.6804L178.445 42.1789L180.153 39.7218L182.316 39.3123L184.82 37.4696L185.503 35.7406L184.775 34.8533L184.251 33.5565C185.071 33.5565 185.89 33.5565 186.733 33.5565L188.099 32.6465L189.67 32.8058L189.943 33.784L192.22 33.6248L194.634 33.1243L194.998 31.4863L196.456 31.1223L195.977 32.9878L197.685 33.147L196.592 34.9671L197.708 35.2856L197.184 36.6733L198.14 37.3558L197.366 39.1303L198.687 39.8356V41.6556L197.161 43.9306L192.607 46.4559L188.486 49.0267L187.712 51.4609L183.5 52.098L181.951 51.5975H179.811L175.485 53.736L173.64 56.011L176.396 56.5342L179.105 56.3067L180.745 55.0327L182.43 54.282L183.796 54.6915L186.255 55.6015L187.211 58.7183L186.756 60.47L187.325 62.745H190.217L191.583 65.7253H196.137L198.414 67.0676L199.643 65.2248L196.729 61.5393L195.818 59.833V58.104L198.095 59.651L202.034 62.4265L204.129 64.0191C204.584 63.1091 205.017 62.2218 205.495 61.3345L208.318 59.0595L206.429 57.6263L207.818 54.0772L204.926 52.7577L203.628 48.4352L205.768 47.2294L207.795 46.1602L210.664 50.0959L211.165 52.6895L213.442 53.0762L215.855 50.0504L219.407 48.9357L220.5 47.7299H222.481L224.007 46.3877L224.895 44.4311H221.069C221.274 44.0899 221.456 43.7486 221.684 43.3846L220.409 41.7694L218.997 41.5191L217.221 40.7229H215.423L215.878 39.3578L216.128 38.1521H213.168L212.098 38.0383C212.599 37.3558 213.1 36.6733 213.669 36.0136H215.696L217.495 35.0581L215.354 34.421L216.333 33.602L217.813 33.3518L217.449 32.0323L215.901 31.509L217.791 30.2805L216.515 29.3478L214.239 29.4843L214.876 28.5287H213.191L212.713 28.324L215.149 27.3457L213.874 26.777L210.778 27.4367L211.096 25.8215L211.962 24.9342H210.687L211.916 23.865L210.732 23.137C209.821 23.137 208.888 23.137 208 23.137L206.451 24.0015L204.766 24.229L203.856 23.9787L201.943 25.0707L200.486 25.2072L202.33 23.8195L204.926 22.5227L206.178 20.8847L207.954 19.4514H205.677L202.922 20.5434L201.305 20.6799L199.029 21.4534L196.364 22.9549L194.725 24.593L192.448 25.7077L190.672 27.8235L189.238 28.0737L190.422 26.2765L193.609 24.0015L195.886 22.4544L199.529 20.8619L203.081 19.5652H201.169L198.664 19.9064L193.655 21.7947L187.985 24.5247L182.293 28.0737L183.522 28.4377H184.684L183.272 29.8028L182.202 29.5298L179.925 30.1213L178.786 31.8275H180.699L182.247 31.3498L182.088 32.419L183.386 33.329L181.109 33.966L178.991 35.5813L178.718 36.7188L173.048 40.0858L169.405 42.4974L165.876 44.4539L165.466 43.7031L167.743 40.8594L170.772 39.1076L171.773 36.5368L167.356 38.6526L169.633 35.0808L169.428 34.6486L172.183 32.8285L174.779 30.8493L174.096 30.6673L176.373 29.052L177.671 27.3457H176.054L174.05 28.3922L173.071 28.5287L169.474 30.2805L167.675 31.6683L165.717 32.8058L164.396 34.6713L164.055 35.8771L161.072 37.6743L160.07 37.2648L157.793 39.3123L159.478 39.1076L163.098 37.5833C162.096 38.2886 161.14 39.0393 160.206 39.8583L154.264 42.1334L150.347 45.4549L150.689 43.7259L154.173 41.4509H153.011L155.744 39.3578C156.085 39.3578 156.472 39.3578 156.814 39.3578L160.685 36.3776L160.821 34.7623L157.201 36.8781L154.514 37.9018L153.467 40.1769L150.507 41.5874L148.002 43.2936L143.448 43.7941V42.5201L142.537 42.2244L143.471 40.4954L140.283 41.9514L136.207 43.6121L133.543 45.7506L128.42 49.2087L132.974 45.2046L133.521 43.8169L130.652 44.7269L128.17 44.3401L129.877 43.1571L132.633 42.0424L134.363 40.1086L133.133 40.3361L134.113 38.5843L136.207 37.0828L135.889 36.8781L135.114 37.0828L132.587 38.4478L131.471 38.8801L136.298 35.9908L131.38 38.6526L131.494 38.4023L137.255 35.0581L137.892 34.6031L133.657 36.8781L130.765 38.4478L129.741 38.9256L127.327 40.1541L124.162 41.9514L128.716 39.3351L130.378 38.4933L131.995 37.6743L134.272 36.4458L134.522 36.2638L132.063 37.4013L128.784 39.1303L128.375 39.3578H128.238C119.745 44.3174 108.793 51.5747 100.596 56.9892C87.6399 66.2258 87.6399 66.2258 64.2784 87.3835L60.3393 91.4103L61.0451 90.705L59.6562 92.1838L57.3792 94.5726L56.7189 95.4371L54.442 97.7121L53.3946 99.1454L51.3225 101.42L50.8216 102.217V102.467L48.5446 105.06L46.4498 107.745L43.8769 110.93L41.5999 113.933L41.8504 114.16L39.1636 117.778L37.1826 121.122L35.4977 123.647L34.8374 125.467L34.7008 126.696V127.56L33.4484 129.54L32.6971 131.997L32.0367 134.09L29.6004 139.026C28.8035 140.323 27.961 141.665 27.1641 142.985L28.0748 140.551L29.441 137.366L30.6023 135.318L31.1032 133.453V132.725L33.1524 129.449L32.5377 129.585L33.1752 128.061L33.3346 127.333V126.832L32.6287 127.333L31.1715 129.881L30.6023 131.382L29.6004 133.544L28.4391 136.979L26.481 140.824L23.9536 145.783L21.5627 149.924L18.3522 155.429C17.2138 157.522 16.0753 159.638 15.0279 161.754L13.7756 163.346C13.0697 164.757 12.3866 166.167 11.658 167.578L10.1324 171.923L7.85549 176.246L6.53486 179.613L5.73792 182.479L3.84805 186.893L3.05112 190.487L2.86896 193.331L1.27509 199.588V202.067L0.364313 205.343L0 209.074L1.29786 208.892L1.50279 211.349L2.43634 213.329L2.66404 216.582L1.88987 220.677L1.48002 224.772L0.637547 231.597L1.09294 234.464L1.77602 237.808V240.265L0.227695 242.54L0.387082 245.475L1.36617 248.068L2.75511 250.957L3.41543 254.165L2.82342 256.85L2.93727 259.125L4.32621 260.535L5.48746 263.47L6.30716 265.973L6.10224 269.044L7.10409 267.952L7.67333 264.562L7.42287 260.786L6.17054 259.352L6.37547 256.031L5.16868 253.392V245.133L4.34898 242.221L4.71329 238.263L3.6659 237.125L3.93913 232.257L3.46097 228.185L4.55391 222.724L5.71515 222.383L6.94471 223.907L7.21794 226.774L6.26162 231.461L6.83086 237.558L7.90103 242.403L9.10781 245.77L9.88198 249.206L9.63151 253.232L11.362 255.507L12.4094 259.239L13.1608 263.243L15.1873 268.748L15.9387 273.73L17.1682 276.005L15.6654 277.939L15.0734 281.101L17.783 285.652L20.06 289.428L23.1338 291.089L26.3899 294.615L30.3746 297.573L34.9285 301.281L38.7537 302.942L41.2584 302.555L42.0098 300.394L44.8788 299.734L48.1348 302.236L51.8462 306.559L53.941 310.176H57.0149H58.1989L59.975 311.154L62.0242 315.022L65.9861 316.728V314.089L68.2631 315.591C75.3216 328.012 75.3216 328.012 74.9118 330.538L76.369 332.585L77.9857 331.493L80.2626 332.949C85.1353 338.5 85.1353 338.5 87.3212 338.204L93.5145 341.867L96.8388 343.596L96.2696 339.501L97.6585 336.862L103.351 337.226L104.148 339.797L105.992 339.524L106.789 336.111L104.512 333.04L98.6149 333.199L94.8123 333.04L89.2566 332.676L86.5925 330.401L82.8356 325.578V321.642C82.8356 319.891 82.6762 318.162 82.6306 316.41L83.5642 309.789V305.239L81.9703 301.736L78.5549 299.461L73.5001 300.166L69.9935 299.211L66.191 301.486L63.6864 299.211L65.9633 296.458V294.183C65.9633 293.318 65.9633 292.454 65.9633 291.567L66.8969 288.586L68.2858 283.809C68.2858 282.057 68.4452 280.282 68.5135 278.531L70.7905 276.369L71.3597 272.434L69.8114 270.955L64.3922 271.66L61.0224 272.547L59.4057 276.278L57.8118 281.829L56.0814 286.903L53.349 287.54L49.501 289.292L45.5618 290.27L43.8769 286.63L40.8258 284.173L39.8922 280.009L38.0479 274.618L37.547 265.358L37.7291 258.67L39.8011 253.46L41.3039 247.568L40.6664 241.607L44.264 235.715L46.5409 235.351L49.3644 232.257L52.3699 228.776L55.6032 229.368L57.8802 230.482L60.1571 229.163L61.3184 232.302H64.3467L66.7603 231.938L66.6464 229.504L68.172 225.523L71.9062 224.999L74.6385 224.408L79.534 224.931L80.9457 228.344H82.6079L84.0196 226.342L85.5679 225.796L87.5261 228.685L89.2793 232.325C89.0744 233.758 88.8923 235.169 88.7101 236.602L89.712 239.059L89.9624 241.812L91.4652 243.791L92.1028 246.771L94.1065 248.227L93.9699 251.526L95.8825 252.231L97.317 249.956L98.6149 246.362L97.909 242.062L97.4764 235.578L95.632 229.914C95.9736 227.434 96.3607 224.954 97.1348 221.291C97.6585 220.108 98.3644 218.516 98.9109 217.355L101.962 211.918L105.56 210.166L110.25 205.98L114.576 202.795L118.493 201.044L119.699 197.972L122.955 195.993L121.567 190.874L120.314 188.599L121.703 185.801L120.679 183.321L123.821 181.638L125.346 185.278L127.623 181.569L129.9 178.339L132.177 176.246L135.615 169.421H141.012L144.974 167.146L149.14 166.622L148.753 163.961L149.892 158.478L153.694 154.246H156.905L158.544 151.971L162.779 152.108L167.333 149.833L170.567 146.602C177.876 146.329 177.876 146.329 180.266 147.763C179.811 148.081 179.219 148.491 178.786 148.855C176.831 148.823 174.875 148.93 172.935 149.173C169.2 151.653 169.2 151.653 169.064 154.724L171.159 155.793L174.187 153.518L176.464 152.222L180.289 151.084L184.433 148.946L188.463 148.058L192.22 144.418L195.727 141.87L196.729 138.981L192.471 140.005L188.782 144.555L184.069 144.805L180.699 142.962L177.534 139.845L176.851 134.499L180.858 131.724L181.792 127.492L176.942 127.174L171.159 128.834L164.328 132.383L156.973 138.23L151.554 141.643L154.218 138.48L157.884 135.113L160.161 133.475L156.153 132.315H161.709L163.986 129.426L167.857 126.764L171.614 126.537L174.119 123.306L177.58 122.078H182.452L191.56 121.805L196 122.555L199.712 122.328L203.969 119.734L208.068 116.208L214.034 115.389L217.358 114.206" fill="white"/>
</mask>
<g mask="url(#mask0_125_236)">
<path d="M51.1631 83.9482C-103.761 229.55 -103.761 375.151 51.1631 520.752" stroke="#4D4D4D" stroke-width="0.4" stroke-miterlimit="10"/>
<path d="M55.8992 79.5574C-95.8977 228.101 -95.8977 376.637 55.8992 525.166" stroke="#4D4D4D" stroke-width="0.4" stroke-miterlimit="10"/>
<path d="M60.6353 75.2578C-87.9284 226.668 -87.9284 378.071 60.6353 529.466" stroke="#4D4D4D" stroke-width="0.4" stroke-miterlimit="10"/>
<path d="M65.3713 71.0488C-80.0349 225.265 -80.0349 379.473 65.3713 533.674" stroke="#4D4D4D" stroke-width="0.4" stroke-miterlimit="10"/>
<path d="M70.1302 66.9312C-72.1339 223.892 -72.1339 380.869 70.1302 537.86" stroke="#4D4D4D" stroke-width="0.4" stroke-miterlimit="10"/>
<path d="M74.8662 62.9043C-64.2253 222.55 -64.2253 382.188 74.8662 541.819" stroke="#4D4D4D" stroke-width="0.4" stroke-miterlimit="10"/>
<path d="M79.6934 58.9231C-56.2408 221.208 -56.2408 383.493 79.6934 545.777" stroke="#4D4D4D" stroke-width="0.4" stroke-miterlimit="10"/>
<path d="M84.2473 55.1465C-48.4536 219.949 -48.4536 384.767 84.2473 549.599" stroke="#4D4D4D" stroke-width="0.4" stroke-miterlimit="10"/>
<path d="M89.0972 51.3928C-40.5374 218.698 -40.5374 386.018 89.0972 553.353" stroke="#4D4D4D" stroke-width="0.4" stroke-miterlimit="10"/>
<path d="M93.8332 47.7073C-32.6287 217.469 -32.6287 387.239 93.8332 557.016" stroke="#4D4D4D" stroke-width="0.4" stroke-miterlimit="10"/>
<path d="M98.5693 44.1355C-24.7049 216.294 -24.7049 388.437 98.5693 560.565" stroke="#4D4D4D" stroke-width="0.4" stroke-miterlimit="10"/>
<path d="M103.328 40.7229C-16.8039 215.141 -16.8039 389.612 103.328 564.137" stroke="#4D4D4D" stroke-width="0.4" stroke-miterlimit="10"/>
<path d="M108.064 37.2649C-8.91048 213.988 -8.91048 390.72 108.064 567.458" stroke="#4D4D4D" stroke-width="0.4" stroke-miterlimit="10"/>
<path d="M112.8 33.8979C-1.04739 212.866 -1.04739 391.834 112.8 570.803" stroke="#4D4D4D" stroke-width="0.4" stroke-miterlimit="10"/>
<path d="M117.536 30.7583C6.90675 211.835 6.90675 392.904 117.536 573.965" stroke="#4D4D4D" stroke-width="0.4" stroke-miterlimit="10"/>
<path d="M122.295 27.6416C14.8078 210.781 14.8078 393.927 122.295 577.082" stroke="#4D4D4D" stroke-width="0.4" stroke-miterlimit="10"/>
<path d="M127.031 24.6157C22.7012 209.772 22.7012 394.944 127.031 580.13" stroke="#4D4D4D" stroke-width="0.4" stroke-miterlimit="10"/>
<path d="M131.767 21.6809C30.6098 208.794 30.6098 395.922 131.767 583.065" stroke="#4D4D4D" stroke-width="0.4" stroke-miterlimit="10"/>
<path d="M136.617 18.8145C38.5413 207.838 38.5413 396.87 136.617 585.909" stroke="#4D4D4D" stroke-width="0.4" stroke-miterlimit="10"/>
<path d="M141.171 16.0618C46.374 206.921 46.374 397.787 141.171 588.662" stroke="#4D4D4D" stroke-width="0.4" stroke-miterlimit="10"/>
<path d="M145.998 13.4226C54.3281 206.041 54.3281 398.659 145.998 591.278" stroke="#4D4D4D" stroke-width="0.4" stroke-miterlimit="10"/>
<path d="M150.734 10.8291C62.2215 205.176 62.2215 399.539 150.734 593.917" stroke="#4D4D4D" stroke-width="0.4" stroke-miterlimit="10"/>
<path d="M155.493 8.32666C70.1226 204.342 70.1226 400.366 155.493 596.397" stroke="#4D4D4D" stroke-width="0.4" stroke-miterlimit="10"/>
<path d="M160.229 5.93774C78.0312 203.546 78.0312 401.169 160.229 598.808" stroke="#4D4D4D" stroke-width="0.4" stroke-miterlimit="10"/>
<path d="M164.965 3.64014C85.9398 202.78 85.9398 401.935 164.965 601.106" stroke="#4D4D4D" stroke-width="0.4" stroke-miterlimit="10"/>
<path d="M169.701 1.41064C93.8029 202.052 93.8029 402.686 169.701 603.313" stroke="#4D4D4D" stroke-width="0.4" stroke-miterlimit="10"/>
<path d="M174.46 -0.705322C101.734 201.332 101.734 403.384 174.46 605.451" stroke="#4D4D4D" stroke-width="0.4" stroke-miterlimit="10"/>
<path d="M179.196 -2.75269C109.643 200.649 109.643 404.059 179.196 607.476" stroke="#4D4D4D" stroke-width="0.4" stroke-miterlimit="10"/>
<path d="M183.932 -4.77759C117.476 199.974 117.476 404.726 183.932 609.478" stroke="#4D4D4D" stroke-width="0.4" stroke-miterlimit="10"/>
<path d="M188.668 -6.552C125.46 199.413 125.46 405.356 188.668 611.275" stroke="#4D4D4D" stroke-width="0.4" stroke-miterlimit="10"/>
<path d="M193.541 -8.30371C133.384 198.799 133.384 405.917 193.541 613.05" stroke="#4D4D4D" stroke-width="0.4" stroke-miterlimit="10"/>
<path d="M198.095 -9.9873C141.247 198.238 141.247 406.47 198.095 614.71" stroke="#4D4D4D" stroke-width="0.4" stroke-miterlimit="10"/>
<path d="M202.899 -11.6025C149.163 197.699 149.163 407.001 202.899 616.303" stroke="#4D4D4D" stroke-width="0.4" stroke-miterlimit="10"/>
<path d="M207.658 -13.0586C157.064 197.214 157.064 407.494 207.658 617.782" stroke="#4D4D4D" stroke-width="0.4" stroke-miterlimit="10"/>
<path d="M212.394 -14.469C164.965 194.093 164.965 410.63 212.394 619.192" stroke="#4D4D4D" stroke-width="0.4" stroke-miterlimit="10"/>
<path d="M217.13 -15.7659C172.866 194.021 172.866 410.725 217.13 620.512" stroke="#4D4D4D" stroke-width="0.4" stroke-miterlimit="10"/>
<path d="M221.866 -16.9944C180.767 193.93 180.767 410.794 221.866 621.717" stroke="#4D4D4D" stroke-width="0.4" stroke-miterlimit="10"/>
<path d="M226.625 -18.1318C188.668 193.848 188.668 410.876 226.625 622.855" stroke="#4D4D4D" stroke-width="0.4" stroke-miterlimit="10"/>
<path d="M231.361 -19.1555C196.592 193.789 196.592 410.957 231.361 623.902" stroke="#4D4D4D" stroke-width="0.4" stroke-miterlimit="10"/>
<path d="M236.097 -20.1111C204.493 193.711 204.493 411.012 236.097 624.834" stroke="#4D4D4D" stroke-width="0.4" stroke-miterlimit="10"/>
<path d="M240.833 -20.9756C212.394 193.646 212.394 411.077 240.833 625.699" stroke="#4D4D4D" stroke-width="0.4" stroke-miterlimit="10"/>
<path d="M245.592 -21.7493C220.295 193.585 220.295 411.137 245.592 626.472" stroke="#4D4D4D" stroke-width="0.4" stroke-miterlimit="10"/>
<path d="M250.328 -22.4089C228.196 193.548 228.196 411.198 250.328 627.155" stroke="#4D4D4D" stroke-width="0.4" stroke-miterlimit="10"/>
<path d="M255.019 -22.9778C236.057 193.494 236.057 411.206 255.019 627.678" stroke="#4D4D4D" stroke-width="0.4" stroke-miterlimit="10"/>
<path d="M259.8 -23.501C243.998 193.454 243.998 411.269 259.8 628.224" stroke="#4D4D4D" stroke-width="0.4" stroke-miterlimit="10"/>
<path d="M264.559 -23.9104C251.899 193.42 251.899 411.303 264.559 628.634" stroke="#4D4D4D" stroke-width="0.4" stroke-miterlimit="10"/>
<path d="M269.295 -24.229C259.778 193.49 259.778 411.217 269.295 628.952" stroke="#4D4D4D" stroke-width="0.4" stroke-miterlimit="10"/>
<path d="M274.031 -24.4565C267.701 193.43 267.701 411.308 274.031 629.179" stroke="#4D4D4D" stroke-width="0.4" stroke-miterlimit="10"/>
<path d="M278.767 -24.593C275.625 193.384 275.625 411.354 278.767 629.316" stroke="#4D4D4D" stroke-width="0.4" stroke-miterlimit="10"/>
<path d="M283.526 -24.6384V629.362" stroke="#4D4D4D" stroke-width="0.4" stroke-miterlimit="10"/>
<path d="M288.262 -24.593C291.435 193.384 291.435 411.354 288.262 629.316" stroke="#4D4D4D" stroke-width="0.4" stroke-miterlimit="10"/>
<path d="M292.998 -24.4565C299.328 193.43 299.328 411.308 292.998 629.179" stroke="#4D4D4D" stroke-width="0.4" stroke-miterlimit="10"/>
<path d="M297.734 -24.229C307.237 193.49 307.237 411.217 297.734 628.952" stroke="#4D4D4D" stroke-width="0.4" stroke-miterlimit="10"/>
<path d="M302.493 -23.9104C315.13 193.421 315.13 411.302 302.493 628.634" stroke="#4D4D4D" stroke-width="0.4" stroke-miterlimit="10"/>
<path d="M307.229 -23.501C323.031 193.454 323.031 411.269 307.229 628.224" stroke="#4D4D4D" stroke-width="0.4" stroke-miterlimit="10"/>
<path d="M311.943 -22.9778C330.904 193.494 330.904 411.206 311.943 627.678" stroke="#4D4D4D" stroke-width="0.4" stroke-miterlimit="10"/>
<path d="M316.724 -22.4089C338.833 193.549 338.833 411.197 316.724 627.155" stroke="#4D4D4D" stroke-width="0.4" stroke-miterlimit="10"/>
<path d="M321.46 -21.7493C346.734 193.587 346.734 411.136 321.46 626.472" stroke="#4D4D4D" stroke-width="0.4" stroke-miterlimit="10"/>
<path d="M326.196 -20.9756C354.658 193.645 354.658 411.079 326.196 625.699" stroke="#4D4D4D" stroke-width="0.4" stroke-miterlimit="10"/>
<path d="M330.932 -20.1111C362.559 193.709 362.559 411.014 330.932 624.834" stroke="#4D4D4D" stroke-width="0.4" stroke-miterlimit="10"/>
<path d="M335.691 -19.1555C370.46 193.789 370.46 410.957 335.691 623.902" stroke="#4D4D4D" stroke-width="0.4" stroke-miterlimit="10"/>
<path d="M340.427 -18.1318C378.361 193.85 378.361 410.874 340.427 622.855" stroke="#4D4D4D" stroke-width="0.4" stroke-miterlimit="10"/>
<path d="M345.163 -16.9944C386.262 193.93 386.262 410.794 345.163 621.717" stroke="#4D4D4D" stroke-width="0.4" stroke-miterlimit="10"/>
<path d="M349.899 -15.7659C394.163 194.021 394.163 410.725 349.899 620.512" stroke="#4D4D4D" stroke-width="0.4" stroke-miterlimit="10"/>
<path d="M354.658 -14.469C402.064 194.096 402.064 410.627 354.658 619.192" stroke="#4D4D4D" stroke-width="0.4" stroke-miterlimit="10"/>
<path d="M359.394 -13.0586C409.988 197.229 409.988 407.509 359.394 617.782" stroke="#4D4D4D" stroke-width="0.4" stroke-miterlimit="10"/>
<path d="M364.13 -11.6025C417.897 197.699 417.897 407.001 364.13 616.303" stroke="#4D4D4D" stroke-width="0.4" stroke-miterlimit="10"/>
<path d="M368.866 -9.9873C425.79 198.238 425.79 406.47 368.866 614.71" stroke="#4D4D4D" stroke-width="0.4" stroke-miterlimit="10"/>
<path d="M373.625 -8.30371C433.691 198.814 433.691 405.932 373.625 613.05" stroke="#4D4D4D" stroke-width="0.4" stroke-miterlimit="10"/>
<path d="M378.361 -6.552C441.6 199.413 441.6 405.356 378.361 611.275" stroke="#4D4D4D" stroke-width="0.4" stroke-miterlimit="10"/>
<path d="M383.097 -4.77759C449.509 199.974 449.509 404.726 383.097 609.478" stroke="#4D4D4D" stroke-width="0.4" stroke-miterlimit="10"/>
<path d="M387.856 -2.75269C457.394 200.664 457.394 404.074 387.856 607.476" stroke="#4D4D4D" stroke-width="0.4" stroke-miterlimit="10"/>
<path d="M392.592 -0.705322C465.303 201.332 465.303 403.384 392.592 605.451" stroke="#4D4D4D" stroke-width="0.4" stroke-miterlimit="10"/>
<path d="M397.328 1.41064C473.227 202.052 473.227 402.686 397.328 603.313" stroke="#4D4D4D" stroke-width="0.4" stroke-miterlimit="10"/>
<path d="M402.064 3.61743C481.09 202.788 481.09 401.951 402.064 601.106" stroke="#4D4D4D" stroke-width="0.4" stroke-miterlimit="10"/>
<path d="M406.823 5.93774C489.021 203.546 489.021 401.169 406.823 598.808" stroke="#4D4D4D" stroke-width="0.4" stroke-miterlimit="10"/>
<path d="M411.559 8.32666C496.945 204.342 496.945 400.366 411.559 596.397" stroke="#4D4D4D" stroke-width="0.4" stroke-miterlimit="10"/>
<path d="M416.295 10.8291C504.823 205.192 504.823 399.554 416.295 593.917" stroke="#4D4D4D" stroke-width="0.4" stroke-miterlimit="10"/>
<path d="M421.031 13.4226C512.732 206.041 512.732 398.659 421.031 591.278" stroke="#4D4D4D" stroke-width="0.4" stroke-miterlimit="10"/>
<path d="M425.79 16.0618C520.633 206.921 520.633 397.787 425.79 588.662" stroke="#4D4D4D" stroke-width="0.4" stroke-miterlimit="10"/>
<path d="M430.526 18.8145C528.526 207.853 528.526 396.885 430.526 585.909" stroke="#4D4D4D" stroke-width="0.4" stroke-miterlimit="10"/>
<path d="M435.262 21.6809C536.435 208.809 536.435 395.937 435.262 583.065" stroke="#4D4D4D" stroke-width="0.4" stroke-miterlimit="10"/>
<path d="M440.021 24.6157C544.382 209.772 544.382 394.944 440.021 580.13" stroke="#4D4D4D" stroke-width="0.4" stroke-miterlimit="10"/>
<path d="M444.757 27.6416C552.229 210.781 552.229 393.927 444.757 577.082" stroke="#4D4D4D" stroke-width="0.4" stroke-miterlimit="10"/>
<path d="M449.493 30.7583C560.138 211.835 560.138 392.904 449.493 573.965" stroke="#4D4D4D" stroke-width="0.4" stroke-miterlimit="10"/>
<path d="M454.229 33.8979C568.077 212.866 568.077 391.834 454.229 570.803" stroke="#4D4D4D" stroke-width="0.4" stroke-miterlimit="10"/>
<path d="M458.988 37.2649C575.948 214.004 575.948 390.735 458.988 567.458" stroke="#4D4D4D" stroke-width="0.4" stroke-miterlimit="10"/>
<path d="M463.724 40.7229C583.856 215.141 583.856 389.612 463.724 564.137" stroke="#4D4D4D" stroke-width="0.4" stroke-miterlimit="10"/>
<path d="M468.46 44.1355C591.75 216.294 591.75 388.437 468.46 560.565" stroke="#4D4D4D" stroke-width="0.4" stroke-miterlimit="10"/>
<path d="M473.196 47.7073C599.658 217.5 599.658 387.269 473.196 557.016" stroke="#4D4D4D" stroke-width="0.4" stroke-miterlimit="10"/>
<path d="M477.955 51.3701C607.559 218.705 607.559 386.033 477.955 553.353" stroke="#4D4D4D" stroke-width="0.4" stroke-miterlimit="10"/>
<path d="M482.714 55.1238C615.476 219.941 615.476 384.767 482.714 549.599" stroke="#4D4D4D" stroke-width="0.4" stroke-miterlimit="10"/>
<path d="M487.427 58.9231C623.392 221.208 623.392 383.493 487.427 545.777" stroke="#4D4D4D" stroke-width="0.4" stroke-miterlimit="10"/>
<path d="M492.163 62.9043C631.285 222.55 631.285 382.188 492.163 541.819" stroke="#4D4D4D" stroke-width="0.4" stroke-miterlimit="10"/>
<path d="M496.922 66.9312C639.186 223.892 639.186 380.869 496.922 537.86" stroke="#4D4D4D" stroke-width="0.4" stroke-miterlimit="10"/>
<path d="M501.658 71.0488C647.095 225.25 647.095 379.458 501.658 533.674" stroke="#4D4D4D" stroke-width="0.4" stroke-miterlimit="10"/>
<path d="M506.394 75.2578C654.988 226.668 654.988 378.071 506.394 529.466" stroke="#4D4D4D" stroke-width="0.4" stroke-miterlimit="10"/>
<path d="M511.13 79.5574C662.927 228.101 662.927 376.645 511.13 525.188" stroke="#4D4D4D" stroke-width="0.4" stroke-miterlimit="10"/>
<path d="M515.889 83.9482C670.722 229.55 670.722 375.151 515.889 520.752" stroke="#4D4D4D" stroke-width="0.4" stroke-miterlimit="10"/>
</g>
</svg>
