<svg xmlns="http://www.w3.org/2000/svg" width="43" height="43" viewBox="0 0 43 43" fill="none">
  <path d="M32.9167 17.177C32.9167 17.892 32.3542 18.477 31.6667 18.477H13.3334C12.6459 18.477 12.0834 17.892 12.0834 17.177V17.1662C12.0834 14.6853 14.0105 12.6812 16.3959 12.6812H28.5938C30.9792 12.6812 32.9167 14.6962 32.9167 17.177ZM12.0834 21.4042V26.8317C12.0834 29.3125 14.0105 31.3167 16.3959 31.3167H28.5938C30.9792 31.3167 32.9167 29.3017 32.9167 26.8208V21.4042C32.9167 20.6892 32.3542 20.1042 31.6667 20.1042H13.3334C12.6459 20.1042 12.0834 20.6892 12.0834 21.4042ZM18.3334 27.6875H16.25C15.823 27.6875 15.4688 27.3192 15.4688 26.875C15.4688 26.4308 15.823 26.0625 16.25 26.0625H18.3334C18.7605 26.0625 19.1146 26.4308 19.1146 26.875C19.1146 27.3192 18.7605 27.6875 18.3334 27.6875ZM25.1042 27.6875H20.9375C20.5105 27.6875 20.1563 27.3192 20.1563 26.875C20.1563 26.4308 20.5105 26.0625 20.9375 26.0625H25.1042C25.5313 26.0625 25.8855 26.4308 25.8855 26.875C25.8855 27.3192 25.5313 27.6875 25.1042 27.6875Z" fill="#6953D3"/>
  <circle cx="21.5" cy="21.5" r="21.5" fill="#6953D3" fill-opacity="0.1"/>
</svg>