<svg width="85" height="85" viewBox="0 0 85 85" fill="none" xmlns="http://www.w3.org/2000/svg">
<path fill-rule="evenodd" clip-rule="evenodd" d="M59.5941 61.5339L60.5883 61.5415L61.5597 61.5628L62.5069 61.5977L63.4267 61.6478L64.3192 61.7115L65.1798 61.7874L65.5988 61.8329L66.4108 61.9301L67.188 62.0424L67.5629 62.1031L68.2823 62.2367C68.5146 62.2822 68.7422 62.3308 68.9608 62.3824L69.5983 62.5418C71.8493 63.1489 73.2002 64.0293 73.2002 65.157C73.2002 66.0253 72.4018 66.7447 71.0099 67.3079L67.8027 74.5071V76.6821C67.8027 77.7264 67.0104 78.5855 65.9919 78.6887L65.787 78.6994H53.4013C52.9023 78.699 52.4211 78.5137 52.0508 78.1792C51.6805 77.8448 51.4472 77.3849 51.3962 76.8886L51.3855 76.6821V74.5071L48.1783 67.3079C46.7864 66.7447 45.988 66.0253 45.988 65.157C45.988 64.0278 47.3389 63.1504 49.5914 62.5418L50.2289 62.3824C50.4475 62.3308 50.6737 62.2822 50.9059 62.2367L51.6254 62.1031C51.9957 62.0409 52.3797 61.9832 52.7774 61.9301L53.5895 61.8329L54.0084 61.7874L54.869 61.7115L55.7615 61.6478L56.6829 61.5977L57.6285 61.5628L58.5999 61.5415L59.5941 61.5339ZM68.7134 67.9879C68.0106 68.1427 67.2411 68.2747 66.4108 68.3825L65.5988 68.4827L64.7533 68.5662L63.876 68.6375L62.9698 68.6937L62.0363 68.7362L61.0771 68.765L60.5883 68.7741L59.5941 68.7817L58.5999 68.7741C58.4375 68.7717 58.2751 68.7686 58.1127 68.765L57.1534 68.7362L56.2184 68.6937L55.3122 68.6375L54.4349 68.5662L53.5895 68.4827L52.7774 68.384C52.6463 68.3666 52.5152 68.3483 52.3843 68.3294L51.6254 68.211C51.2402 68.1457 50.8565 68.0713 50.4748 67.9879L52.8852 73.4021H59.5941C59.8244 73.3998 60.0469 73.4849 60.217 73.6402C60.3871 73.7955 60.492 74.0094 60.5106 74.2389C60.5293 74.4684 60.4603 74.6965 60.3176 74.8772C60.1748 75.0579 59.969 75.1778 59.7414 75.2129L59.5941 75.225L53.2055 75.2235V76.6806C53.2056 76.722 53.2187 76.7622 53.2429 76.7957C53.2672 76.8292 53.3013 76.8543 53.3405 76.8673L53.4013 76.8779H65.787C65.8281 76.8777 65.8682 76.8646 65.9014 76.8403C65.9346 76.8161 65.9594 76.782 65.9722 76.7429L65.9813 76.6821V74.12L68.7134 67.9879ZM45.3141 35.4784L45.6587 35.7455L48.1692 37.8781L49.388 38.8769L49.7022 39.1228C52.0595 40.9229 54.2771 42.1221 56.4992 42.6245L56.5447 42.6351L56.613 42.6579L56.4992 42.6245C56.7006 42.6707 56.8805 42.7838 57.0095 42.9453C57.1385 43.1068 57.209 43.3072 57.2096 43.5139C57.2096 50.789 56.4886 55.6887 54.4319 60.4122C54.384 60.5219 54.3151 60.621 54.2289 60.704C54.1428 60.7869 54.0411 60.8521 53.9298 60.8958C53.8184 60.9395 53.6996 60.9609 53.58 60.9586C53.4604 60.9564 53.3424 60.9306 53.2328 60.8828C53.1231 60.8349 53.024 60.766 52.941 60.6798C52.8581 60.5937 52.7929 60.492 52.7492 60.3807C52.7055 60.2693 52.6841 60.1505 52.6864 60.0309C52.6886 59.9113 52.7144 59.7933 52.7622 59.6837C54.6353 55.382 55.3411 50.8755 55.3851 44.2167C53.1174 43.5777 50.9044 42.3315 48.5972 40.5708L48.0842 40.1671L47.2464 39.4795L44.5021 37.1511C36.503 30.8292 26.646 35.0595 26.9905 43.5534C27.3032 51.2125 28.7239 58.8837 31.8234 63.832C34.0288 67.2198 37.4972 69.2052 41.1704 69.2052C43.0006 69.1997 44.7974 68.714 46.3812 67.7966C46.5909 67.6766 46.8397 67.6449 47.0728 67.7084C47.306 67.7719 47.5043 67.9254 47.6243 68.1351C47.7443 68.3448 47.776 68.5936 47.7125 68.8268C47.649 69.0599 47.4955 69.2582 47.2858 69.3782C45.4265 70.453 43.3179 71.0214 41.1704 71.0266C36.8657 71.0266 32.8297 68.7164 30.2873 64.811C26.9617 59.5015 25.4955 51.5874 25.1722 43.6278C24.7623 33.6175 36.1963 28.5934 45.3141 35.4769V35.4784ZM60.0449 63.3569H59.1433L58.6971 63.3629L57.8152 63.3857L56.95 63.4221L56.1061 63.4707L55.2864 63.5314L54.4911 63.6012L53.7276 63.6817L52.996 63.7697L52.6438 63.8153L51.9669 63.9139L51.3294 64.0171L50.7359 64.1264L50.1895 64.2372L49.6886 64.3511L49.4594 64.4072L49.0389 64.5226L48.6747 64.6364L48.3711 64.7487L48.1297 64.858C47.9203 64.9643 47.8095 65.066 47.8095 65.157C47.8095 65.2937 48.0599 65.4546 48.5168 65.6215L48.7627 65.7035C49.0055 65.6762 49.2484 65.749 49.4366 65.8993L49.4594 65.9069L49.933 66.0207L50.4566 66.133L51.0273 66.2423L51.9684 66.4002L52.6438 66.4988L53.7276 66.6339L54.4926 66.7129L55.2864 66.7842L55.6932 66.8146L56.525 66.8707L57.3796 66.9132L58.2539 66.9436L59.1433 66.9587H60.0449L60.9344 66.9436L61.3746 66.9284L62.2397 66.8935L63.0822 66.8449L63.9018 66.7842L64.6956 66.7129L65.4606 66.6339L66.1922 66.5459L66.8874 66.4503L67.5447 66.3486L68.1609 66.2423L68.7316 66.133L69.2553 66.0207L69.7288 65.9069L69.7516 65.9008C69.8456 65.8244 69.9539 65.7676 70.0702 65.7337C70.1864 65.6998 70.3083 65.6895 70.4286 65.7035L70.6714 65.6215C71.1283 65.4546 71.3788 65.2937 71.3788 65.157C71.3788 65.066 71.268 64.9643 71.0585 64.858L70.8156 64.7487L70.5121 64.6364L70.1493 64.5226C70.0817 64.5028 70.0139 64.4835 69.9459 64.4649L69.4997 64.3511C69.4188 64.3313 69.3379 64.3121 69.2568 64.2934L68.7316 64.1811L68.1609 64.0718L67.5447 63.9655L66.8874 63.8638L66.1922 63.7697L65.4606 63.6817L64.6972 63.6012L63.9033 63.5299L63.0837 63.4692L62.2382 63.4221L61.373 63.3857C61.2268 63.3806 61.0806 63.376 60.9344 63.3721L60.0449 63.3569ZM51.9001 19.3011C52.1139 19.4138 52.2741 19.6068 52.3455 19.8377C52.417 20.0685 52.3938 20.3183 52.2811 20.5321C52.1684 20.7458 51.9753 20.906 51.7445 20.9775C51.5136 21.0489 51.2639 21.0258 51.0501 20.913C41.1476 15.6992 27.9392 19.2479 23.5192 29.1262L23.4069 29.3812L23.1944 29.8972L23.0942 30.1583L22.903 30.6911C22.8422 30.8732 22.7815 31.0554 22.7238 31.2451L22.5554 31.8249C22.5265 31.9251 22.5007 32.0253 22.4734 32.1285L22.3171 32.7614L22.1653 33.4384L22.018 34.1654L21.8723 34.9487L21.7281 35.7956L21.508 37.1981L21.1984 39.352L20.8599 41.8063L20.693 42.9508L20.526 44.0163L20.359 45.006L20.1921 45.9288L20.0175 46.791L19.8384 47.5985L19.7473 47.984L19.5546 48.7217C19.49 48.956 19.4217 49.1893 19.3497 49.4214L19.1326 50.0893C18.9459 50.6342 18.7425 51.1518 18.5194 51.6603L18.2386 52.2674C16.6737 55.5187 14.3225 57.6254 10.9529 58.4891L10.6645 58.5589L10.921 58.8686C11.3111 59.3209 11.7467 59.7687 12.2294 60.2043L12.7272 60.6323C15.8297 63.1914 19.7276 64.4194 24.5104 63.5997C24.7485 63.5591 24.993 63.6147 25.1901 63.7543C25.3872 63.8939 25.5208 64.1061 25.5615 64.3442C25.6021 64.5824 25.5465 64.8269 25.4069 65.024C25.2673 65.2211 25.0551 65.3547 24.817 65.3954C19.4817 66.3106 15.0587 64.9157 11.5691 62.0379C10.6674 61.2963 9.84631 60.462 9.11929 59.5486L8.80054 59.1327L8.54706 58.776L8.35885 58.4876L8.28751 58.3707L7.58929 57.1746L8.96599 57.0077C13.773 56.4309 16.1637 54.057 17.7225 48.365L17.9396 47.5302C18.0458 47.0991 18.1475 46.6529 18.2462 46.1884L18.4389 45.2352L18.533 44.7404L18.7152 43.7128L18.8897 42.6366L19.0597 41.5088L19.5591 37.9312L19.7155 36.8642L19.8672 35.8776L20.0949 34.5358L20.2467 33.7207L20.4015 32.9648L20.5624 32.256L20.6444 31.919L20.8159 31.2724L20.9039 30.9613L21.0906 30.3617L21.2895 29.7819L21.5035 29.2172L21.7342 28.6602L21.8556 28.3824C26.731 17.4857 41.1127 13.6228 51.9001 19.3011ZM62.944 39.2518L63.2279 41.3039L63.3994 42.4423L63.577 43.5321L63.668 44.0588L63.8563 45.0743C63.9215 45.4037 63.9868 45.727 64.0536 46.0412L64.263 46.9625L64.4831 47.8368C66.0207 53.6547 68.4038 56.2943 73.059 56.9621L73.4051 57.0077L74.7818 57.1746L74.0836 58.3707L73.9197 58.6348L73.6798 58.9824C72.9718 59.9579 72.159 60.8527 71.2558 61.6508C71.1661 61.73 71.0617 61.7908 70.9485 61.8297C70.8353 61.8686 70.7156 61.8848 70.5961 61.8774C70.4767 61.87 70.3598 61.8391 70.2523 61.7866C70.1448 61.734 70.0487 61.6608 69.9694 61.5711C69.8902 61.4814 69.8294 61.377 69.7905 61.2638C69.7517 61.1506 69.7355 61.0309 69.7429 60.9114C69.7503 60.792 69.7811 60.6751 69.8337 60.5676C69.8862 60.4601 69.9594 60.364 70.0491 60.2847C70.6058 59.7931 71.1249 59.2603 71.6019 58.691L71.696 58.5696L71.3469 58.4921C66.1558 57.2445 63.7272 53.4756 62.1881 46.0093L61.9832 44.9696C61.9496 44.7901 61.9167 44.6105 61.8846 44.4307L61.6948 43.3196L61.5127 42.1615L61.1393 39.4977C61.1067 39.2582 61.1706 39.0155 61.3169 38.8231C61.4632 38.6306 61.6799 38.5042 61.9195 38.4716C62.159 38.439 62.4017 38.5029 62.5941 38.6492C62.7865 38.7955 62.9114 39.0123 62.944 39.2518ZM61.8193 22.8589C61.971 22.7079 62.1522 22.5898 62.3515 22.5119C62.5509 22.434 62.7641 22.398 62.978 22.4061C63.1919 22.4142 63.4018 22.4663 63.5947 22.5591C63.7876 22.6519 63.9593 22.7834 64.0991 22.9454L64.3572 23.2566C67.0832 26.69 67.1986 31.4075 64.6425 34.5996L73.5129 43.4699C73.6748 43.6305 73.7707 43.8459 73.7815 44.0737C73.7922 44.3015 73.7171 44.5251 73.571 44.7002C73.4249 44.8753 73.2184 44.9892 72.9924 45.0194C72.7663 45.0496 72.5371 44.9939 72.3502 44.8633L72.2242 44.7571L63.3538 35.8882C60.0662 38.5232 55.1544 38.3183 51.7013 35.3463C51.5388 35.2066 51.4069 35.0349 51.3138 34.8419C51.2207 34.6488 51.1685 34.4387 51.1604 34.2245C51.1523 34.0104 51.1884 33.7969 51.2666 33.5974C51.3448 33.3979 51.4633 33.2166 51.6147 33.065L61.8193 22.8589ZM62.8985 24.3525L53.1083 34.1457L53.1842 34.2064C56.0651 36.468 59.9948 36.4726 62.4917 34.2307L62.7452 33.9909C65.3073 31.4287 65.3028 27.1347 62.7194 24.1339L62.8985 24.3525ZM48.4105 27.2L48.5365 27.3062L52.1187 30.8869C52.2807 31.0474 52.3765 31.2629 52.3873 31.4907C52.398 31.7185 52.3229 31.9421 52.1768 32.1172C52.0307 32.2923 51.8242 32.4062 51.5982 32.4364C51.3721 32.4666 51.1429 32.4109 50.956 32.2803L50.83 32.174L47.2479 28.5934C47.0859 28.4328 46.99 28.2174 46.9793 27.9896C46.9685 27.7618 47.0436 27.5382 47.1897 27.3631C47.3358 27.188 47.5423 27.0741 47.7684 27.0439C47.9944 27.0137 48.2236 27.0694 48.4105 27.2ZM50.613 24.9976L50.7389 25.1038L54.3211 28.6845C54.4831 28.845 54.5789 29.0605 54.5897 29.2883C54.6004 29.5161 54.5253 29.7397 54.3792 29.9148C54.2331 30.0899 54.0266 30.2038 53.8006 30.234C53.5745 30.2642 53.3454 30.2085 53.1584 30.0779L53.0324 29.9716L49.4503 26.3895C49.2903 26.2285 49.1963 26.0136 49.1865 25.7868C49.1767 25.5601 49.2519 25.3379 49.3974 25.1638C49.5429 24.9896 49.7482 24.876 49.973 24.8453C50.1978 24.8145 50.4261 24.8689 50.613 24.9976ZM52.8154 22.7952L52.9429 22.8999L56.525 26.4821C56.685 26.643 56.779 26.8579 56.7888 27.0847C56.7986 27.3114 56.7234 27.5336 56.5779 27.7078C56.4324 27.8819 56.2271 27.9955 56.0023 28.0262C55.7774 28.057 55.5492 28.0027 55.3623 27.8739L55.2363 27.7692L51.6542 24.1871C51.4957 24.0259 51.4028 23.8115 51.3935 23.5857C51.3843 23.3598 51.4593 23.1386 51.6041 22.965C51.749 22.7914 51.9531 22.6779 52.177 22.6465C52.4009 22.6151 52.6284 22.6681 52.8154 22.7952ZM55.0193 20.5912L55.1453 20.6975L58.7274 24.2796C58.8874 24.4406 58.9814 24.6555 58.9912 24.8823C59.001 25.109 58.9258 25.3312 58.7803 25.5053C58.6348 25.6795 58.4295 25.7931 58.2047 25.8238C57.9799 25.8546 57.7516 25.8002 57.5647 25.6715L57.4388 25.5653L53.8566 21.9846C53.6946 21.8241 53.5988 21.6086 53.588 21.3808C53.5773 21.153 53.6524 20.9295 53.7985 20.7543C53.9446 20.5792 54.1511 20.4653 54.3771 20.4351C54.6032 20.4049 54.8323 20.4606 55.0193 20.5912ZM57.2217 18.3904L57.3477 18.4936L60.9298 22.0757C61.0918 22.2363 61.1877 22.4517 61.1984 22.6795C61.2092 22.9074 61.1341 23.1309 60.988 23.306C60.8419 23.4811 60.6354 23.595 60.4093 23.6252C60.1833 23.6554 59.9541 23.5997 59.7672 23.4691L59.6412 23.3629L56.059 19.7822C55.897 19.6217 55.8012 19.4062 55.7904 19.1784C55.7797 18.9506 55.8548 18.727 56.0009 18.5519C56.147 18.3768 56.3535 18.2629 56.5795 18.2327C56.8056 18.2025 57.0348 18.2582 57.2217 18.3888V18.3904Z" fill="#101928"/>
</svg>
