<svg width="77" height="77" viewBox="0 0 77 77" fill="none" xmlns="http://www.w3.org/2000/svg">
<g clip-path="url(#clip0_125_224)">
<path fill-rule="evenodd" clip-rule="evenodd" d="M72.3712 18.9445C83.1715 37.651 76.7622 61.571 58.0555 72.3712C39.349 83.1715 15.429 76.7622 4.62876 58.0555C-6.17148 39.349 0.237826 15.429 18.9445 4.62876C37.651 -6.17148 61.571 0.237826 72.3712 18.9445Z" fill="url(#paint0_linear_125_224)"/>
<path d="M63.3265 32.4196V58.868C63.3265 59.2965 62.9792 59.6439 62.5507 59.6439H14.4497C14.0212 59.6439 13.6738 59.2965 13.6738 58.868V32.2319C13.6738 31.8034 14.0212 31.4561 14.4497 31.4561C14.6108 31.4561 14.7606 31.5052 14.8847 31.5894L38.5786 45.3153L62.1654 31.7434C62.5368 31.5297 63.0095 31.6547 63.2231 32.0261C63.2946 32.1502 63.3278 32.286 63.3265 32.4196ZM61.7749 58.0922V33.7507L39.0248 46.841C38.7848 47.0111 38.458 47.0367 38.1868 46.8796L15.2255 33.5758V58.0922L61.7749 58.0922Z" fill="white"/>
<path d="M14.0586 31.5651C13.6904 31.7809 13.5669 32.2545 13.7828 32.6227C13.9986 32.991 14.4722 33.1144 14.8405 32.8985L38.4217 19.0304L62.1567 33.0797C62.5249 33.2973 62.9999 33.1752 63.2174 32.807C63.435 32.4388 63.3129 31.9638 62.9447 31.7462L38.8609 17.4905C38.6206 17.3274 38.2982 17.3064 38.0313 17.4634L14.0586 31.5651Z" fill="white"/>
</g>
<defs>
<linearGradient id="paint0_linear_125_224" x1="15.9218" y1="-0.606651" x2="61.0784" y2="77.6068" gradientUnits="userSpaceOnUse">
<stop stop-color="#444FF5"/>
<stop offset="0.490196" stop-color="#21BFDB"/>
<stop offset="1" stop-color="#1DABB6"/>
</linearGradient>
<clipPath id="clip0_125_224">
<rect width="77" height="77" fill="white"/>
</clipPath>
</defs>
</svg>
