<svg width="77" height="77" viewBox="0 0 77 77" fill="none" xmlns="http://www.w3.org/2000/svg">
<g clip-path="url(#clip0_125_218)">
<path fill-rule="evenodd" clip-rule="evenodd" d="M72.3712 18.9445C83.1715 37.651 76.7622 61.571 58.0555 72.3712C39.349 83.1715 15.429 76.7622 4.62876 58.0555C-6.17148 39.349 0.237826 15.429 18.9445 4.62876C37.651 -6.17148 61.571 0.237826 72.3712 18.9445Z" fill="url(#paint0_linear_125_218)"/>
<path d="M38.5005 23.02C42.7762 23.02 46.6471 24.7531 49.4491 27.5552C52.2512 30.3572 53.9843 34.2281 53.9843 38.5038C53.9843 42.7795 52.2512 46.6504 49.4491 49.4524C46.6471 52.2545 42.7762 53.9876 38.5005 53.9876C34.2248 53.9876 30.3539 52.2545 27.5519 49.4524C24.7498 46.6504 23.0167 42.7795 23.0167 38.5038C23.0167 34.2281 24.7498 30.3572 27.5519 27.5552C30.3539 24.7531 34.2248 23.02 38.5005 23.02ZM48.3701 28.6342C45.8444 26.1084 42.3549 24.5461 38.5005 24.5461C34.6461 24.5461 31.1566 26.1084 28.6309 28.6342C26.1051 31.1599 24.5428 34.6494 24.5428 38.5038C24.5428 42.3582 26.1051 45.8477 28.6309 48.3734C31.1566 50.8992 34.6461 52.4615 38.5005 52.4615C42.3549 52.4615 45.8444 50.8992 48.3701 48.3734C50.8959 45.8477 52.4582 42.3582 52.4582 38.5038C52.4582 34.6494 50.8959 31.1599 48.3701 28.6342Z" fill="white"/>
<path d="M38.6903 18.2419L43.8133 14.4321L44.5383 13.8929L44.9459 14.7003L47.9285 20.6095L54.2356 19.6167L55.1262 19.4765L55.1118 20.3797L55.0067 26.9965L61.052 29.0482L61.9083 29.3388L61.4752 30.1332L58.3067 35.9438L62.706 40.5699L63.3292 41.2252L62.5779 41.7264L57.0714 45.3994L58.8177 51.5425L59.0643 52.4101L58.1619 52.5052L51.5824 53.1983L50.2746 59.4451L50.0892 60.3304L49.2492 59.9965L43.098 57.5512L39.0366 62.4753L38.4604 63.1739L37.8712 62.4872L33.5636 57.4664L27.6778 59.9396L26.8437 60.2901L26.6406 59.4061L25.1595 52.9578L18.802 52.4126L17.8976 52.3351L18.1284 51.4588L19.8145 45.0574L14.4381 41.62L13.6764 41.1329L14.286 40.4664L18.7528 35.5832L15.587 30.0364L15.1402 29.2534L15.9924 28.9455L22.2155 26.6979L21.9902 20.3176L21.9583 19.4137L22.8516 19.5367L29.4117 20.4392L32.176 14.6875L32.5685 13.8711L33.3028 14.3954L38.6903 18.2419ZM43.9943 16.1934L39.1523 19.7943L38.7082 20.1246L38.2581 19.8032L33.1547 16.1596L30.5418 21.5963L30.3009 22.0976L29.7549 22.0225L23.5423 21.1677L23.7552 27.1974L23.7748 27.7506L23.2515 27.9396L17.3574 30.0684L20.3493 35.3108L20.6226 35.7896L20.248 36.199L16.0165 40.8252L21.1 44.0754L21.5688 44.3751L21.4279 44.91L19.8316 50.9701L25.8397 51.4852L26.3946 51.5328L26.5192 52.0754L27.9219 58.1822L33.4838 55.8451L33.9941 55.6307L34.3571 56.0538L38.4385 60.811L42.2767 56.1575L42.6298 55.7294L43.1441 55.9339L48.9696 58.2497L50.2059 52.3445L50.3197 51.8008L50.8735 51.7425L57.1046 51.0862L55.4543 45.2805L55.3035 44.7502L55.7643 44.4429L60.9801 40.9637L56.8223 36.5916L56.4405 36.1902L56.706 35.7034L59.7068 30.2002L53.9934 28.2611L53.469 28.0831L53.4778 27.5278L53.5774 21.2591L47.6147 22.1977L47.0683 22.2838L46.8188 21.7894L43.9943 16.1934Z" fill="white"/>
<path d="M31.1005 38.4497C30.8026 38.1518 30.3194 38.1518 30.0215 38.4497C29.7236 38.7477 29.7236 39.2308 30.0215 39.5287L34.43 43.9372C34.7279 44.2352 35.211 44.2352 35.509 43.9373L46.2946 33.1516C46.5926 32.8537 46.5926 32.3705 46.2946 32.0726C45.9967 31.7746 45.5136 31.7746 45.2156 32.0726L34.9695 42.3187L31.1005 38.4497Z" fill="white"/>
</g>
<defs>
<linearGradient id="paint0_linear_125_218" x1="15.9218" y1="-0.606651" x2="61.0784" y2="77.6068" gradientUnits="userSpaceOnUse">
<stop stop-color="#444FF5"/>
<stop offset="0.490196" stop-color="#21BFDB"/>
<stop offset="1" stop-color="#1DABB6"/>
</linearGradient>
<clipPath id="clip0_125_218">
<rect width="77" height="77" fill="white"/>
</clipPath>
</defs>
</svg>
