<svg width="22" height="22" viewBox="0 0 22 22" fill="none" xmlns="http://www.w3.org/2000/svg">
<path d="M11.1467 9.96426C11.055 9.95509 10.945 9.95509 10.8442 9.96426C9.79203 9.92854 8.7951 9.48469 8.06451 8.72672C7.33391 7.96875 6.92703 6.95617 6.93001 5.90343C6.93001 3.65759 8.74501 1.83343 11 1.83343C11.5339 1.82379 12.0644 1.91941 12.5614 2.11482C13.0583 2.31023 13.5119 2.6016 13.8962 2.9723C14.2805 3.343 14.588 3.78577 14.8012 4.27532C15.0144 4.76488 15.1291 5.29163 15.1388 5.82551C15.1484 6.35939 15.0528 6.88993 14.8574 7.38686C14.662 7.88378 14.3706 8.33735 13.9999 8.72167C13.6292 9.10599 13.1864 9.41353 12.6969 9.62673C12.2073 9.83994 11.6806 9.95463 11.1467 9.96426ZM6.56335 13.3468C4.34501 14.8318 4.34501 17.2518 6.56335 18.7276C9.08418 20.4143 13.2183 20.4143 15.7392 18.7276C17.9575 17.2426 17.9575 14.8226 15.7392 13.3468C13.2275 11.6693 9.09335 11.6693 6.56335 13.3468Z" stroke="#444444" stroke-linecap="round" stroke-linejoin="round"/>
</svg>
