<svg width="264" height="74" viewBox="0 0 264 74" fill="none" xmlns="http://www.w3.org/2000/svg">
<path d="M0.688921 72V2.18182H24.2798C29.7571 2.18182 34.2344 3.17045 37.7116 5.14772C41.2116 7.10227 43.8026 9.75 45.4844 13.0909C47.1662 16.4318 48.0071 20.1591 48.0071 24.2727C48.0071 28.3864 47.1662 32.125 45.4844 35.4886C43.8253 38.8523 41.2571 41.5341 37.7798 43.5341C34.3026 45.5114 29.848 46.5 24.4162 46.5H7.5071V39H24.1435C27.8935 39 30.9048 38.3523 33.1776 37.0568C35.4503 35.7614 37.098 34.0114 38.1207 31.8068C39.1662 29.5795 39.6889 27.0682 39.6889 24.2727C39.6889 21.4773 39.1662 18.9773 38.1207 16.7727C37.098 14.5682 35.4389 12.8409 33.1435 11.5909C30.848 10.3182 27.8026 9.68182 24.0071 9.68182H9.14347V72H0.688921ZM93.5355 50.5909V19.6364H101.581V72H93.5355V63.1364H92.9901C91.7628 65.7955 89.8537 68.0568 87.2628 69.9205C84.6719 71.7614 81.3991 72.6818 77.4446 72.6818C74.1719 72.6818 71.2628 71.9659 68.7173 70.5341C66.1719 69.0795 64.1719 66.8977 62.7173 63.9886C61.2628 61.0568 60.5355 57.3636 60.5355 52.9091V19.6364H68.581V52.3636C68.581 56.1818 69.6491 59.2273 71.7855 61.5C73.9446 63.7727 76.6946 64.9091 80.0355 64.9091C82.0355 64.9091 84.0696 64.3977 86.1378 63.375C88.2287 62.3523 89.9787 60.7841 91.3878 58.6705C92.8196 56.5568 93.5355 53.8636 93.5355 50.5909ZM117.408 72V2.18182H125.453V27.9545H126.135C126.726 27.0455 127.544 25.8864 128.589 24.4773C129.658 23.0455 131.18 21.7727 133.158 20.6591C135.158 19.5227 137.862 18.9545 141.271 18.9545C145.68 18.9545 149.567 20.0568 152.93 22.2614C156.294 24.4659 158.919 27.5909 160.805 31.6364C162.692 35.6818 163.635 40.4545 163.635 45.9545C163.635 51.5 162.692 56.3068 160.805 60.375C158.919 64.4205 156.305 67.5568 152.964 69.7841C149.624 71.9886 145.771 73.0909 141.408 73.0909C138.044 73.0909 135.351 72.5341 133.328 71.4205C131.305 70.2841 129.749 69 128.658 67.5682C127.567 66.1136 126.726 64.9091 126.135 63.9545H125.18V72H117.408ZM125.317 45.8182C125.317 49.7727 125.896 53.2614 127.055 56.2841C128.214 59.2841 129.908 61.6364 132.135 63.3409C134.362 65.0227 137.089 65.8636 140.317 65.8636C143.68 65.8636 146.487 64.9773 148.737 63.2045C151.01 61.4091 152.714 59 153.851 55.9773C155.01 52.9318 155.589 49.5455 155.589 45.8182C155.589 42.1364 155.021 38.8182 153.885 35.8636C152.771 32.8864 151.078 30.5341 148.805 28.8068C146.555 27.0568 143.726 26.1818 140.317 26.1818C137.044 26.1818 134.294 27.0114 132.067 28.6705C129.839 30.3068 128.158 32.6023 127.021 35.5568C125.885 38.4886 125.317 41.9091 125.317 45.8182ZM183.987 2.18182V72H175.942V2.18182H183.987ZM198.723 72V19.6364H206.768V72H198.723ZM202.814 10.9091C201.246 10.9091 199.893 10.375 198.757 9.30682C197.643 8.23864 197.087 6.95455 197.087 5.45455C197.087 3.95455 197.643 2.67045 198.757 1.60227C199.893 0.53409 201.246 0 202.814 0C204.382 0 205.723 0.53409 206.837 1.60227C207.973 2.67045 208.541 3.95455 208.541 5.45455C208.541 6.95455 207.973 8.23864 206.837 9.30682C205.723 10.375 204.382 10.9091 202.814 10.9091ZM242.777 73.0909C237.868 73.0909 233.641 71.9318 230.095 69.6136C226.55 67.2955 223.822 64.1023 221.913 60.0341C220.004 55.9659 219.05 51.3182 219.05 46.0909C219.05 40.7727 220.027 36.0795 221.982 32.0114C223.959 27.9205 226.709 24.7273 230.232 22.4318C233.777 20.1136 237.913 18.9545 242.641 18.9545C246.322 18.9545 249.641 19.6364 252.595 21C255.55 22.3636 257.97 24.2727 259.857 26.7273C261.743 29.1818 262.913 32.0455 263.368 35.3182H255.322C254.709 32.9318 253.345 30.8182 251.232 28.9773C249.141 27.1136 246.322 26.1818 242.777 26.1818C239.641 26.1818 236.891 27 234.527 28.6364C232.186 30.25 230.357 32.5341 229.038 35.4886C227.743 38.4205 227.095 41.8636 227.095 45.8182C227.095 49.8636 227.732 53.3864 229.004 56.3864C230.3 59.3864 232.118 61.7159 234.459 63.375C236.822 65.0341 239.595 65.8636 242.777 65.8636C244.868 65.8636 246.766 65.5 248.47 64.7727C250.175 64.0455 251.618 63 252.8 61.6364C253.982 60.2727 254.822 58.6364 255.322 56.7273H263.368C262.913 59.8182 261.788 62.6023 259.993 65.0795C258.22 67.5341 255.868 69.4886 252.936 70.9432C250.027 72.375 246.641 73.0909 242.777 73.0909Z" fill="white"/>
</svg>
