<svg width="100" height="100" viewBox="0 0 100 100" fill="none" xmlns="http://www.w3.org/2000/svg">
<g clip-path="url(#clip0_125_194)">
<path fill-rule="evenodd" clip-rule="evenodd" d="M93.9885 24.6031C108.015 48.8973 99.6911 79.9622 75.3967 93.9885C51.1025 108.015 20.0376 99.6911 6.01131 75.3967C-8.01498 51.1025 0.308795 20.0376 24.6031 6.01131C48.8973 -8.01498 79.9622 0.308795 93.9885 24.6031Z" fill="url(#paint0_linear_125_194)"/>
<path d="M59.8997 55.9311L64.3754 81.0577C64.473 81.6056 64.1086 82.1287 63.5608 82.2262C63.3362 82.2662 63.1158 82.2284 62.9271 82.1322L50.0002 76.8137L36.9979 82.163C36.4833 82.3746 35.8957 82.1322 35.684 81.6176C35.6002 81.4138 35.5881 81.1984 35.636 80.9995L39.7716 55.7301C39.8615 55.1811 40.3771 54.8073 40.9262 54.8972C41.0496 54.9174 41.1641 54.9593 41.2664 55.0182C42.5895 55.7182 44.0005 56.2637 45.4752 56.6301C46.9181 56.9886 48.4335 57.1791 50 57.1791C51.4988 57.1791 52.9553 57.0031 54.3499 56.6709C55.7912 56.3275 57.1638 55.82 58.4466 55.1698C58.9429 54.9182 59.5481 55.1143 59.7997 55.6106C59.8522 55.714 59.8851 55.8222 59.8997 55.9311ZM62.0719 79.6085L58.1393 57.5308C57.0718 57.9881 55.9604 58.3578 54.8144 58.6308C53.2684 58.9991 51.6563 59.1942 50 59.1942C48.2801 59.1942 46.6035 58.9819 44.995 58.5822C43.7947 58.284 42.6386 57.8831 41.5365 57.3897L37.8981 79.6208L49.5432 74.8298C49.7958 74.7014 50.1009 74.6796 50.3835 74.7959L62.0719 79.6085Z" fill="white"/>
<path d="M30.2894 37.4685H36.7592V39.4835H30.2894V37.4685Z" fill="white"/>
<path d="M36.775 23.8262L41.3497 28.4009L39.9249 29.8257L35.3501 25.2509L36.775 23.8262Z" fill="white"/>
<path d="M35.3501 51.7011L39.9249 47.1262L41.3497 48.5511L36.775 53.1258L35.3501 51.7011Z" fill="white"/>
<path d="M63.225 53.1258L58.6503 48.5511L60.075 47.1262L64.6498 51.7011L63.225 53.1258Z" fill="white"/>
<path d="M48.9923 58.1864V51.7168H51.0075V58.1864H48.9923Z" fill="white"/>
<path d="M69.7105 39.4835H63.2407V37.4685H69.7105V39.4835Z" fill="white"/>
<path d="M51.0075 18.7654V25.2352H48.9923V18.7654H51.0075Z" fill="white"/>
<path d="M64.6498 25.2509L60.075 29.8257L58.6503 28.4009L63.225 23.8262L64.6498 25.2509Z" fill="white"/>
<path d="M58.5231 37.228L54.3279 40.453L56.144 45.5059C56.3322 46.0295 56.0642 46.6053 55.5406 46.7935C55.2016 46.9153 54.8402 46.8443 54.5764 46.637L50.2027 43.6367L45.9587 46.9252C45.5189 47.266 44.8878 47.188 44.547 46.7482C44.3252 46.462 44.2819 46.094 44.3997 45.778L45.8999 40.6971L41.4604 37.6766C41.0004 37.3636 40.8799 36.7387 41.1929 36.2786C41.3995 35.9748 41.743 35.8198 42.0849 35.8395L47.3671 35.6966L48.8677 30.5413C49.0232 30.0071 49.5793 29.6979 50.1136 29.8534C50.4576 29.9535 50.7073 30.2211 50.8001 30.5415L52.577 35.5455L57.9429 35.3796C58.499 35.3624 58.9638 35.7959 58.981 36.352C58.9922 36.7168 58.8081 37.0423 58.5231 37.228ZM52.5234 39.306L54.8952 37.4828L51.9914 37.5726C51.5347 37.6264 51.085 37.3605 50.9247 36.9088L49.9258 34.0906L49.1148 36.8769C49.0253 37.3285 48.6332 37.6746 48.1537 37.6875L45.1645 37.7647L47.5807 39.4085C47.9715 39.637 48.1717 40.1099 48.0378 40.5635L47.1887 43.4305L49.4884 41.6485C49.8263 41.3399 50.3438 41.2924 50.7374 41.5624L53.203 43.2563L52.2227 40.5292C52.0265 40.1104 52.1416 39.5994 52.5234 39.306Z" fill="white"/>
<path d="M50 17.7578C55.721 17.7578 60.9006 20.0768 64.6498 23.8261C68.399 27.5753 70.7181 32.7549 70.7181 38.4759C70.7181 44.197 68.399 49.3766 64.6498 53.1258C60.9006 56.875 55.721 59.194 50 59.194C44.2789 59.194 39.0994 56.875 35.3501 53.1258C31.6009 49.3765 29.2819 44.197 29.2819 38.4759C29.2819 32.7549 31.6009 27.5753 35.3501 23.8261C39.0994 20.0768 44.2789 17.7578 50 17.7578ZM63.225 25.2508C59.8405 21.8664 55.1647 19.7729 50 19.7729C44.8352 19.7729 40.1594 21.8664 36.7749 25.2508C33.3904 28.6354 31.2969 33.3112 31.2969 38.4759C31.2969 43.6406 33.3904 48.3165 36.7749 51.701C40.1594 55.0855 44.8352 57.1789 50 57.1789C55.1647 57.1789 59.8405 55.0855 63.225 51.701C66.6096 48.3165 68.703 43.6406 68.703 38.4759C68.703 33.3111 66.6096 28.6354 63.225 25.2508Z" fill="white"/>
<path d="M49.9999 24.9426C53.7369 24.9426 57.1203 26.4574 59.5694 28.9065C62.0185 31.3556 63.5334 34.739 63.5334 38.476C63.5334 42.213 62.0185 45.5964 59.5694 48.0455C57.1204 50.4946 53.737 52.0094 49.9999 52.0094C46.2628 52.0094 42.8794 50.4946 40.4304 48.0455C37.9813 45.5964 36.4664 42.213 36.4664 38.476C36.4664 34.739 37.9813 31.3556 40.4304 28.9065C42.8795 26.4574 46.2629 24.9426 49.9999 24.9426ZM58.1446 30.3313C56.0603 28.247 53.1806 26.9577 49.9999 26.9577C46.8192 26.9577 43.9395 28.247 41.8552 30.3313C39.7708 32.4156 38.4816 35.2953 38.4816 38.476C38.4816 41.6567 39.7708 44.5364 41.8552 46.6207C43.9395 48.7051 46.8191 49.9943 49.9999 49.9943C53.1807 49.9943 56.0603 48.7051 58.1446 46.6207C60.229 44.5364 61.5182 41.6567 61.5182 38.476C61.5182 35.2953 60.229 32.4156 58.1446 30.3313Z" fill="white"/>
</g>
<defs>
<linearGradient id="paint0_linear_125_194" x1="20.6775" y1="-0.787928" x2="79.3225" y2="100.788" gradientUnits="userSpaceOnUse">
<stop stop-color="#6953D3"/>
<stop offset="0.40625" stop-color="#444FF5"/>
<stop offset="0.807292" stop-color="#FF847F"/>
<stop offset="1" stop-color="#E7A600"/>
</linearGradient>
<clipPath id="clip0_125_194">
<rect width="100" height="100" fill="white"/>
</clipPath>
</defs>
</svg>
