<svg width="47" height="44" viewBox="0 0 47 44" fill="none" xmlns="http://www.w3.org/2000/svg">
<path fill-rule="evenodd" clip-rule="evenodd" d="M33.5085 26.687C33.2332 26.687 32.9578 26.5769 32.7376 26.3842L29.461 23.1076C28.4423 22.0889 30.0117 20.5195 31.0305 21.5382L33.5085 24.0438L39.676 17.8762C40.7223 16.8575 42.2642 18.3994 41.2455 19.4181L34.307 26.3842C34.0867 26.5769 33.8114 26.687 33.5085 26.687ZM18.2273 43.2072C18.1447 43.2072 18.0346 43.2072 17.952 43.1797C9.00351 40.8118 4.59813 35.2225 2.47803 30.9823C0.192736 26.3566 0 22.3092 0 22.1164V3.9442C0 3.11819 0.936145 2.56752 1.65202 3.00805C8.81078 7.13811 17.4564 0.309754 17.539 0.227153C17.952 -0.0757176 18.5302 -0.0757176 18.9156 0.227153C18.9982 0.309754 27.6714 7.13811 34.8026 3.00805C35.546 2.56752 36.4546 3.11819 36.4546 3.9442V10.5523C42.3468 11.103 47 16.0866 47 22.1164C47 29.6882 39.8688 35.2225 32.5723 33.4052C29.406 38.2787 24.6702 41.5552 18.5026 43.1797C18.42 43.2072 18.3374 43.2072 18.2273 43.2072ZM35.3808 12.6999C30.0943 12.755 25.9367 16.9401 25.9367 22.1164C25.9367 27.3203 30.1494 31.5605 35.3533 31.5605C40.5571 31.5605 44.7973 27.3203 44.7973 22.1164C44.7973 16.9401 40.5571 12.6999 35.3808 12.6999ZM34.2519 10.5523V5.70636C27.4786 8.37712 20.43 4.0268 18.2273 2.45738C16.0246 4.0268 9.00351 8.37712 2.20269 5.70636V22.0889C2.23023 22.9149 3.11131 36.8194 18.2273 40.977C23.5138 39.5177 27.6163 36.7368 30.4247 32.6618C26.4874 30.7895 23.734 26.7696 23.734 22.1164C23.734 16.0866 28.3597 11.103 34.2519 10.5523ZM22.1921 15.0953H6.63562C5.17633 15.0953 5.17633 12.8926 6.63562 12.8926H22.1921C23.6514 12.8926 23.6514 15.0953 22.1921 15.0953ZM20.43 23.2178H6.63562C5.17633 23.2178 5.17633 21.0151 6.63562 21.0151H20.43C21.8617 21.0151 21.8617 23.2178 20.43 23.2178ZM22.1921 31.3677H8.61804C7.15876 31.3677 7.15876 29.1651 8.61804 29.1651H22.1921C23.6514 29.1651 23.6514 31.3677 22.1921 31.3677Z" fill="url(#paint0_linear_125_235)"/>
<defs>
<linearGradient id="paint0_linear_125_235" x1="0.0041192" y1="21.6024" x2="46.9865" y2="21.6024" gradientUnits="userSpaceOnUse">
<stop stop-color="#336666"/>
<stop offset="1" stop-color="#003333"/>
</linearGradient>
</defs>
</svg>
